0
SECTION
2
HEADER
9
$INSUNITS
70
4
9
$ACADVER
1
AC1014
9
$HANDSEED
5
FFFF
0
ENDSEC
0
SECTION
2
TABLES
0
TABLE
2
VPORT
5
8
100
AcDbSymbolTable
0
ENDTAB
0
TABLE
2
LTYPE
5
5
100
AcDbSymbolTable
0
LTYPE
5
14
100
AcDbSymbolTableRecord
100
AcDbLinetypeTableRecord
2
BYBLOCK
70
0
0
LTYPE
5
15
100
AcDbSymbolTableRecord
100
AcDbLinetypeTableRecord
2
BYLAYER
70
0
0
ENDTAB
0
TABLE
2
LAYER
5
2
100
AcDbSymbolTable
70
2
0
LAYER
5
50
100
AcDbSymbolTableRecord
100
AcDbLayerTableRecord
2
0
70
0
6
CONTINUOUS
0
ENDTAB
0
TABLE
2
STYLE
5
3
100
AcDbSymbolTable
70
1
0
STYLE
5
11
100
AcDbSymbolTableRecord
100
AcDbTextStyleTableRecord
2
STANDARD
70
0
0
ENDTAB
0
TABLE
2
VIEW
5
6
100
AcDbSymbolTable
70
0
0
ENDTAB
0
TABLE
2
UCS
5
7
100
AcDbSymbolTable
70
0
0
ENDTAB
0
TABLE
2
APPID
5
9
100
AcDbSymbolTable
70
2
0
APPID
5
12
100
AcDbSymbolTableRecord
100
AcDbRegAppTableRecord
2
ACAD
70
0
0
ENDTAB
0
TABLE
2
DIMSTYLE
5
A
100
AcDbSymbolTable
70
1
0
ENDTAB
0
TABLE
2
BLOCK_RECORD
5
1
100
AcDbSymbolTable
70
1
0
BLOCK_RECORD
5
1F
100
AcDbSymbolTableRecord
100
AcDbBlockTableRecord
2
*MODEL_SPACE
0
BLOCK_RECORD
5
1B
100
AcDbSymbolTableRecord
100
AcDbBlockTableRecord
2
*PAPER_SPACE
0
ENDTAB
0
ENDSEC
0
SECTION
2
BLOCKS
0
BLOCK
5
20
100
AcDbEntity
100
AcDbBlockBegin
2
*MODEL_SPACE
0
ENDBLK
5
21
100
AcDbEntity
100
AcDbBlockEnd
0
BLOCK
5
1C
100
AcDbEntity
100
AcDbBlockBegin
2
*PAPER_SPACE
0
ENDBLK
5
1D
100
AcDbEntity
100
AcDbBlockEnd
0
ENDSEC
0
SECTION
2
ENTITIES
0
LWPOLYLINE
5
100
100
AcDbEntity
8
0
100
AcDbPolyline
90
12
70
1
43
0.0
10
-264.32698529199996
20
-126.07079859729123
10
-277.75051470799917
20
-126.07079859729127
42
0.41421356237309204
10
-284.75051470799912
20
-133.07079859729123
10
-284.75051470799929
20
-198.48256330529131
42
0.41421356237309204
10
-277.75051470799929
20
-205.48256330529125
10
-174.68698529200083
20
-205.48256330529119
42
0.41421356237308904
10
-167.6869852920008
20
-198.48256330529119
10
-167.68698529200077
20
-32.482563305291094
42
0.41421356237309481
10
-174.6869852920008
20
-25.482563305291176
10
-250.32698529200076
20
-25.482563305291151
42
0.4142135623731002
10
-257.32698529200076
20
-32.482563305291222
10
-257.3269852919999
20
-119.07079859729116
42
-0.41421356237309431
0
ELLIPSE
5
101
100
AcDbEntity
8
0
100
AcDbEllipse
10
-185.61282642334191
20
-116.24728245065842
30
-1.2878587085651816e-13
11
-5.307469085097291e-16
21
4.3338773994204365
31
0.0
40
0.97955489770546589
41
0
42
6.2831853071795862
0
LWPOLYLINE
5
102
100
AcDbEntity
8
0
100
AcDbPolyline
90
161
70
1
43
0.0
10
-212.24446793934109
20
-136.08376108161536
10
-212.52493500669596
20
-135.86358693462239
10
-212.26805516971154
20
-132.96199264191546
10
-212.22873978615218
20
-132.51639996372884
10
-212.15534840382119
20
-131.70385037388732
10
-212.02691348474195
20
-130.3959039538986
10
-211.982358716395
20
-129.97914788969604
10
-211.95352210241094
20
-129.77731658887282
10
-211.92206579603317
20
-129.67509359197078
10
-211.72286918584265
20
-129.49947921273778
10
-211.36115165897539
20
-129.51520736592667
10
-210.84478229143866
20
-129.73013712871906
10
-210.17115138966463
20
-130.14165380813395
10
-209.25637880292106
20
-130.71568640481274
10
-208.03493222605846
20
-131.36048069260275
10
-206.82396441877114
20
-131.87684506072651
10
-205.65756137865674
20
-132.24642666418825
10
-204.58027787406223
20
-132.45611704219297
10
-203.62880959615319
20
-132.49281273335845
10
-203.52134221505054
20
-132.484948656764
10
-202.71141731701576
20
-132.33292150790137
10
-202.10592841395913
20
-132.03673628618358
10
-201.7101348883202
20
-131.60424706937911
10
-201.5318958172804
20
-131.04856731769604
10
-201.57121120083971
20
-130.37231672352817
10
-201.83857980622537
20
-129.59121844065152
10
-201.8700361126032
20
-129.52569113491498
10
-202.05351456843067
20
-129.18232145363044
10
-202.28940686978663
20
-128.81798423436931
10
-202.59345116868593
20
-128.4195710163365
10
-202.97614623235577
20
-127.97135864575608
10
-203.45319021750723
20
-127.46285835422681
10
-204.03508189136744
20
-126.88096668036653
10
-204.73491971590576
20
-126.21519985518694
10
-205.56320245834917
20
-125.45244941789305
10
-206.53826796545457
20
-124.57699221470878
10
-207.66797531440349
20
-123.57833947723296
10
-208.96805265838478
20
-122.44601243589024
10
-210.44899876462563
20
-121.16689763047256
10
-211.133108435975
20
-120.57714687943077
10
-211.90371795045041
20
-119.91399974664505
10
-212.60618546620844
20
-119.30589615060757
10
-213.21953344644652
20
-118.7764283211017
10
-213.71492527718073
20
-118.34918348849789
10
-214.07140341926038
20
-118.04250949837882
10
-214.26012125987552
20
-117.87737888813412
10
-214.35971956497073
20
-117.78825935261422
10
-214.47767571447463
20
-117.66506881773557
10
-214.56679524999456
20
-117.51304166887294
10
-214.64542601711321
20
-117.29548721427381
10
-214.71619770705041
20
-116.97832945516645
10
-214.79220878177523
20
-116.51963331559776
10
-214.88132831729516
20
-115.8853177973831
10
-214.99403508318545
20
-115.03869220876985
10
-215.05169831232749
20
-114.58523545398883
10
-215.1565460010363
20
-113.68094663623356
10
-215.21682892257223
20
-113.02041919584164
10
-215.22731769097351
20
-112.60365813222609
10
-215.19324169220184
20
-112.42542406059924
10
-215.08315461870535
20
-112.40183183081587
10
-214.72143709183808
20
-112.37561990863867
10
-214.11333849521353
20
-112.35203267826826
10
-213.26932759958117
20
-112.33630452507936
10
-212.18942440259286
20
-112.3232010636972
10
-210.8788582902103
20
-112.31533698710274
10
-209.34287864604715
20
-112.31271229529597
10
-206.74009426686482
20
-112.31271229529595
10
-204.6117341804401
20
-112.3100926029021
10
-202.70617793222812
20
-112.29698914151999
10
-201.03389429297832
20
-112.27601660413043
10
-199.59750295508442
20
-112.24456529716559
10
-198.40226330098602
20
-112.20786960600009
10
-197.45603440786459
20
-112.15807045345247
10
-197.23586026087162
20
-112.14496199265739
10
-196.44167351485174
20
-112.09516284010975
10
-195.73133692308627
20
-112.05060307234982
10
-195.1468255568322
20
-112.01390738118432
10
-194.73005449439071
20
-111.9876954590071
10
-194.52299880701872
20
-111.97458699821203
10
-194.34475973597895
20
-111.97458699821203
10
-194.23991204727008
20
-112.00604330458985
10
-194.20583604849841
20
-112.13447822366909
10
-194.11672651180442
20
-112.47522321314683
10
-193.97780282432396
20
-112.99420727366444
10
-193.79432436849646
20
-113.65997909825694
10
-193.34609699967717
20
-115.30342612352283
10
-192.45230194973607
20
-118.55362948230193
10
-192.71965055746989
20
-118.82098808886167
10
-192.8166391689972
20
-118.90748293257477
10
-192.93458531967525
20
-118.96514616171685
10
-193.10758500592738
20
-118.99398277570086
10
-193.37493361366117
20
-118.99660246809469
10
-193.77858621648161
20
-118.97301023831132
10
-194.35523850555427
20
-118.92583077815752
10
-195.14420586443836
20
-118.84981970343273
10
-195.3905969330215
20
-118.82884716604316
10
-196.0589784511819
20
-118.78429239769616
10
-196.84270642527838
20
-118.74235232233005
10
-197.71552393841688
20
-118.70827632355838
10
-198.63817559999387
20
-118.67944470898733
10
-199.5791651083276
20
-118.65585247920394
10
-200.50441646464648
20
-118.64274901782184
10
-201.37725397543693
20
-118.6348849412274
10
-202.16884102671483
20
-118.6348849412274
10
-202.84246192966293
20
-118.64536871021568
10
-203.36670037320704
20
-118.66371655579842
10
-203.70482067087804
20
-118.68992847797566
10
-203.82538651394981
20
-118.72924886094792
10
-203.80966835958679
20
-118.75283609131836
10
-203.65502651774338
20
-118.92845047055138
10
-203.34834252879836
20
-119.25347230625317
10
-202.90799423481243
20
-119.71217344523484
10
-202.35493917493616
20
-120.28357635069386
10
-201.70489550353255
20
-120.94672348347959
10
-200.9788407574041
20
-121.68588169099016
10
-200.19513278095954
20
-122.48270812705573
10
-199.37208942330381
20
-123.31623025428682
10
-198.21354546037088
20
-124.51146490897224
10
-197.21752241411482
20
-125.56253649138955
10
-196.36826213486887
20
-126.49566192312881
10
-195.65270615596762
20
-127.32131997376544
10
-195.05507633009248
20
-128.06571756606365
10
-194.56493388297187
20
-128.73934846783766
10
-194.16390097254526
20
-129.36579990945791
10
-193.83625944444961
20
-129.96080004411328
10
-193.57153052910968
20
-130.54269171797355
10
-193.35135638211668
20
-131.1324424690153
10
-193.31204099855736
20
-131.25825769570073
10
-193.19669454262134
20
-131.68288283591073
10
-193.13380192751751
20
-132.10750297670774
10
-193.11020469832118
20
-132.61338357584322
10
-193.12330316029036
20
-133.28701447761722
10
-193.1259228526842
20
-133.34205801436548
10
-193.15213977427436
20
-133.94754191800916
10
-193.19931423501518
20
-134.39050990438892
10
-193.28582407696717
20
-134.75484712365005
10
-193.42474776444766
20
-135.12180903471798
10
-193.6423022190468
20
-135.57788548189285
10
-194.15604189536378
20
-136.42975045529374
10
-194.8087052591612
20
-137.15842489381598
10
-195.63434831155894
20
-137.80060448862514
10
-196.67494612381387
20
-138.38511585487925
10
-196.89512027080684
20
-138.48996354358806
10
-197.75223962723427
20
-138.85167607104239
10
-198.59362083164683
20
-139.10855090861386
10
-199.48479618919407
20
-139.27630121125242
10
-200.49131800267733
20
-139.36542074677232
10
-201.68129827433617
20
-139.3890129765557
10
-202.49910224720426
20
-139.37590451576062
10
-203.66026590253102
20
-139.29464905683517
10
-204.75065786792061
20
-139.13213813898426
10
-205.86463706368056
20
-138.87264860843197
10
-207.0991921013383
20
-138.49520292837576
10
-207.2721817887645
20
-138.43492000683983
10
-207.86193253980628
20
-138.20950147564622
10
-208.55916067077663
20
-137.9185556387161
10
-209.31404203206313
20
-137.58566972641984
10
-210.07679246935706
20
-137.23182127555995
10
-210.80022752309168
20
-136.88320721007477
10
-211.43454304130637
20
-136.56081006617978
10
-211.93255456443438
20
-136.28559238243855
0
LWPOLYLINE
5
103
100
AcDbEntity
8
0
100
AcDbPolyline
90
106
70
1
43
0.0
10
-220.79984336099312
20
-130.24912118923663
10
-220.7238322862683
20
-130.8336375549037
10
-220.54035383044084
20
-132.23069851099933
10
-220.36998383540845
20
-133.54912869997634
10
-220.21009260995135
20
-134.77057527683894
10
-220.06592953768322
20
-135.868831318823
10
-219.94011431099779
20
-136.82554398093271
10
-219.835266622289
20
-137.61712603279764
10
-219.75663585517029
20
-138.22522962883514
10
-219.70159231842212
20
-138.62363784745497
10
-219.67800508805166
20
-138.79663253429416
10
-219.63082062848491
20
-139.0797192940428
10
-227.27142346339335
20
-139.07971929404283
10
-234.71543938167923
20
-129.82974043322724
10
-241.55396639690849
20
-121.3241691635358
10
-242.15683560757128
20
-120.57714687943079
10
-242.4792277520533
20
-117.9638737318472
10
-242.49495590524222
20
-117.84068319696858
10
-242.59718390155723
20
-116.98619353176093
10
-242.67057528388821
20
-116.3440139369518
10
-242.71251035984136
20
-115.8748340283948
10
-242.72561882063644
20
-115.54719250029918
10
-242.70989066744755
20
-115.32439366149937
10
-242.67057528388821
20
-115.17237151204974
10
-242.60766267113254
20
-115.05179567015202
10
-242.41370544572973
20
-114.75561044843418
10
-235.92377749774676
20
-114.82638213837134
10
-234.61321138536422
20
-114.83948559975346
10
-233.34458034893487
20
-114.84734967634795
10
-232.22274207599341
20
-114.84996936874177
10
-231.26602441447068
20
-114.84734967634792
10
-230.49017551520765
20
-114.83948559975346
10
-229.91614291852883
20
-114.82638213837136
10
-229.55704508405535
20
-114.80803429278859
10
-229.43385954858974
20
-114.78444206300524
10
-229.43385954858971
20
-114.78182237061139
10
-229.45220739417243
20
-114.62717552935493
10
-229.50725093092072
20
-114.25497423349937
10
-229.58850139043321
20
-113.70191417421012
10
-229.69334907914202
20
-113.00207135025887
10
-229.81916430582743
20
-112.18690206802351
10
-229.95807799448201
20
-111.29047232744973
10
-230.08914260478099
20
-110.44122704644268
10
-230.21494783264049
20
-109.59984084261714
10
-230.30406736816036
20
-108.95242686243328
10
-230.36174059612841
20
-108.47013349366824
10
-230.38532782649881
20
-108.121524427596
10
-230.38532782649881
20
-107.88038274262648
10
-230.35911090490868
20
-107.7126324399879
10
-230.30931675177399
20
-107.58943690569632
10
-230.24116475423068
20
-107.47148075619242
10
-230.10486075914397
20
-107.34304583711319
10
-229.88730630454486
20
-107.30635014594769
10
-229.50200154730712
20
-107.33780645232551
10
-229.48365370172439
20
-107.34042614471937
10
-229.14291371165959
20
-107.36926275870331
10
-228.60295711375247
20
-107.41119783465651
10
-227.91883744357719
20
-107.45838229422327
10
-227.14036885192027
20
-107.50817644735791
10
-226.31732549426454
20
-107.5579805993185
10
-225.8795968926724
20
-107.58418752208273
10
-225.0880198402204
20
-107.62351290446801
10
-224.46681278280079
20
-107.67330705760267
10
-223.99238849004317
20
-107.7571872083349
10
-223.64376942514502
20
-107.90396997299688
10
-223.40000804778163
20
-108.13725258078493
10
-223.23487743753691
20
-108.488481339251
10
-223.12479036404042
20
-108.97863378519753
10
-223.05139898170944
20
-109.64178591739623
10
-222.99111606017351
20
-110.49889027558476
10
-222.91772467784253
20
-111.57879847198603
10
-222.68706176244831
20
-114.79492583199352
10
-220.64782121154343
20
-114.75036606423359
10
-220.27299522388114
20
-114.7425019876391
10
-219.61247278290216
20
-114.73464291045759
10
-219.15115695093962
20
-114.73726260285146
10
-218.85234203800206
20
-114.75561044843418
10
-218.676732658182
20
-114.79230613959967
10
-218.5849934302683
20
-114.85259406054857
10
-218.54566804788303
20
-114.93908890426168
10
-218.54042866309533
20
-114.96530082643888
10
-218.48800481874093
20
-115.20644251140843
10
-218.40150497561484
20
-115.64679580480737
10
-218.28879820972449
20
-116.24441063244359
10
-218.15512390585766
20
-116.95736191718987
10
-218.01096083358948
20
-117.74107989246041
10
-217.92971037407699
20
-118.19453664724143
10
-217.79340637899031
20
-118.94942300794091
10
-217.70166715107661
20
-119.51558652861226
10
-217.64662361432838
20
-119.92186382323953
10
-217.6282757687456
20
-120.21280966016968
10
-217.63876453714687
20
-120.41987534636758
10
-217.68069961310005
20
-120.58238626421848
10
-217.74622191942359
20
-120.73965279786873
10
-217.95067791205355
20
-121.16689763047259
10
-222.01867024546192
20
-121.16689763047256
10
-221.94789855552474
20
-121.57579461749366
10
-221.94003947834324
20
-121.62297407764746
10
-221.89810440239012
20
-121.9086805297899
10
-221.82995240484678
20
-122.41455612951239
10
-221.73559348453924
20
-123.11702364527044
10
-221.62025702742912
20
-123.9951005408485
10
-221.48134333877454
20
-125.0252045852892
10
-221.329311190499
20
-126.18898793300977
10
-221.16418058025428
20
-127.4628583542268
10
-220.98594150921443
20
-128.82322861856994
0
LWPOLYLINE
5
104
100
AcDbEntity
8
0
100
AcDbPolyline
90
46
70
1
43
0.0
10
-227.49159761038629
20
-128.88089184771201
10
-227.55711991670992
20
-128.28589671246959
10
-227.6488591446236
20
-127.5100378143806
10
-227.76943498652142
20
-126.53497730668812
10
-227.92145713597102
20
-125.32925888301443
10
-227.9869894411205
20
-124.80503043829621
10
-228.10494559062445
20
-123.86928531416309
10
-228.20978328050731
20
-123.03052380214436
10
-228.29890281602724
20
-122.32019720920485
10
-228.36443512117677
20
-121.7697618417224
10
-228.40898988952375
20
-121.4054246224613
10
-228.42471804271267
20
-121.26126155019314
10
-228.51907696302024
20
-121.23766932040974
10
-228.83362002914674
20
-121.21670178243315
10
-229.33949062945626
20
-121.19573424445659
10
-230.00002306926109
20
-121.18000609126767
10
-230.78374104453161
20
-121.16952232227938
10
-231.65657855532203
20
-121.16689763047259
10
-232.45864437617527
20
-121.16689763047256
10
-233.29478619580019
20
-121.17476170706703
10
-233.92123263800744
20
-121.18787016786213
10
-234.35896123959958
20
-121.20883770583872
10
-234.631559230947
20
-121.2350496280159
10
-234.75999415002619
20
-121.27436501157521
10
-234.76786322603368
20
-121.3241691635358
10
-234.71543938167923
20
-121.39493585405999
10
-234.29867831806371
20
-121.92440868297882
10
-233.79279771892823
20
-122.56134389358736
10
-233.21352573746179
20
-123.28215425551517
10
-232.58182991164094
20
-124.06062784658504
10
-231.91606808587431
20
-124.87318243583954
10
-231.23719779931264
20
-125.70146017887001
10
-230.56093720631884
20
-126.51924915349922
10
-229.91090353374119
20
-127.3029721281827
10
-229.30279493829073
20
-128.02902187489815
10
-228.75759895559597
20
-128.67644085449498
10
-228.29366343123962
20
-129.21901714479594
10
-227.93194590437227
20
-129.63577820841144
10
-227.69080421940274
20
-129.90313181555823
10
-227.58857622308773
20
-129.99749573527876
10
-227.58333683830006
20
-129.99749573527876
10
-227.52042422554439
20
-129.98438727448371
10
-227.47324976480357
20
-129.93458812193606
10
-227.44441315081957
20
-129.82187635663277
10
-227.43655407363806
20
-129.62529443942319
10
-227.45228222682698
20
-129.31862044930412
0
ENDSEC
0
SECTION
2
OBJECTS
0
DICTIONARY
5
C
100
AcDbDictionary
3
ACAD_GROUP
350
D
3
ACAD_MLINESTYLE
350
17
0
DICTIONARY
5
D
100
AcDbDictionary
0
DICTIONARY
5
1A
330
C
100
AcDbDictionary
0
DICTIONARY
5
17
100
AcDbDictionary
0
ENDSEC
0
EOF
