0
SECTION
2
HEADER
9
$INSUNITS
70
4
9
$ACADVER
1
AC1014
9
$HANDSEED
5
FFFF
0
ENDSEC
0
SECTION
2
TABLES
0
TABLE
2
VPORT
5
8
100
AcDbSymbolTable
0
ENDTAB
0
TABLE
2
LTYPE
5
5
100
AcDbSymbolTable
0
LTYPE
5
14
100
AcDbSymbolTableRecord
100
AcDbLinetypeTableRecord
2
BYBLOCK
70
0
0
LTYPE
5
15
100
AcDbSymbolTableRecord
100
AcDbLinetypeTableRecord
2
BYLAYER
70
0
0
ENDTAB
0
TABLE
2
LAYER
5
2
100
AcDbSymbolTable
70
2
0
LAYER
5
50
100
AcDbSymbolTableRecord
100
AcDbLayerTableRecord
2
0
70
0
6
CONTINUOUS
0
ENDTAB
0
TABLE
2
STYLE
5
3
100
AcDbSymbolTable
70
1
0
STYLE
5
11
100
AcDbSymbolTableRecord
100
AcDbTextStyleTableRecord
2
STANDARD
70
0
0
ENDTAB
0
TABLE
2
VIEW
5
6
100
AcDbSymbolTable
70
0
0
ENDTAB
0
TABLE
2
UCS
5
7
100
AcDbSymbolTable
70
0
0
ENDTAB
0
TABLE
2
APPID
5
9
100
AcDbSymbolTable
70
2
0
APPID
5
12
100
AcDbSymbolTableRecord
100
AcDbRegAppTableRecord
2
ACAD
70
0
0
ENDTAB
0
TABLE
2
DIMSTYLE
5
A
100
AcDbSymbolTable
70
1
0
ENDTAB
0
TABLE
2
BLOCK_RECORD
5
1
100
AcDbSymbolTable
70
1
0
BLOCK_RECORD
5
1F
100
AcDbSymbolTableRecord
100
AcDbBlockTableRecord
2
*MODEL_SPACE
0
BLOCK_RECORD
5
1B
100
AcDbSymbolTableRecord
100
AcDbBlockTableRecord
2
*PAPER_SPACE
0
ENDTAB
0
ENDSEC
0
SECTION
2
BLOCKS
0
BLOCK
5
20
100
AcDbEntity
100
AcDbBlockBegin
2
*MODEL_SPACE
0
ENDBLK
5
21
100
AcDbEntity
100
AcDbBlockEnd
0
BLOCK
5
1C
100
AcDbEntity
100
AcDbBlockBegin
2
*PAPER_SPACE
0
ENDBLK
5
1D
100
AcDbEntity
100
AcDbBlockEnd
0
ENDSEC
0
SECTION
2
ENTITIES
0
LWPOLYLINE
5
100
100
AcDbEntity
8
0
100
AcDbPolyline
90
8
70
1
43
0.0
10
-242.53125
20
-124.91200000000001
10
-256.53125
20
-124.91200000000005
42
-0.41421356237310542
10
-257.03125000000006
20
-124.41200000000002
10
-257.03125
20
-118.41200000000001
42
-0.41421356237310542
10
-256.53125
20
-117.91200000000001
10
-242.53125
20
-117.91200000000001
42
-0.41421356237313667
10
-242.03125
20
-118.41200000000001
10
-242.03125
20
-124.41200000000002
42
-0.41421356237313667
0
LWPOLYLINE
5
101
100
AcDbEntity
8
0
100
AcDbPolyline
90
8
70
1
43
0.0
10
-243.03125
20
-126.85000000000001
42
0.41421356237309509
10
-243.53125000000003
20
-126.34999999999999
10
-256.53125
20
-126.34999999999999
42
0.41421356237308465
10
-257.03125
20
-126.85000000000001
10
-257.03125000000006
20
-139.84999999999999
42
0.41421356237310542
10
-256.53125
20
-140.34999999999999
10
-243.53125000000003
20
-140.34999999999999
42
0.41421356237313667
10
-243.03125
20
-139.84999999999999
0
LWPOLYLINE
5
102
100
AcDbEntity
8
0
100
AcDbPolyline
90
8
70
1
43
0.0
10
-242.03125
20
-142.28800000000001
42
0.41421356237309509
10
-242.53125
20
-141.78800000000001
10
-256.53125
20
-141.78800000000001
42
0.41421356237308465
10
-257.03125
20
-142.28800000000001
10
-257.03125000000006
20
-148.28800000000001
42
0.41421356237310542
10
-256.53125
20
-148.78800000000001
10
-242.53125
20
-148.78800000000001
42
0.41421356237313667
10
-242.03125
20
-148.28800000000001
0
LWPOLYLINE
5
103
100
AcDbEntity
8
0
100
AcDbPolyline
90
8
70
1
43
0.0
10
-281.34375
20
-117.91200000000002
10
-267.34375
20
-117.91199999999998
42
-0.41421356237310542
10
-266.84375
20
-118.41200000000001
10
-266.84375
20
-124.41200000000002
42
-0.41421356237310542
10
-267.34375
20
-124.91200000000003
10
-281.34375
20
-124.91200000000003
42
-0.41421356237313667
10
-281.84375
20
-124.41200000000002
10
-281.84375
20
-118.41200000000001
42
-0.41421356237313667
0
LWPOLYLINE
5
104
100
AcDbEntity
8
0
100
AcDbPolyline
90
8
70
1
43
0.0
10
-309.41874999999999
20
-124.41200000000002
42
0.41421356237310542
10
-308.91874999999999
20
-124.91200000000005
10
-294.91874999999999
20
-124.91200000000003
42
0.41421356237310542
10
-294.41874999999999
20
-124.41200000000002
10
-294.41874999999999
20
-118.41200000000001
42
0.41421356237310542
10
-294.91874999999999
20
-117.91200000000002
10
-308.91874999999999
20
-117.91200000000001
42
0.41421356237310542
10
-309.41874999999999
20
-118.41200000000001
0
LWPOLYLINE
5
105
100
AcDbEntity
8
0
100
AcDbPolyline
90
8
70
1
43
0.0
10
-332.73124999999999
20
-126.34999999999999
10
-319.73124999999999
20
-126.34999999999999
42
-0.41421356237309509
10
-319.23124999999999
20
-126.85000000000001
10
-319.23124999999999
20
-139.84999999999999
42
-0.41421356237313667
10
-319.73124999999999
20
-140.34999999999999
10
-332.73124999999999
20
-140.34999999999999
42
-0.4142135623730222
10
-333.23124999999999
20
-139.84999999999999
10
-333.23124999999999
20
-126.85000000000001
42
-0.41421356237318868
0
LWPOLYLINE
5
106
100
AcDbEntity
8
0
100
AcDbPolyline
90
8
70
1
43
0.0
10
-294.41874999999999
20
-142.28800000000001
10
-294.41875000000005
20
-148.28800000000001
42
-0.41421356237310542
10
-294.91874999999999
20
-148.78800000000001
10
-308.91874999999999
20
-148.78800000000004
42
-0.41421356237310542
10
-309.41874999999999
20
-148.28800000000001
10
-309.41875000000005
20
-142.28800000000001
42
-0.41421356237308465
10
-308.91874999999999
20
-141.78800000000001
10
-294.91874999999999
20
-141.78800000000001
42
-0.41421356237308465
0
LWPOLYLINE
5
107
100
AcDbEntity
8
0
100
AcDbPolyline
90
8
70
1
43
0.0
10
-309.41874999999999
20
-139.84999999999999
42
0.41421356237310542
10
-308.91874999999999
20
-140.35000000000002
10
-295.91875000000005
20
-140.34999999999999
42
0.41421356237310542
10
-295.41874999999999
20
-139.84999999999999
10
-295.41874999999999
20
-126.85000000000001
42
0.41421356237308465
10
-295.91875000000005
20
-126.34999999999999
10
-308.91874999999999
20
-126.34999999999999
42
0.41421356237308465
10
-309.41874999999999
20
-126.85000000000001
0
LWPOLYLINE
5
108
100
AcDbEntity
8
0
100
AcDbPolyline
90
8
70
1
43
0.0
10
-333.73125000000005
20
-117.91200000000002
10
-319.73124999999999
20
-117.91200000000001
42
-0.41421356237313667
10
-319.23124999999999
20
-118.41200000000001
10
-319.23124999999999
20
-124.41200000000002
42
-0.41421356237313667
10
-319.73124999999999
20
-124.91200000000003
10
-333.73125000000005
20
-124.91200000000001
42
-0.4142135623730222
10
-334.23124999999999
20
-124.41200000000002
10
-334.23124999999999
20
-118.41200000000001
42
-0.41421356237312629
0
LWPOLYLINE
5
109
100
AcDbEntity
8
0
100
AcDbPolyline
90
8
70
1
43
0.0
10
-266.84375
20
-142.28800000000001
10
-266.84375
20
-148.28800000000001
42
-0.41421356237310542
10
-267.34375
20
-148.78800000000001
10
-281.34375
20
-148.78800000000001
42
-0.41421356237313667
10
-281.84375
20
-148.28800000000001
10
-281.84375
20
-142.28800000000001
42
-0.41421356237309509
10
-281.34375
20
-141.78800000000001
10
-267.34375
20
-141.78800000000007
42
-0.41421356237308465
0
LWPOLYLINE
5
110
100
AcDbEntity
8
0
100
AcDbPolyline
90
8
70
1
43
0.0
10
-267.34375
20
-140.34999999999999
42
0.41421356237310542
10
-266.84375
20
-139.84999999999999
10
-266.84375
20
-126.85000000000001
42
0.41421356237308465
10
-267.34375
20
-126.34999999999999
10
-280.34375
20
-126.34999999999999
42
0.41421356237309509
10
-280.84375
20
-126.85000000000001
10
-280.84375
20
-139.84999999999999
42
0.41421356237313667
10
-280.34375
20
-140.34999999999999
0
LWPOLYLINE
5
111
100
AcDbEntity
8
0
100
AcDbPolyline
90
8
70
1
43
0.0
10
-390.88125000000002
20
-117.91200000000001
42
0.41421356237312629
10
-391.38125000000002
20
-118.41200000000001
10
-391.38125000000002
20
-124.41200000000002
42
0.4142135623730222
10
-390.88125000000002
20
-124.91200000000001
10
-376.88125000000008
20
-124.91200000000003
42
0.41421356237320955
10
-376.38125000000002
20
-124.41200000000002
10
-376.38125000000008
20
-118.41200000000001
42
0.4142135623730222
10
-376.88125000000008
20
-117.91200000000002
0
LWPOLYLINE
5
112
100
AcDbEntity
8
0
100
AcDbPolyline
90
8
70
1
43
0.0
10
-361.30625000000003
20
-117.91200000000001
42
0.41421356237320955
10
-361.80624999999998
20
-118.41200000000001
10
-361.80624999999998
20
-124.41200000000002
42
0.4142135623730222
10
-361.30625000000003
20
-124.91200000000001
10
-347.30624999999998
20
-124.91200000000003
42
0.41421356237320955
10
-346.80624999999998
20
-124.41200000000002
10
-346.80624999999998
20
-118.41200000000001
42
0.4142135623730222
10
-347.30624999999998
20
-117.91200000000002
0
LWPOLYLINE
5
113
100
AcDbEntity
8
0
100
AcDbPolyline
90
8
70
1
43
0.0
10
-404.95625000000007
20
-126.85000000000001
10
-404.95625000000007
20
-139.84999999999999
42
-0.41421356237312629
10
-405.45625000000001
20
-140.34999999999999
10
-418.45625000000007
20
-140.34999999999999
42
-0.4142135623730222
10
-418.95625000000001
20
-139.84999999999999
10
-418.95625000000001
20
-126.85000000000001
42
-0.41421356237318868
10
-418.45625000000007
20
-126.34999999999999
10
-405.45625000000001
20
-126.35000000000002
42
-0.4142135623730222
0
LWPOLYLINE
5
114
100
AcDbEntity
8
0
100
AcDbPolyline
90
8
70
1
43
0.0
10
-334.23124999999999
20
-148.28800000000001
10
-334.23124999999999
20
-142.28800000000001
42
-0.41421356237310542
10
-333.73125000000005
20
-141.78800000000001
10
-319.73124999999999
20
-141.78800000000001
42
-0.41421356237309509
10
-319.23124999999999
20
-142.28800000000001
10
-319.23124999999999
20
-148.28800000000001
42
-0.41421356237313667
10
-319.73124999999999
20
-148.78800000000001
10
-333.73125000000005
20
-148.78800000000001
42
-0.4142135623730222
0
LWPOLYLINE
5
115
100
AcDbEntity
8
0
100
AcDbPolyline
90
8
70
1
43
0.0
10
-346.80624999999998
20
-142.28800000000001
42
0.4142135623730222
10
-347.30624999999998
20
-141.78800000000001
10
-361.30625000000003
20
-141.78800000000001
42
0.41421356237318868
10
-361.80624999999998
20
-142.28800000000001
10
-361.80624999999998
20
-148.28800000000001
42
0.4142135623730222
10
-361.30625000000003
20
-148.78800000000001
10
-347.30624999999998
20
-148.78800000000001
42
0.41421356237320955
10
-346.80624999999998
20
-148.28800000000001
0
LWPOLYLINE
5
116
100
AcDbEntity
8
0
100
AcDbPolyline
90
8
70
1
43
0.0
10
-376.88125000000008
20
-140.34999999999999
42
0.41421356237320955
10
-376.38125000000008
20
-139.84999999999999
10
-376.38125000000008
20
-126.85000000000001
42
0.4142135623730222
10
-376.88125000000008
20
-126.34999999999999
10
-389.88125000000002
20
-126.34999999999999
42
0.41421356237318868
10
-390.38125000000008
20
-126.85000000000001
10
-390.38125000000002
20
-139.84999999999999
42
0.4142135623730222
10
-389.88125000000002
20
-140.34999999999999
0
LWPOLYLINE
5
117
100
AcDbEntity
8
0
100
AcDbPolyline
90
8
70
1
43
0.0
10
-361.80624999999998
20
-139.84999999999999
10
-361.80624999999998
20
-126.85000000000001
42
-0.41421356237318868
10
-361.30625000000003
20
-126.34999999999999
10
-348.30624999999998
20
-126.35000000000002
42
-0.4142135623730222
10
-347.80624999999998
20
-126.85000000000001
10
-347.80624999999998
20
-139.84999999999999
42
-0.41421356237312629
10
-348.30624999999998
20
-140.34999999999999
10
-361.30625000000003
20
-140.34999999999999
42
-0.4142135623730222
0
LWPOLYLINE
5
118
100
AcDbEntity
8
0
100
AcDbPolyline
90
8
70
1
43
0.0
10
-376.88125000000008
20
-148.78800000000001
10
-390.88125000000002
20
-148.78800000000001
42
-0.4142135623730222
10
-391.38125000000002
20
-148.28800000000001
10
-391.38125000000002
20
-142.28800000000001
42
-0.41421356237310542
10
-390.88125000000002
20
-141.78800000000001
10
-376.88125000000008
20
-141.78800000000001
42
-0.4142135623730222
10
-376.38125000000008
20
-142.28800000000001
10
-376.38125000000008
20
-148.28800000000001
42
-0.41421356237320955
0
LWPOLYLINE
5
119
100
AcDbEntity
8
0
100
AcDbPolyline
90
8
70
1
43
0.0
10
-443.26875000000001
20
-117.91200000000002
10
-429.26875000000001
20
-117.91200000000002
42
-0.4142135623730222
10
-428.76875000000007
20
-118.41200000000001
10
-428.76875000000007
20
-124.41200000000002
42
-0.41421356237320955
10
-429.26875000000001
20
-124.91200000000003
10
-443.26875000000001
20
-124.91200000000001
42
-0.4142135623730222
10
-443.76874999999995
20
-124.41200000000002
10
-443.76874999999995
20
-118.41200000000001
42
-0.41421356237312629
0
LWPOLYLINE
5
120
100
AcDbEntity
8
0
100
AcDbPolyline
90
8
70
1
43
0.0
10
-428.76875000000007
20
-126.85000000000001
10
-428.76875000000007
20
-139.84999999999999
42
-0.41421356237320955
10
-429.26875000000001
20
-140.34999999999999
10
-442.26875000000007
20
-140.34999999999999
42
-0.4142135623730222
10
-442.76875000000007
20
-139.84999999999999
10
-442.76875000000007
20
-126.85000000000001
42
-0.41421356237310542
10
-442.26875000000007
20
-126.34999999999999
10
-429.26875000000001
20
-126.35000000000002
42
-0.4142135623730222
0
LWPOLYLINE
5
121
100
AcDbEntity
8
0
100
AcDbPolyline
90
8
70
1
43
0.0
10
-404.45625000000007
20
-148.78800000000001
42
0.41421356237312629
10
-403.95625000000007
20
-148.28800000000001
10
-403.95625000000007
20
-142.28800000000001
42
0.4142135623730222
10
-404.45625000000007
20
-141.78800000000001
10
-418.45625000000007
20
-141.78800000000001
42
0.41421356237318868
10
-418.95625000000001
20
-142.28800000000001
10
-418.95625000000001
20
-148.28800000000001
42
0.4142135623730222
10
-418.45625000000007
20
-148.78800000000001
0
LWPOLYLINE
5
122
100
AcDbEntity
8
0
100
AcDbPolyline
90
8
70
1
43
0.0
10
-428.76875000000007
20
-142.28800000000001
10
-428.76875000000007
20
-148.28800000000001
42
-0.41421356237320955
10
-429.26875000000001
20
-148.78800000000001
10
-443.26875000000001
20
-148.78800000000001
42
-0.4142135623730222
10
-443.76874999999995
20
-148.28800000000001
10
-443.76874999999995
20
-142.28800000000001
42
-0.41421356237310542
10
-443.26875000000001
20
-141.78800000000001
10
-429.26875000000001
20
-141.78800000000001
42
-0.4142135623730222
0
LWPOLYLINE
5
123
100
AcDbEntity
8
0
100
AcDbPolyline
90
8
70
1
43
0.0
10
-404.45625000000007
20
-124.91200000000001
10
-418.45625000000007
20
-124.91200000000001
42
-0.4142135623730222
10
-418.95625000000001
20
-124.41200000000002
10
-418.95625000000001
20
-118.41200000000001
42
-0.41421356237320955
10
-418.45625000000007
20
-117.91200000000001
10
-404.45625000000007
20
-117.91200000000002
42
-0.4142135623730222
10
-403.95625000000007
20
-118.41200000000001
10
-403.95625000000007
20
-124.41200000000002
42
-0.41421356237312629
0
LWPOLYLINE
5
124
100
AcDbEntity
8
0
100
AcDbPolyline
90
8
70
1
43
0.0
10
-266.84375
20
-207.8125
42
0.41421356237313667
10
-267.34375
20
-207.3125
10
-280.34375
20
-207.3125
42
0.41421356237313667
10
-280.84375
20
-207.8125
10
-280.84375
20
-220.8125
42
0.4142135623731783
10
-280.34375
20
-221.3125
10
-267.34375
20
-221.3125
42
0.41421356237313667
10
-266.84375
20
-220.8125
0
LWPOLYLINE
5
125
100
AcDbEntity
8
0
100
AcDbPolyline
90
8
70
1
43
0.0
10
-252.26875000000004
20
-205.37450000000004
42
0.41421356237313667
10
-251.76875000000001
20
-205.87450000000004
10
-237.76875000000004
20
-205.87450000000004
42
0.41421356237313667
10
-237.26875000000004
20
-205.37450000000004
10
-237.26875000000004
20
-199.37450000000001
42
0.41421356237313667
10
-237.76875000000004
20
-198.87450000000001
10
-251.76875000000001
20
-198.87450000000001
42
0.41421356237313667
10
-252.26875000000004
20
-199.37450000000001
0
LWPOLYLINE
5
126
100
AcDbEntity
8
0
100
AcDbPolyline
90
8
70
1
43
0.0
10
-281.34375
20
-198.87450000000001
10
-267.34375
20
-198.87450000000001
42
-0.41421356237313667
10
-266.84375
20
-199.37450000000001
10
-266.84375
20
-205.37450000000004
42
-0.41421356237313667
10
-267.34375
20
-205.87450000000004
10
-281.34375
20
-205.87450000000004
42
-0.4142135623731783
10
-281.84375
20
-205.37450000000004
10
-281.84375
20
-199.37450000000001
42
-0.4142135623731783
0
LWPOLYLINE
5
127
100
AcDbEntity
8
0
100
AcDbPolyline
90
8
70
1
43
0.0
10
-295.91875000000005
20
-221.3125
42
0.41421356237313667
10
-295.41874999999999
20
-220.8125
10
-295.41874999999999
20
-207.8125
42
0.41421356237313667
10
-295.91875000000005
20
-207.31250000000003
10
-308.91874999999999
20
-207.3125
42
0.41421356237313667
10
-309.41874999999999
20
-207.8125
10
-309.41874999999999
20
-220.8125
42
0.41421356237313667
10
-308.91874999999999
20
-221.3125
0
LWPOLYLINE
5
128
100
AcDbEntity
8
0
100
AcDbPolyline
90
8
70
1
43
0.0
10
-294.91874999999999
20
-229.75049999999999
10
-308.91874999999999
20
-229.75049999999999
42
-0.41421356237313667
10
-309.41874999999999
20
-229.25049999999999
10
-309.41874999999999
20
-223.25050000000002
42
-0.41421356237313667
10
-308.91874999999999
20
-222.75049999999999
10
-294.91874999999999
20
-222.75049999999999
42
-0.41421356237313667
10
-294.41874999999999
20
-223.25050000000002
10
-294.41874999999999
20
-229.25049999999999
42
-0.41421356237313667
0
LWPOLYLINE
5
129
100
AcDbEntity
8
0
100
AcDbPolyline
90
8
70
1
43
0.0
10
-266.84375
20
-223.25050000000002
10
-266.84375
20
-229.25049999999999
42
-0.41421356237313667
10
-267.34375
20
-229.75049999999999
10
-281.34375
20
-229.75049999999999
42
-0.41421356237313667
10
-281.84375
20
-229.25049999999999
10
-281.84375
20
-223.25050000000002
42
-0.4142135623731783
10
-281.34375
20
-222.75049999999999
10
-267.34375
20
-222.75050000000005
42
-0.41421356237313667
0
LWPOLYLINE
5
130
100
AcDbEntity
8
0
100
AcDbPolyline
90
8
70
1
43
0.0
10
-252.26875000000004
20
-229.25049999999999
10
-252.26875000000004
20
-223.25050000000002
42
-0.41421356237313667
10
-251.76875000000001
20
-222.75049999999999
10
-237.76875000000004
20
-222.75049999999999
42
-0.41421356237313667
10
-237.26875000000004
20
-223.25050000000002
10
-237.26875000000004
20
-229.25049999999999
42
-0.41421356237313667
10
-237.76875000000004
20
-229.75049999999999
10
-251.76875000000001
20
-229.75049999999999
42
-0.41421356237313667
0
LWPOLYLINE
5
131
100
AcDbEntity
8
0
100
AcDbPolyline
90
8
70
1
43
0.0
10
-361.80624999999998
20
-229.25049999999999
42
0.41421356237301177
10
-361.30625000000003
20
-229.75049999999996
10
-347.30624999999998
20
-229.75049999999999
42
0.4142135623731783
10
-346.80624999999998
20
-229.25049999999999
10
-346.80624999999998
20
-223.25050000000002
42
0.41421356237303264
10
-347.30624999999998
20
-222.75049999999999
10
-361.30625000000003
20
-222.75049999999999
42
0.41421356237319912
10
-361.80624999999998
20
-223.25050000000002
0
LWPOLYLINE
5
132
100
AcDbEntity
8
0
100
AcDbPolyline
90
8
70
1
43
0.0
10
-361.80624999999998
20
-205.37450000000004
10
-361.80624999999998
20
-199.37450000000001
42
-0.41421356237319912
10
-361.30625000000003
20
-198.87450000000001
10
-347.30625000000003
20
-198.87450000000001
42
-0.41421356237303264
10
-346.80624999999998
20
-199.37450000000001
10
-346.80624999999998
20
-205.37450000000004
42
-0.41421356237319912
10
-347.30624999999998
20
-205.87450000000004
10
-361.30624999999998
20
-205.87450000000004
42
-0.41421356237303264
0
LWPOLYLINE
5
133
100
AcDbEntity
8
0
100
AcDbPolyline
90
8
70
1
43
0.0
10
-361.30625000000003
20
-207.31250000000003
10
-348.30624999999998
20
-207.31250000000003
42
-0.41421356237301177
10
-347.80624999999998
20
-207.8125
10
-347.80625000000009
20
-220.8125
42
-0.41421356237307422
10
-348.30624999999998
20
-221.3125
10
-361.30624999999998
20
-221.3125
42
-0.41421356237303264
10
-361.80624999999998
20
-220.8125
10
-361.80624999999998
20
-207.8125
42
-0.4142135623731783
0
LWPOLYLINE
5
134
100
AcDbEntity
8
0
100
AcDbPolyline
90
8
70
1
43
0.0
10
-390.38125000000008
20
-220.8125
10
-390.38125000000008
20
-207.8125
42
-0.4142135623731783
10
-389.88125000000002
20
-207.3125
10
-376.88125000000008
20
-207.31250000000003
42
-0.41421356237301177
10
-376.38125000000008
20
-207.8125
10
-376.38125000000008
20
-220.8125
42
-0.41421356237319912
10
-376.88125000000008
20
-221.3125
10
-389.88124999999997
20
-221.31250000000009
42
-0.41421356237303264
0
LWPOLYLINE
5
135
100
AcDbEntity
8
0
100
AcDbPolyline
90
8
70
1
43
0.0
10
-334.23124999999999
20
-205.37450000000004
42
0.41421356237303264
10
-333.73125000000005
20
-205.87450000000004
10
-319.73124999999999
20
-205.87450000000004
42
0.4142135623731783
10
-319.23124999999999
20
-205.37450000000004
10
-319.23124999999999
20
-199.37450000000001
42
0.4142135623731783
10
-319.73124999999999
20
-198.87450000000001
10
-333.73125000000005
20
-198.87450000000001
42
0.41421356237307422
10
-334.23124999999999
20
-199.37450000000001
0
LWPOLYLINE
5
136
100
AcDbEntity
8
0
100
AcDbPolyline
90
8
70
1
43
0.0
10
-334.23124999999999
20
-229.25049999999999
10
-334.23124999999993
20
-223.25050000000002
42
-0.41421356237307422
10
-333.73125000000005
20
-222.75049999999999
10
-319.73124999999999
20
-222.75049999999999
42
-0.4142135623731783
10
-319.23124999999999
20
-223.25050000000002
10
-319.23124999999999
20
-229.25049999999999
42
-0.41421356237313667
10
-319.73124999999999
20
-229.75049999999999
10
-333.73125000000005
20
-229.75049999999996
42
-0.41421356237301177
0
LWPOLYLINE
5
137
100
AcDbEntity
8
0
100
AcDbPolyline
90
8
70
1
43
0.0
10
-294.41874999999999
20
-199.37450000000001
10
-294.41874999999999
20
-205.37450000000004
42
-0.41421356237313667
10
-294.91874999999999
20
-205.87450000000004
10
-308.91874999999999
20
-205.87450000000004
42
-0.41421356237313667
10
-309.41874999999999
20
-205.37450000000004
10
-309.41874999999999
20
-199.37450000000001
42
-0.41421356237313667
10
-308.91874999999999
20
-198.87450000000001
10
-294.91874999999999
20
-198.87450000000001
42
-0.41421356237313667
0
LWPOLYLINE
5
138
100
AcDbEntity
8
0
100
AcDbPolyline
90
8
70
1
43
0.0
10
-319.23124999999999
20
-207.8125
10
-319.23124999999999
20
-220.8125
42
-0.4142135623731783
10
-319.73124999999999
20
-221.3125
10
-332.73124999999993
20
-221.3125
42
-0.41421356237303264
10
-333.23124999999999
20
-220.8125
10
-333.23125000000005
20
-207.8125
42
-0.4142135623731783
10
-332.73124999999999
20
-207.3125
10
-319.73124999999999
20
-207.3125
42
-0.41421356237313667
0
LWPOLYLINE
5
139
100
AcDbEntity
8
0
100
AcDbPolyline
90
8
70
1
43
0.0
10
-429.26875000000001
20
-205.87450000000004
42
0.41421356237319912
10
-428.76875000000007
20
-205.37450000000004
10
-428.76875000000007
20
-199.37450000000001
42
0.41421356237303264
10
-429.26875000000001
20
-198.87450000000001
10
-443.26875000000001
20
-198.87450000000001
42
0.41421356237307422
10
-443.76875000000007
20
-199.37450000000001
10
-443.76874999999995
20
-205.37450000000004
42
0.41421356237303264
10
-443.26875000000001
20
-205.87450000000004
0
LWPOLYLINE
5
140
100
AcDbEntity
8
0
100
AcDbPolyline
90
8
70
1
43
0.0
10
-418.45625000000007
20
-198.87450000000001
10
-404.45625000000007
20
-198.87450000000001
42
-0.41421356237303264
10
-403.95625000000007
20
-199.37450000000001
10
-403.95625000000018
20
-205.37450000000004
42
-0.41421356237307422
10
-404.45625000000007
20
-205.87450000000004
10
-418.45624999999995
20
-205.87450000000004
42
-0.41421356237303264
10
-418.95625000000001
20
-205.37450000000004
10
-418.95625000000001
20
-199.37450000000001
42
-0.41421356237319912
0
LWPOLYLINE
5
141
100
AcDbEntity
8
0
100
AcDbPolyline
90
8
70
1
43
0.0
10
-390.88125000000002
20
-198.87450000000001
10
-376.88125000000014
20
-198.87450000000001
42
-0.41421356237303264
10
-376.38125000000008
20
-199.37450000000001
10
-376.38125000000008
20
-205.37450000000004
42
-0.41421356237319912
10
-376.88125000000008
20
-205.87450000000004
10
-390.88125000000002
20
-205.87450000000004
42
-0.41421356237303264
10
-391.38125000000002
20
-205.37450000000004
10
-391.38124999999997
20
-199.37450000000001
42
-0.41421356237307422
0
LWPOLYLINE
5
142
100
AcDbEntity
8
0
100
AcDbPolyline
90
8
70
1
43
0.0
10
-376.88125000000008
20
-229.75049999999999
10
-390.88125000000002
20
-229.75049999999996
42
-0.41421356237301177
10
-391.38125000000002
20
-229.25049999999999
10
-391.38124999999997
20
-223.25050000000002
42
-0.41421356237307422
10
-390.88125000000002
20
-222.75049999999999
10
-376.88125000000014
20
-222.75049999999999
42
-0.41421356237303264
10
-376.38125000000008
20
-223.25050000000002
10
-376.38125000000002
20
-229.25049999999999
42
-0.4142135623731783
0
LWPOLYLINE
5
143
100
AcDbEntity
8
0
100
AcDbPolyline
90
8
70
1
43
0.0
10
-418.95625000000001
20
-220.8125
10
-418.95625000000007
20
-207.8125
42
-0.4142135623731783
10
-418.45625000000007
20
-207.3125
10
-405.45625000000001
20
-207.31250000000003
42
-0.41421356237301177
10
-404.95625000000007
20
-207.8125
10
-404.95625000000013
20
-220.8125
42
-0.41421356237307422
10
-405.45625000000001
20
-221.3125
10
-418.45624999999995
20
-221.3125
42
-0.41421356237303264
0
LWPOLYLINE
5
144
100
AcDbEntity
8
0
100
AcDbPolyline
90
8
70
1
43
0.0
10
-418.95625000000001
20
-229.25049999999999
42
0.41421356237301177
10
-418.45625000000007
20
-229.75049999999996
10
-404.45625000000007
20
-229.75049999999999
42
0.4142135623730534
10
-403.95625000000001
20
-229.25049999999999
10
-403.95625000000007
20
-223.25050000000002
42
0.41421356237303264
10
-404.45625000000007
20
-222.75049999999999
10
-418.45625000000007
20
-222.75049999999999
42
0.41421356237319912
10
-418.95625000000001
20
-223.25050000000002
0
LWPOLYLINE
5
145
100
AcDbEntity
8
0
100
AcDbPolyline
90
8
70
1
43
0.0
10
-429.26875000000001
20
-221.3125
10
-442.26875000000007
20
-221.3125
42
-0.41421356237303264
10
-442.76875000000007
20
-220.8125
10
-442.76875000000007
20
-207.8125
42
-0.4142135623730534
10
-442.26875000000007
20
-207.3125
10
-429.26875000000001
20
-207.31250000000003
42
-0.41421356237301177
10
-428.76875000000007
20
-207.8125
10
-428.76875000000007
20
-220.8125
42
-0.41421356237319912
0
LWPOLYLINE
5
146
100
AcDbEntity
8
0
100
AcDbPolyline
90
8
70
1
43
0.0
10
-428.76875000000007
20
-223.25050000000002
42
0.41421356237299095
10
-429.26874999999995
20
-222.75049999999999
10
-443.26875000000001
20
-222.75049999999999
42
0.41421356237307422
10
-443.76875000000007
20
-223.25050000000002
10
-443.76874999999995
20
-229.25049999999999
42
0.41421356237301177
10
-443.26875000000001
20
-229.75049999999999
10
-429.26875000000001
20
-229.75049999999999
42
0.4142135623731783
10
-428.76875000000007
20
-229.25049999999999
0
LWPOLYLINE
5
147
100
AcDbEntity
8
0
100
AcDbPolyline
90
8
70
1
43
0.0
10
-266.84375
20
-180.38800000000003
42
0.41421356237313667
10
-267.34375
20
-179.88800000000001
10
-281.34375
20
-179.88800000000001
42
0.41421356237313667
10
-281.84375
20
-180.38800000000003
10
-281.84375
20
-186.38800000000001
42
0.4142135623731783
10
-281.34375
20
-186.88800000000001
10
-267.34375
20
-186.88800000000001
42
0.41421356237313667
10
-266.84375
20
-186.38800000000001
0
LWPOLYLINE
5
148
100
AcDbEntity
8
0
100
AcDbPolyline
90
8
70
1
43
0.0
10
-242.53125
20
-186.88800000000001
10
-256.53125
20
-186.88800000000001
42
-0.41421356237313667
10
-257.03125000000006
20
-186.38800000000001
10
-257.03125000000006
20
-180.38800000000003
42
-0.41421356237313667
10
-256.53125
20
-179.88800000000001
10
-242.53125
20
-179.88800000000001
42
-0.41421356237313667
10
-242.03125
20
-180.38800000000003
10
-242.03125
20
-186.38800000000001
42
-0.4142135623731783
0
LWPOLYLINE
5
149
100
AcDbEntity
8
0
100
AcDbPolyline
90
8
70
1
43
0.0
10
-281.84375
20
-162.512
10
-281.84375
20
-156.512
42
-0.41421356237309509
10
-281.34375
20
-156.012
10
-267.34375
20
-156.01200000000003
42
-0.41421356237308465
10
-266.84375
20
-156.512
10
-266.84375
20
-162.512
42
-0.41421356237313667
10
-267.34375
20
-163.012
10
-281.34375
20
-163.012
42
-0.4142135623731783
0
LWPOLYLINE
5
150
100
AcDbEntity
8
0
100
AcDbPolyline
90
8
70
1
43
0.0
10
-266.84375
20
-164.95000000000002
10
-266.84375
20
-177.94999999999999
42
-0.41421356237313667
10
-267.34375
20
-178.44999999999999
10
-280.34375
20
-178.44999999999999
42
-0.4142135623731783
10
-280.84375
20
-177.94999999999999
10
-280.84375
20
-164.95000000000002
42
-0.4142135623731783
10
-280.34375
20
-164.44999999999999
10
-267.34375
20
-164.45000000000005
42
-0.41421356237313667
0
LWPOLYLINE
5
151
100
AcDbEntity
8
0
100
AcDbPolyline
90
8
70
1
43
0.0
10
-256.53125
20
-164.44999999999999
42
0.41421356237313667
10
-257.03125000000006
20
-164.95000000000002
10
-257.03125000000006
20
-177.94999999999999
42
0.41421356237313667
10
-256.53125
20
-178.44999999999999
10
-243.53125000000003
20
-178.44999999999999
42
0.4142135623731783
10
-243.03125
20
-177.94999999999999
10
-243.03125
20
-164.95000000000002
42
0.4142135623731783
10
-243.53125000000003
20
-164.44999999999999
0
LWPOLYLINE
5
152
100
AcDbEntity
8
0
100
AcDbPolyline
90
8
70
1
43
0.0
10
-256.53125
20
-156.012
42
0.41421356237308465
10
-257.03125000000006
20
-156.512
10
-257.03125000000006
20
-162.512
42
0.41421356237313667
10
-256.53125
20
-163.012
10
-242.53125
20
-163.012
42
0.4142135623731783
10
-242.03125
20
-162.512
10
-242.03125
20
-156.512
42
0.41421356237309509
10
-242.53125
20
-156.012
0
LWPOLYLINE
5
153
100
AcDbEntity
8
0
100
AcDbPolyline
90
8
70
1
43
0.0
10
-238.76875000000001
20
-221.3125
42
0.4142135623731783
10
-238.26875000000001
20
-220.8125
10
-238.26875000000001
20
-207.8125
42
0.41421356237313667
10
-238.76875000000001
20
-207.31250000000003
10
-251.76875000000001
20
-207.3125
42
0.41421356237313667
10
-252.26875000000004
20
-207.8125
10
-252.26875000000004
20
-220.8125
42
0.41421356237313667
10
-251.76875000000001
20
-221.3125
0
LWPOLYLINE
5
154
100
AcDbEntity
8
0
100
AcDbPolyline
90
8
70
1
43
0.0
10
-389.88125000000002
20
-12.049999999999901
10
-376.88125000000008
20
-12.049999999999915
42
-0.41421356237301959
10
-376.38125000000008
20
-12.549999999999901
10
-376.38125000000008
20
-25.549999999999905
42
-0.4142135623731939
10
-376.88125000000008
20
-26.049999999999901
10
-389.88125000000002
20
-26.049999999999894
42
-0.4142135623730222
10
-390.38125000000002
20
-25.549999999999905
10
-390.38125000000002
20
-12.549999999999901
42
-0.4142135623731939
0
LWPOLYLINE
5
155
100
AcDbEntity
8
0
100
AcDbPolyline
90
8
70
1
43
0.0
10
-361.80624999999998
20
-33.9879999999999
10
-361.80624999999998
20
-27.9879999999999
42
-0.4142135623731939
10
-361.30625000000003
20
-27.487999999999904
10
-347.30624999999998
20
-27.487999999999914
42
-0.4142135623730222
10
-346.80624999999998
20
-27.9879999999999
10
-346.80624999999998
20
-33.9879999999999
42
-0.4142135623731939
10
-347.30624999999998
20
-34.4879999999999
10
-361.30625000000003
20
-34.487999999999893
42
-0.4142135623730222
0
LWPOLYLINE
5
156
100
AcDbEntity
8
0
100
AcDbPolyline
90
8
70
1
43
0.0
10
-418.45625000000007
20
-12.049999999999901
42
0.4142135623731939
10
-418.95625000000001
20
-12.549999999999901
10
-418.95625000000001
20
-25.549999999999905
42
0.4142135623730222
10
-418.45625000000007
20
-26.049999999999901
10
-405.45625000000001
20
-26.049999999999901
42
0.41421356237311063
10
-404.95625000000007
20
-25.549999999999905
10
-404.95625000000007
20
-12.549999999999901
42
0.41421356237301959
10
-405.45625000000001
20
-12.049999999999901
0
LWPOLYLINE
5
157
100
AcDbEntity
8
0
100
AcDbPolyline
90
8
70
1
43
0.0
10
-361.30625000000003
20
-3.6119999999999108
42
0.41421356237319257
10
-361.80624999999998
20
-4.1119999999999113
10
-361.80624999999998
20
-10.111999999999901
42
0.41421356237301826
10
-361.30625000000003
20
-10.611999999999902
10
-347.30624999999998
20
-10.611999999999902
42
0.41421356237319257
10
-346.80624999999998
20
-10.111999999999901
10
-346.80624999999998
20
-4.1119999999999104
42
0.41421356237301959
10
-347.30624999999998
20
-3.6119999999999401
0
LWPOLYLINE
5
158
100
AcDbEntity
8
0
100
AcDbPolyline
90
8
70
1
43
0.0
10
-376.88125000000008
20
-34.4879999999999
42
0.4142135623731939
10
-376.38125000000008
20
-33.9879999999999
10
-376.38125000000008
20
-27.9879999999999
42
0.4142135623730222
10
-376.88125000000008
20
-27.487999999999904
10
-390.88125000000002
20
-27.487999999999904
42
0.41421356237311063
10
-391.38125000000002
20
-27.9879999999999
10
-391.38125000000002
20
-33.9879999999999
42
0.4142135623730222
10
-390.88125000000002
20
-34.4879999999999
0
LWPOLYLINE
5
159
100
AcDbEntity
8
0
100
AcDbPolyline
90
8
70
1
43
0.0
10
-361.80624999999998
20
-25.549999999999905
42
0.4142135623730222
10
-361.30625000000003
20
-26.049999999999894
10
-348.30624999999998
20
-26.049999999999901
42
0.41421356237311063
10
-347.80624999999998
20
-25.549999999999905
10
-347.80624999999998
20
-12.549999999999901
42
0.41421356237301959
10
-348.30624999999998
20
-12.049999999999901
10
-361.30625000000003
20
-12.049999999999901
42
0.4142135623731939
10
-361.80624999999998
20
-12.549999999999901
0
LWPOLYLINE
5
160
100
AcDbEntity
8
0
100
AcDbPolyline
90
8
70
1
43
0.0
10
-333.73125000000005
20
-27.487999999999904
10
-319.73124999999999
20
-27.487999999999904
42
-0.41421356237313145
10
-319.23124999999999
20
-27.9879999999999
10
-319.23124999999999
20
-33.9879999999999
42
-0.41421356237308204
10
-319.73124999999999
20
-34.4879999999999
10
-333.73125000000005
20
-34.487999999999893
42
-0.4142135623730222
10
-334.23124999999999
20
-33.9879999999999
10
-334.23124999999999
20
-27.9879999999999
42
-0.41421356237311063
0
LWPOLYLINE
5
161
100
AcDbEntity
8
0
100
AcDbPolyline
90
8
70
1
43
0.0
10
-376.38125000000008
20
-4.1119999999999104
42
0.41421356237301959
10
-376.88125000000008
20
-3.6119999999999259
10
-390.88125000000002
20
-3.6119999999999108
42
0.41421356237310963
10
-391.38125000000002
20
-4.1119999999999113
10
-391.38125000000002
20
-10.111999999999901
42
0.41421356237301826
10
-390.88125000000002
20
-10.611999999999902
10
-376.88125000000008
20
-10.611999999999902
42
0.41421356237319257
10
-376.38125000000002
20
-10.111999999999901
0
LWPOLYLINE
5
162
100
AcDbEntity
8
0
100
AcDbPolyline
90
8
70
1
43
0.0
10
-295.91875000000005
20
-26.049999999999901
42
0.41421356237305079
10
-295.41874999999999
20
-25.549999999999905
10
-295.41874999999999
20
-12.549999999999901
42
0.41421356237312362
10
-295.91875000000005
20
-12.049999999999901
10
-308.91874999999999
20
-12.049999999999901
42
0.41421356237302348
10
-309.41874999999999
20
-12.549999999999901
10
-309.41874999999999
20
-25.549999999999905
42
0.41421356237310281
10
-308.91874999999999
20
-26.049999999999901
0
LWPOLYLINE
5
163
100
AcDbEntity
8
0
100
AcDbPolyline
90
8
70
1
43
0.0
10
-281.34375
20
-27.487999999999904
42
0.41421356237307683
10
-281.84375000000006
20
-27.9879999999999
10
-281.84375
20
-33.9879999999999
42
0.414213562373134
10
-281.34375
20
-34.4879999999999
10
-267.34375
20
-34.4879999999999
42
0.41421356237305079
10
-266.84375
20
-33.9879999999999
10
-266.84375
20
-27.9879999999999
42
0.4142135623731002
10
-267.34375
20
-27.487999999999904
0
LWPOLYLINE
5
164
100
AcDbEntity
8
0
100
AcDbPolyline
90
8
70
1
43
0.0
10
-294.91874999999999
20
-10.611999999999902
42
0.41421356237302481
10
-294.41875000000005
20
-10.111999999999901
10
-294.41874999999999
20
-4.1119999999999104
42
0.41421356237310153
10
-294.91874999999999
20
-3.6119999999999002
10
-308.91874999999999
20
-3.6119999999999108
42
0.41421356237302581
10
-309.41874999999999
20
-4.1119999999999113
10
-309.41874999999999
20
-10.111999999999901
42
0.41421356237312235
10
-308.91874999999999
20
-10.611999999999902
0
LWPOLYLINE
5
165
100
AcDbEntity
8
0
100
AcDbPolyline
90
8
70
1
43
0.0
10
-308.91874999999999
20
-27.487999999999904
10
-294.91874999999999
20
-27.487999999999886
42
-0.4142135623731002
10
-294.41874999999999
20
-27.9879999999999
10
-294.41874999999999
20
-33.9879999999999
42
-0.41421356237305079
10
-294.91874999999999
20
-34.4879999999999
10
-308.91874999999999
20
-34.487999999999921
42
-0.41421356237310281
10
-309.41874999999999
20
-33.9879999999999
10
-309.41874999999999
20
-27.9879999999999
42
-0.41421356237304557
0
LWPOLYLINE
5
166
100
AcDbEntity
8
0
100
AcDbPolyline
90
8
70
1
43
0.0
10
-266.84375
20
-4.1119999999999104
10
-266.84375
20
-10.111999999999901
42
-0.41421356237302481
10
-267.34375
20
-10.611999999999902
10
-281.34375
20
-10.611999999999902
42
-0.41421356237313273
10
-281.84375
20
-10.111999999999901
10
-281.84375000000006
20
-4.1119999999999113
42
-0.41421356237307783
10
-281.34375
20
-3.6119999999999108
10
-267.34375
20
-3.6119999999999282
42
-0.41421356237310153
0
LWPOLYLINE
5
167
100
AcDbEntity
8
0
100
AcDbPolyline
90
8
70
1
43
0.0
10
-333.73125000000005
20
-3.6119999999999104
10
-319.73124999999999
20
-3.6119999999999095
42
-0.41421356237313312
10
-319.23124999999999
20
-4.1119999999999104
10
-319.23124999999993
20
-10.111999999999901
42
-0.41421356237307683
10
-319.73124999999999
20
-10.611999999999902
10
-333.73125000000005
20
-10.611999999999885
42
-0.41421356237301826
10
-334.23124999999999
20
-10.111999999999901
10
-334.23124999999999
20
-4.1119999999999113
42
-0.41421356237310963
0
LWPOLYLINE
5
168
100
AcDbEntity
8
0
100
AcDbPolyline
90
8
70
1
43
0.0
10
-319.23124999999999
20
-12.549999999999901
10
-319.23124999999999
20
-25.549999999999905
42
-0.41421356237308204
10
-319.73124999999999
20
-26.049999999999901
10
-332.73124999999999
20
-26.049999999999894
42
-0.4142135623730222
10
-333.23124999999999
20
-25.549999999999905
10
-333.23124999999999
20
-12.549999999999901
42
-0.4142135623731939
10
-332.73124999999999
20
-12.049999999999901
10
-319.73124999999999
20
-12.049999999999898
42
-0.414213562373134
0
LWPOLYLINE
5
169
100
AcDbEntity
8
0
100
AcDbPolyline
90
8
70
1
43
0.0
10
-266.84375
20
-12.549999999999901
10
-266.84375
20
-25.549999999999905
42
-0.41421356237305079
10
-267.34375
20
-26.049999999999901
10
-280.34375
20
-26.049999999999905
42
-0.414213562373134
10
-280.84375
20
-25.549999999999905
10
-280.84375000000006
20
-12.549999999999901
42
-0.41421356237307549
10
-280.34375
20
-12.049999999999901
10
-267.34375
20
-12.049999999999951
42
-0.41421356237312362
0
LWPOLYLINE
5
170
100
AcDbEntity
8
0
100
AcDbPolyline
90
8
70
1
43
0.0
10
-242.53125
20
-10.611999999999902
10
-256.53125
20
-10.611999999999885
42
-0.41421356237312235
10
-257.03125000000006
20
-10.111999999999901
10
-257.03125
20
-4.1119999999999113
42
-0.41421356237302581
10
-256.53125
20
-3.6119999999999108
10
-242.53125
20
-3.6119999999999095
42
-0.41421356237313312
10
-242.03125
20
-4.1119999999999104
10
-242.03124999999997
20
-10.111999999999901
42
-0.41421356237307683
0
LWPOLYLINE
5
171
100
AcDbEntity
8
0
100
AcDbPolyline
90
8
70
1
43
0.0
10
-257.03125000000006
20
-33.9879999999999
42
0.41421356237310281
10
-256.53125
20
-34.487999999999921
10
-242.53125
20
-34.4879999999999
42
0.41421356237308204
10
-242.03125
20
-33.9879999999999
10
-242.03125
20
-27.9879999999999
42
0.41421356237313145
10
-242.53125
20
-27.487999999999904
10
-256.53125
20
-27.487999999999904
42
0.41421356237304557
10
-257.03125
20
-27.9879999999999
0
LWPOLYLINE
5
172
100
AcDbEntity
8
0
100
AcDbPolyline
90
8
70
1
43
0.0
10
-243.03125
20
-12.549999999999901
42
0.414213562373134
10
-243.53125000000003
20
-12.049999999999898
10
-256.53125
20
-12.049999999999901
42
0.41421356237302348
10
-257.03125
20
-12.549999999999901
10
-257.03125000000006
20
-25.549999999999905
42
0.41421356237310281
10
-256.53125
20
-26.049999999999901
10
-243.53125000000003
20
-26.049999999999901
42
0.41421356237308204
10
-243.03125
20
-25.549999999999905
0
LWPOLYLINE
5
173
100
AcDbEntity
8
0
100
AcDbPolyline
90
8
70
1
43
0.0
10
-443.76875000000007
20
-10.111999999999901
10
-443.76874999999995
20
-4.1119999999999113
42
-0.41421356237310963
10
-443.26875000000001
20
-3.6119999999999108
10
-429.26875000000001
20
-3.6119999999999259
42
-0.41421356237301959
10
-428.76875000000007
20
-4.1119999999999104
10
-428.76875000000007
20
-10.111999999999901
42
-0.41421356237319257
10
-429.26875000000001
20
-10.611999999999902
10
-443.26875000000001
20
-10.611999999999956
42
-0.41421356237301826
0
LWPOLYLINE
5
174
100
AcDbEntity
8
0
100
AcDbPolyline
90
8
70
1
43
0.0
10
-404.45625000000007
20
-34.4879999999999
10
-418.45625000000007
20
-34.487999999999893
42
-0.4142135623730222
10
-418.95625000000001
20
-33.9879999999999
10
-418.95625000000001
20
-27.9879999999999
42
-0.4142135623731939
10
-418.45625000000007
20
-27.487999999999904
10
-404.45625000000007
20
-27.487999999999914
42
-0.4142135623730222
10
-403.95625000000007
20
-27.9879999999999
10
-403.95625000000007
20
-33.9879999999999
42
-0.41421356237311063
0
LWPOLYLINE
5
175
100
AcDbEntity
8
0
100
AcDbPolyline
90
8
70
1
43
0.0
10
-403.95625000000001
20
-4.1119999999999104
10
-403.95625000000007
20
-10.111999999999901
42
-0.41421356237310936
10
-404.45625000000007
20
-10.611999999999902
10
-418.45625000000007
20
-10.611999999999885
42
-0.41421356237301826
10
-418.95625000000001
20
-10.111999999999901
10
-418.95625000000001
20
-4.1119999999999113
42
-0.4142135623731929
10
-418.45625000000007
20
-3.6119999999999108
10
-404.45625000000007
20
-3.6119999999998549
42
-0.41421356237301959
0
LWPOLYLINE
5
176
100
AcDbEntity
8
0
100
AcDbPolyline
90
8
70
1
43
0.0
10
-442.76875000000007
20
-25.549999999999905
10
-442.76875000000007
20
-12.549999999999901
42
-0.41421356237311063
10
-442.26875000000007
20
-12.049999999999901
10
-429.26875000000001
20
-12.049999999999915
42
-0.41421356237301959
10
-428.76875000000007
20
-12.549999999999901
10
-428.76875000000007
20
-25.549999999999905
42
-0.4142135623731939
10
-429.26875000000001
20
-26.049999999999901
10
-442.26875000000007
20
-26.049999999999894
42
-0.4142135623730222
0
LWPOLYLINE
5
177
100
AcDbEntity
8
0
100
AcDbPolyline
90
8
70
1
43
0.0
10
-428.76875000000007
20
-27.9879999999999
10
-428.76875000000007
20
-33.9879999999999
42
-0.4142135623731939
10
-429.26875000000001
20
-34.4879999999999
10
-443.26875000000001
20
-34.487999999999893
42
-0.4142135623730222
10
-443.76874999999995
20
-33.9879999999999
10
-443.76874999999995
20
-27.9879999999999
42
-0.41421356237311063
10
-443.26875000000001
20
-27.487999999999904
10
-429.26875000000001
20
-27.487999999999914
42
-0.4142135623730222
0
LWPOLYLINE
5
178
100
AcDbEntity
8
0
100
AcDbPolyline
90
8
70
1
43
0.0
10
-447.53125
20
-110.188
42
0.4142135623730222
10
-447.03125
20
-110.68799999999999
10
-376.88125000000008
20
-110.68800000000002
42
0.41421356237318868
10
-376.38125000000002
20
-110.188
10
-376.38125000000008
20
-80.311999999999898
42
0.4142135623730222
10
-376.88125000000008
20
-79.811999999999898
10
-447.03125
20
-79.811999999999898
42
0.41421356237310542
10
-447.53125000000006
20
-80.311999999999898
0
LWPOLYLINE
5
179
100
AcDbEntity
8
0
100
AcDbPolyline
90
8
70
1
43
0.0
10
-332.73124999999999
20
-164.44999999999999
10
-319.73124999999999
20
-164.44999999999999
42
-0.4142135623731783
10
-319.23124999999999
20
-164.95000000000002
10
-319.23124999999999
20
-177.94999999999999
42
-0.4142135623731783
10
-319.73124999999999
20
-178.44999999999999
10
-332.73124999999993
20
-178.44999999999999
42
-0.41421356237303264
10
-333.23124999999999
20
-177.94999999999999
10
-333.23124999999999
20
-164.95000000000002
42
-0.41421356237319912
0
LWPOLYLINE
5
180
100
AcDbEntity
8
0
100
AcDbPolyline
90
8
70
1
43
0.0
10
-308.91874999999999
20
-179.88800000000001
10
-294.91874999999999
20
-179.88800000000001
42
-0.41421356237313667
10
-294.41874999999999
20
-180.38800000000003
10
-294.41874999999999
20
-186.38800000000001
42
-0.41421356237313667
10
-294.91874999999999
20
-186.88800000000001
10
-308.91874999999999
20
-186.88800000000001
42
-0.41421356237313667
10
-309.41874999999999
20
-186.38800000000001
10
-309.41874999999999
20
-180.38800000000003
42
-0.41421356237313667
0
LWPOLYLINE
5
181
100
AcDbEntity
8
0
100
AcDbPolyline
90
8
70
1
43
0.0
10
-295.91875000000005
20
-178.44999999999999
10
-308.91874999999999
20
-178.44999999999999
42
-0.41421356237313667
10
-309.41874999999999
20
-177.94999999999999
10
-309.41874999999999
20
-164.95000000000002
42
-0.41421356237313667
10
-308.91874999999999
20
-164.44999999999999
10
-295.91875000000005
20
-164.44999999999999
42
-0.41421356237313667
10
-295.41874999999999
20
-164.95000000000002
10
-295.41874999999999
20
-177.94999999999999
42
-0.41421356237313667
0
LWPOLYLINE
5
182
100
AcDbEntity
8
0
100
AcDbPolyline
90
8
70
1
43
0.0
10
-294.91874999999999
20
-163.012
10
-308.91874999999999
20
-163.012
42
-0.41421356237313667
10
-309.41874999999999
20
-162.512
10
-309.41875000000005
20
-156.512
42
-0.41421356237308465
10
-308.91874999999999
20
-156.012
10
-294.91874999999999
20
-156.01200000000003
42
-0.41421356237308465
10
-294.41874999999999
20
-156.512
10
-294.41874999999999
20
-162.512
42
-0.41421356237313667
0
LWPOLYLINE
5
183
100
AcDbEntity
8
0
100
AcDbPolyline
90
8
70
1
43
0.0
10
-319.23124999999999
20
-156.512
10
-319.23124999999999
20
-162.512
42
-0.4142135623731783
10
-319.73124999999999
20
-163.012
10
-333.73125000000005
20
-163.012
42
-0.41421356237303264
10
-334.23124999999999
20
-162.512
10
-334.23124999999999
20
-156.512
42
-0.41421356237310542
10
-333.73125000000005
20
-156.012
10
-319.73124999999999
20
-156.012
42
-0.41421356237309509
0
LWPOLYLINE
5
184
100
AcDbEntity
8
0
100
AcDbPolyline
90
8
70
1
43
0.0
10
-319.73124999999999
20
-186.88800000000001
42
0.4142135623731783
10
-319.23124999999999
20
-186.38800000000001
10
-319.23124999999999
20
-180.38800000000003
42
0.41421356237313667
10
-319.73124999999999
20
-179.88800000000001
10
-333.73125000000005
20
-179.88800000000001
42
0.4142135623730534
10
-334.23124999999999
20
-180.38800000000003
10
-334.23124999999999
20
-186.38800000000001
42
0.41421356237303264
10
-333.73125000000005
20
-186.88800000000001
0
LWPOLYLINE
5
185
100
AcDbEntity
8
0
100
AcDbPolyline
90
8
70
1
43
0.0
10
-361.30625000000003
20
-164.44999999999999
10
-348.30624999999998
20
-164.44999999999999
42
-0.41421356237303264
10
-347.80624999999998
20
-164.95000000000002
10
-347.80625000000009
20
-177.94999999999999
42
-0.41421356237307422
10
-348.30624999999998
20
-178.44999999999999
10
-361.30624999999998
20
-178.44999999999999
42
-0.41421356237303264
10
-361.80624999999998
20
-177.94999999999999
10
-361.80624999999998
20
-164.95000000000002
42
-0.41421356237319912
0
LWPOLYLINE
5
186
100
AcDbEntity
8
0
100
AcDbPolyline
90
8
70
1
43
0.0
10
-361.30625000000003
20
-179.88800000000001
10
-347.30624999999998
20
-179.88800000000003
42
-0.41421356237301177
10
-346.80624999999998
20
-180.38800000000003
10
-346.80624999999998
20
-186.38800000000001
42
-0.41421356237319912
10
-347.30624999999998
20
-186.88800000000001
10
-361.30624999999998
20
-186.88800000000001
42
-0.41421356237303264
10
-361.80624999999998
20
-186.38800000000001
10
-361.80625000000009
20
-180.38800000000003
42
-0.4142135623731783
0
LWPOLYLINE
5
187
100
AcDbEntity
8
0
100
AcDbPolyline
90
8
70
1
43
0.0
10
-428.76875000000007
20
-164.95000000000002
10
-428.76875000000007
20
-177.94999999999999
42
-0.41421356237319912
10
-429.26875000000001
20
-178.44999999999999
10
-442.26875000000007
20
-178.44999999999999
42
-0.41421356237303264
10
-442.76875000000007
20
-177.94999999999999
10
-442.76874999999995
20
-164.95000000000002
42
-0.41421356237307422
10
-442.26875000000007
20
-164.44999999999999
10
-429.26875000000007
20
-164.44999999999999
42
-0.41421356237303264
0
LWPOLYLINE
5
188
100
AcDbEntity
8
0
100
AcDbPolyline
90
8
70
1
43
0.0
10
-404.45625000000007
20
-186.88800000000001
42
0.41421356237307422
10
-403.95625000000018
20
-186.38800000000001
10
-403.95625000000007
20
-180.38800000000003
42
0.41421356237301177
10
-404.45625000000007
20
-179.88800000000001
10
-418.45625000000007
20
-179.88800000000001
42
0.4142135623731783
10
-418.95625000000001
20
-180.38800000000003
10
-418.95625000000001
20
-186.38800000000001
42
0.41421356237303264
10
-418.45625000000007
20
-186.88800000000001
0
LWPOLYLINE
5
189
100
AcDbEntity
8
0
100
AcDbPolyline
90
8
70
1
43
0.0
10
-403.95625000000007
20
-156.512
42
0.4142135623730222
10
-404.45625000000007
20
-156.01200000000003
10
-418.45625000000007
20
-156.012
42
0.41421356237318868
10
-418.95625000000001
20
-156.512
10
-418.95625000000001
20
-162.512
42
0.41421356237303264
10
-418.45625000000007
20
-163.012
10
-404.45625000000007
20
-163.012
42
0.41421356237307422
10
-403.95625000000001
20
-162.512
0
LWPOLYLINE
5
190
100
AcDbEntity
8
0
100
AcDbPolyline
90
8
70
1
43
0.0
10
-376.38125000000008
20
-156.512
42
0.4142135623730222
10
-376.88125000000008
20
-156.01200000000003
10
-390.88125000000002
20
-156.012
42
0.41421356237310542
10
-391.38125000000002
20
-156.512
10
-391.38125000000002
20
-162.512
42
0.41421356237303264
10
-390.88125000000002
20
-163.012
10
-376.88125000000008
20
-163.012
42
0.41421356237319912
10
-376.38125000000002
20
-162.512
0
LWPOLYLINE
5
191
100
AcDbEntity
8
0
100
AcDbPolyline
90
8
70
1
43
0.0
10
-376.88125000000008
20
-178.44999999999999
42
0.41421356237319912
10
-376.38125000000008
20
-177.94999999999999
10
-376.38125000000008
20
-164.95000000000002
42
0.41421356237303264
10
-376.88125000000008
20
-164.44999999999999
10
-389.88125000000002
20
-164.44999999999999
42
0.41421356237319912
10
-390.38125000000008
20
-164.95000000000002
10
-390.38125000000002
20
-177.94999999999999
42
0.41421356237303264
10
-389.88125000000002
20
-178.44999999999999
0
LWPOLYLINE
5
192
100
AcDbEntity
8
0
100
AcDbPolyline
90
8
70
1
43
0.0
10
-376.88125000000008
20
-186.88800000000001
10
-390.88125000000002
20
-186.88800000000001
42
-0.41421356237303264
10
-391.38125000000002
20
-186.38800000000001
10
-391.38125000000002
20
-180.38800000000003
42
-0.4142135623730534
10
-390.88125000000002
20
-179.88800000000001
10
-376.88125000000008
20
-179.88800000000003
42
-0.41421356237301177
10
-376.38125000000008
20
-180.38800000000003
10
-376.38125000000008
20
-186.38800000000001
42
-0.41421356237319912
0
LWPOLYLINE
5
193
100
AcDbEntity
8
0
100
AcDbPolyline
90
8
70
1
43
0.0
10
-418.45625000000007
20
-164.44999999999999
42
0.41421356237319912
10
-418.95625000000001
20
-164.95000000000002
10
-418.95625000000001
20
-177.94999999999999
42
0.41421356237303264
10
-418.45625000000007
20
-178.44999999999999
10
-405.45625000000001
20
-178.44999999999999
42
0.41421356237307422
10
-404.95625000000007
20
-177.94999999999999
10
-404.95625000000007
20
-164.95000000000002
42
0.41421356237303264
10
-405.45625000000001
20
-164.44999999999999
0
LWPOLYLINE
5
194
100
AcDbEntity
8
0
100
AcDbPolyline
90
8
70
1
43
0.0
10
-361.80624999999998
20
-162.512
42
0.41421356237299095
10
-361.30625000000009
20
-163.012
10
-347.30624999999998
20
-163.012
42
0.41421356237319912
10
-346.80624999999998
20
-162.512
10
-346.80624999999998
20
-156.512
42
0.4142135623730222
10
-347.30624999999998
20
-156.012
10
-361.30625000000003
20
-156.012
42
0.41421356237318868
10
-361.80624999999998
20
-156.512
0
LWPOLYLINE
5
195
100
AcDbEntity
8
0
100
AcDbPolyline
90
8
70
1
43
0.0
10
-443.26875000000001
20
-179.88800000000001
10
-429.26875000000001
20
-179.88800000000003
42
-0.41421356237301177
10
-428.76875000000007
20
-180.38800000000003
10
-428.76875000000007
20
-186.38800000000001
42
-0.41421356237319912
10
-429.26875000000001
20
-186.88800000000001
10
-443.26875000000001
20
-186.88800000000001
42
-0.41421356237303264
10
-443.76874999999995
20
-186.38800000000001
10
-443.76874999999995
20
-180.38800000000003
42
-0.4142135623730534
0
LWPOLYLINE
5
196
100
AcDbEntity
8
0
100
AcDbPolyline
90
8
70
1
43
0.0
10
-428.76875000000007
20
-156.512
42
0.4142135623730222
10
-429.26875000000001
20
-156.01200000000003
10
-443.26875000000001
20
-156.012
42
0.41421356237310542
10
-443.76875000000007
20
-156.512
10
-443.76874999999995
20
-162.512
42
0.41421356237303264
10
-443.26875000000001
20
-163.012
10
-429.26875000000001
20
-163.012
42
0.41421356237319912
10
-428.76875000000007
20
-162.512
0
LWPOLYLINE
5
197
100
AcDbEntity
8
0
100
AcDbPolyline
90
8
70
1
43
0.0
10
-280.34375
20
-50.149999999999899
10
-267.34375
20
-50.14999999999992
42
-0.41421356237312629
10
-266.84375
20
-50.649999999999906
10
-266.84375
20
-63.649999999999906
42
-0.4142135623730222
10
-267.34375
20
-64.149999999999906
10
-280.34375
20
-64.149999999999906
42
-0.41421356237313145
10
-280.84375
20
-63.649999999999906
10
-280.84375000000006
20
-50.649999999999906
42
-0.41421356237307422
0
LWPOLYLINE
5
198
100
AcDbEntity
8
0
100
AcDbPolyline
90
8
70
1
43
0.0
10
-294.41874999999999
20
-66.087999999999894
10
-294.41875000000005
20
-72.087999999999894
42
-0.4142135623730222
10
-294.91874999999999
20
-72.587999999999894
10
-308.91874999999999
20
-72.58799999999988
42
-0.41421356237312629
10
-309.41874999999999
20
-72.087999999999894
10
-309.41874999999993
20
-66.087999999999894
42
-0.4142135623730222
10
-308.91874999999999
20
-65.587999999999894
10
-294.91874999999999
20
-65.587999999999909
42
-0.41421356237312629
0
LWPOLYLINE
5
199
100
AcDbEntity
8
0
100
AcDbPolyline
90
8
70
1
43
0.0
10
-295.91875000000005
20
-64.149999999999906
10
-308.91874999999999
20
-64.149999999999892
42
-0.41421356237312101
10
-309.41874999999999
20
-63.649999999999906
10
-309.41874999999993
20
-50.649999999999906
42
-0.4142135623730222
10
-308.91874999999999
20
-50.149999999999906
10
-295.91875000000005
20
-50.14999999999992
42
-0.41421356237312629
10
-295.41874999999999
20
-50.649999999999906
10
-295.41875000000005
20
-63.649999999999906
42
-0.4142135623730222
0
LWPOLYLINE
5
200
100
AcDbEntity
8
0
100
AcDbPolyline
90
8
70
1
43
0.0
10
-243.03125
20
-50.649999999999906
10
-243.03124999999997
20
-63.649999999999906
42
-0.41421356237307422
10
-243.53125000000003
20
-64.149999999999906
10
-256.53125
20
-64.149999999999892
42
-0.41421356237312101
10
-257.03125000000006
20
-63.649999999999906
10
-257.03125
20
-50.649999999999906
42
-0.4142135623730222
10
-256.53125
20
-50.149999999999906
10
-243.53125000000003
20
-50.149999999999899
42
-0.41421356237313667
0
LWPOLYLINE
5
201
100
AcDbEntity
8
0
100
AcDbPolyline
90
8
70
1
43
0.0
10
-242.03125
20
-66.087999999999894
10
-242.03124999999997
20
-72.087999999999894
42
-0.41421356237307422
10
-242.53125
20
-72.587999999999894
10
-256.53125
20
-72.58799999999988
42
-0.41421356237312629
10
-257.03125000000006
20
-72.087999999999894
10
-257.03125
20
-66.087999999999894
42
-0.4142135623730222
10
-256.53125
20
-65.587999999999894
10
-242.53125
20
-65.587999999999894
42
-0.41421356237313667
0
LWPOLYLINE
5
202
100
AcDbEntity
8
0
100
AcDbPolyline
90
8
70
1
43
0.0
10
-256.53125
20
-41.711999999999904
10
-242.53125
20
-41.711999999999904
42
-0.41421356237313145
10
-242.03125
20
-42.211999999999897
10
-242.03124999999997
20
-48.211999999999904
42
-0.41421356237307422
10
-242.53125
20
-48.711999999999904
10
-256.53125
20
-48.71199999999989
42
-0.41421356237312629
10
-257.03125000000006
20
-48.211999999999904
10
-257.03125
20
-42.211999999999897
42
-0.4142135623730222
0
LWPOLYLINE
5
203
100
AcDbEntity
8
0
100
AcDbPolyline
90
8
70
1
43
0.0
10
-266.84375
20
-66.087999999999894
10
-266.84375
20
-72.087999999999894
42
-0.4142135623730222
10
-267.34375
20
-72.587999999999894
10
-281.34375
20
-72.587999999999909
42
-0.41421356237313667
10
-281.84375
20
-72.087999999999894
10
-281.84375000000006
20
-66.087999999999894
42
-0.41421356237307422
10
-281.34375
20
-65.587999999999894
10
-267.34375
20
-65.587999999999937
42
-0.41421356237312629
0
LWPOLYLINE
5
204
100
AcDbEntity
8
0
100
AcDbPolyline
90
8
70
1
43
0.0
10
-266.84375
20
-42.211999999999897
10
-266.84375
20
-48.211999999999904
42
-0.4142135623730222
10
-267.34375
20
-48.711999999999904
10
-281.34375
20
-48.711999999999911
42
-0.41421356237313667
10
-281.84375
20
-48.211999999999904
10
-281.84375000000006
20
-42.211999999999897
42
-0.41421356237307422
10
-281.34375
20
-41.711999999999904
10
-267.34375
20
-41.711999999999954
42
-0.41421356237312101
0
LWPOLYLINE
5
205
100
AcDbEntity
8
0
100
AcDbPolyline
90
8
70
1
43
0.0
10
-347.30624999999998
20
-72.587999999999894
42
0.41421356237318868
10
-346.80624999999998
20
-72.087999999999894
10
-346.80624999999998
20
-66.087999999999894
42
0.4142135623730222
10
-347.30624999999998
20
-65.587999999999894
10
-361.30625000000003
20
-65.587999999999894
42
0.41421356237318868
10
-361.80624999999998
20
-66.087999999999894
10
-361.80624999999998
20
-72.087999999999894
42
0.4142135623730222
10
-361.30625000000003
20
-72.587999999999909
0
LWPOLYLINE
5
206
100
AcDbEntity
8
0
100
AcDbPolyline
90
8
70
1
43
0.0
10
-361.30625000000003
20
-50.149999999999899
10
-348.30624999999998
20
-50.14999999999992
42
-0.4142135623730222
10
-347.80624999999998
20
-50.649999999999906
10
-347.80624999999998
20
-63.649999999999906
42
-0.41421356237311585
10
-348.30624999999998
20
-64.149999999999906
10
-361.30625000000003
20
-64.149999999999892
42
-0.4142135623730222
10
-361.80624999999998
20
-63.649999999999906
10
-361.80624999999998
20
-50.649999999999906
42
-0.41421356237318868
0
LWPOLYLINE
5
207
100
AcDbEntity
8
0
100
AcDbPolyline
90
8
70
1
43
0.0
10
-333.73125000000005
20
-65.587999999999894
10
-319.73124999999999
20
-65.587999999999894
42
-0.41421356237313667
10
-319.23124999999999
20
-66.087999999999894
10
-319.23124999999993
20
-72.087999999999894
42
-0.41421356237307422
10
-319.73124999999999
20
-72.587999999999894
10
-333.73125000000005
20
-72.58799999999988
42
-0.4142135623730222
10
-334.23124999999999
20
-72.087999999999894
10
-334.23124999999999
20
-66.087999999999894
42
-0.41421356237310542
0
LWPOLYLINE
5
208
100
AcDbEntity
8
0
100
AcDbPolyline
90
8
70
1
43
0.0
10
-361.80624999999998
20
-48.211999999999904
42
0.4142135623730222
10
-361.30625000000003
20
-48.71199999999989
10
-347.30624999999998
20
-48.711999999999904
42
0.41421356237318868
10
-346.80624999999998
20
-48.211999999999904
10
-346.80624999999998
20
-42.211999999999897
42
0.4142135623730222
10
-347.30624999999998
20
-41.711999999999904
10
-361.30625000000003
20
-41.711999999999904
42
0.41421356237319912
10
-361.80624999999998
20
-42.211999999999897
0
LWPOLYLINE
5
209
100
AcDbEntity
8
0
100
AcDbPolyline
90
8
70
1
43
0.0
10
-404.95625000000007
20
-50.649999999999906
10
-404.95625000000007
20
-63.649999999999906
42
-0.41421356237311585
10
-405.45625000000001
20
-64.149999999999906
10
-418.45625000000007
20
-64.149999999999892
42
-0.4142135623730222
10
-418.95625000000001
20
-63.649999999999906
10
-418.95625000000001
20
-50.649999999999906
42
-0.41421356237318868
10
-418.45625000000007
20
-50.149999999999906
10
-405.45625000000001
20
-50.14999999999992
42
-0.4142135623730222
0
LWPOLYLINE
5
210
100
AcDbEntity
8
0
100
AcDbPolyline
90
8
70
1
43
0.0
10
-294.91874999999999
20
-48.711999999999904
10
-308.91874999999999
20
-48.71199999999989
42
-0.41421356237312629
10
-309.41874999999999
20
-48.211999999999904
10
-309.41874999999993
20
-42.211999999999897
42
-0.4142135623730222
10
-308.91874999999999
20
-41.711999999999904
10
-294.91874999999999
20
-41.711999999999918
42
-0.41421356237312101
10
-294.41874999999999
20
-42.211999999999897
10
-294.41875000000005
20
-48.211999999999904
42
-0.4142135623730222
0
LWPOLYLINE
5
211
100
AcDbEntity
8
0
100
AcDbPolyline
90
8
70
1
43
0.0
10
-333.23124999999999
20
-63.649999999999906
10
-333.23124999999999
20
-50.649999999999906
42
-0.41421356237318868
10
-332.73124999999999
20
-50.149999999999906
10
-319.73124999999999
20
-50.149999999999899
42
-0.41421356237313667
10
-319.23124999999999
20
-50.649999999999906
10
-319.23124999999993
20
-63.649999999999906
42
-0.41421356237307422
10
-319.73124999999999
20
-64.149999999999906
10
-332.73124999999999
20
-64.149999999999892
42
-0.4142135623730222
0
LWPOLYLINE
5
212
100
AcDbEntity
8
0
100
AcDbPolyline
90
8
70
1
43
0.0
10
-319.73124999999999
20
-48.711999999999904
42
0.41421356237307422
10
-319.23124999999993
20
-48.211999999999904
10
-319.23124999999999
20
-42.211999999999897
42
0.41421356237313145
10
-319.73124999999999
20
-41.711999999999904
10
-333.73125000000005
20
-41.711999999999904
42
0.41421356237311585
10
-334.23124999999999
20
-42.211999999999897
10
-334.23124999999999
20
-48.211999999999904
42
0.4142135623730222
10
-333.73125000000005
20
-48.711999999999904
0
LWPOLYLINE
5
213
100
AcDbEntity
8
0
100
AcDbPolyline
90
8
70
1
43
0.0
10
-404.45625000000007
20
-72.587999999999909
10
-418.45625000000007
20
-72.58799999999988
42
-0.4142135623730222
10
-418.95625000000001
20
-72.087999999999894
10
-418.95625000000001
20
-66.087999999999894
42
-0.41421356237318868
10
-418.45625000000007
20
-65.587999999999894
10
-404.45625000000007
20
-65.587999999999909
42
-0.4142135623730222
10
-403.95625000000007
20
-66.087999999999894
10
-403.95625000000007
20
-72.087999999999894
42
-0.41421356237310542
0
LWPOLYLINE
5
214
100
AcDbEntity
8
0
100
AcDbPolyline
90
8
70
1
43
0.0
10
-418.95625000000001
20
-48.211999999999904
10
-418.95625000000001
20
-42.211999999999897
42
-0.41421356237319912
10
-418.45625000000007
20
-41.711999999999904
10
-404.45625000000007
20
-41.711999999999911
42
-0.4142135623730222
10
-403.95625000000007
20
-42.211999999999897
10
-403.95625000000007
20
-48.211999999999904
42
-0.41421356237310542
10
-404.45625000000007
20
-48.711999999999904
10
-418.45625000000007
20
-48.71199999999989
42
-0.4142135623730222
0
LWPOLYLINE
5
215
100
AcDbEntity
8
0
100
AcDbPolyline
90
8
70
1
43
0.0
10
-242.53125
20
-110.68800000000002
10
-256.53125
20
-110.68799999999999
42
-0.41421356237308465
10
-257.03125000000006
20
-110.188
10
-257.03125
20
-104.18800000000002
42
-0.41421356237310542
10
-256.53125
20
-103.688
10
-242.53125
20
-103.688
42
-0.41421356237313667
10
-242.03125
20
-104.18800000000002
10
-242.03125
20
-110.188
42
-0.41421356237309509
0
LWPOLYLINE
5
216
100
AcDbEntity
8
0
100
AcDbPolyline
90
8
70
1
43
0.0
10
-308.91874999999999
20
-79.811999999999898
42
0.41421356237301177
10
-309.41874999999999
20
-80.311999999999898
10
-309.41874999999999
20
-86.311999999999912
42
0.41421356237308465
10
-308.91874999999999
20
-86.811999999999898
10
-294.91874999999999
20
-86.811999999999912
42
0.41421356237308465
10
-294.41874999999999
20
-86.311999999999912
10
-294.41874999999999
20
-80.311999999999898
42
0.41421356237312629
10
-294.91874999999999
20
-79.811999999999898
0
LWPOLYLINE
5
217
100
AcDbEntity
8
0
100
AcDbPolyline
90
8
70
1
43
0.0
10
-319.73124999999999
20
-102.25000000000001
10
-332.73124999999999
20
-102.25
42
-0.4142135623730222
10
-333.23124999999999
20
-101.75
10
-333.23124999999999
20
-88.749999999999915
42
-0.41421356237318868
10
-332.73124999999999
20
-88.249999999999901
10
-319.73124999999999
20
-88.249999999999901
42
-0.41421356237309509
10
-319.23124999999999
20
-88.749999999999915
10
-319.23124999999999
20
-101.75
42
-0.41421356237313667
0
LWPOLYLINE
5
218
100
AcDbEntity
8
0
100
AcDbPolyline
90
8
70
1
43
0.0
10
-309.41874999999999
20
-110.188
10
-309.41874999999993
20
-104.18800000000002
42
-0.41421356237310542
10
-308.91874999999999
20
-103.688
10
-294.91874999999999
20
-103.68799999999999
42
-0.41421356237310542
10
-294.41874999999999
20
-104.18800000000002
10
-294.41874999999993
20
-110.188
42
-0.41421356237308465
10
-294.91874999999999
20
-110.68800000000002
10
-308.91874999999999
20
-110.68799999999999
42
-0.41421356237308465
0
LWPOLYLINE
5
219
100
AcDbEntity
8
0
100
AcDbPolyline
90
8
70
1
43
0.0
10
-266.84375
20
-88.749999999999915
10
-266.84375
20
-101.75
42
-0.41421356237310542
10
-267.34375
20
-102.25000000000001
10
-280.34375
20
-102.25000000000001
42
-0.41421356237313667
10
-280.84375
20
-101.75
10
-280.84375
20
-88.749999999999915
42
-0.41421356237309509
10
-280.34375
20
-88.249999999999901
10
-267.34375
20
-88.249999999999957
42
-0.41421356237308465
0
LWPOLYLINE
5
220
100
AcDbEntity
8
0
100
AcDbPolyline
90
8
70
1
43
0.0
10
-266.84375
20
-104.18800000000002
10
-266.84374999999994
20
-110.188
42
-0.41421356237308465
10
-267.34375
20
-110.68800000000002
10
-281.34375
20
-110.68800000000002
42
-0.41421356237309509
10
-281.84375
20
-110.188
10
-281.84375
20
-104.18800000000002
42
-0.41421356237313667
10
-281.34375
20
-103.688
10
-267.34375
20
-103.68800000000002
42
-0.41421356237310542
0
LWPOLYLINE
5
221
100
AcDbEntity
8
0
100
AcDbPolyline
90
8
70
1
43
0.0
10
-242.53125
20
-86.811999999999898
10
-256.53125
20
-86.811999999999898
42
-0.41421356237308465
10
-257.03125000000006
20
-86.311999999999912
10
-257.03125000000006
20
-80.311999999999898
42
-0.41421356237301177
10
-256.53125
20
-79.811999999999898
10
-242.53125
20
-79.811999999999884
42
-0.41421356237313667
10
-242.03125
20
-80.311999999999898
10
-242.03125
20
-86.311999999999912
42
-0.41421356237309509
0
LWPOLYLINE
5
222
100
AcDbEntity
8
0
100
AcDbPolyline
90
8
70
1
43
0.0
10
-281.84375
20
-86.311999999999912
42
0.41421356237309509
10
-281.34375
20
-86.811999999999912
10
-267.34375
20
-86.811999999999912
42
0.41421356237308465
10
-266.84375
20
-86.311999999999912
10
-266.84375
20
-80.311999999999898
42
0.41421356237312629
10
-267.34375
20
-79.811999999999898
10
-281.34375
20
-79.811999999999898
42
0.41421356237306384
10
-281.84375
20
-80.311999999999898
0
LWPOLYLINE
5
223
100
AcDbEntity
8
0
100
AcDbPolyline
90
8
70
1
43
0.0
10
-308.91874999999999
20
-88.249999999999901
42
0.41421356237308465
10
-309.41875000000005
20
-88.749999999999915
10
-309.41874999999999
20
-101.75
42
0.41421356237310542
10
-308.91874999999999
20
-102.25000000000001
10
-295.91875000000005
20
-102.25000000000001
42
0.41421356237310542
10
-295.41874999999999
20
-101.75
10
-295.41874999999999
20
-88.749999999999915
42
0.41421356237308465
10
-295.91875000000005
20
-88.249999999999901
0
LWPOLYLINE
5
224
100
AcDbEntity
8
0
100
AcDbPolyline
90
8
70
1
43
0.0
10
-333.73125000000005
20
-79.811999999999898
10
-319.73124999999999
20
-79.811999999999884
42
-0.41421356237313667
10
-319.23124999999999
20
-80.311999999999898
10
-319.23124999999999
20
-86.311999999999912
42
-0.41421356237309509
10
-319.73124999999999
20
-86.811999999999912
10
-333.73125000000005
20
-86.811999999999898
42
-0.4142135623730222
10
-334.23124999999999
20
-86.311999999999912
10
-334.23124999999999
20
-80.311999999999898
42
-0.41421356237310542
0
LWPOLYLINE
5
225
100
AcDbEntity
8
0
100
AcDbPolyline
90
8
70
1
43
0.0
10
-347.30624999999998
20
-86.811999999999898
10
-361.30625000000003
20
-86.811999999999898
42
-0.4142135623730222
10
-361.80624999999998
20
-86.311999999999912
10
-361.80624999999998
20
-80.311999999999898
42
-0.41421356237318868
10
-361.30625000000003
20
-79.811999999999898
10
-347.30624999999998
20
-79.811999999999898
42
-0.4142135623730222
10
-346.80624999999998
20
-80.311999999999898
10
-346.80624999999998
20
-86.311999999999912
42
-0.41421356237318868
0
LWPOLYLINE
5
226
100
AcDbEntity
8
0
100
AcDbPolyline
90
8
70
1
43
0.0
10
-347.30624999999998
20
-110.68800000000002
42
0.41421356237318868
10
-346.80624999999998
20
-110.188
10
-346.80624999999998
20
-104.18800000000002
42
0.4142135623730222
10
-347.30624999999998
20
-103.688
10
-361.30625000000003
20
-103.688
42
0.41421356237320955
10
-361.80624999999998
20
-104.18800000000002
10
-361.80624999999998
20
-110.188
42
0.4142135623730222
10
-361.30625000000003
20
-110.68800000000002
0
LWPOLYLINE
5
227
100
AcDbEntity
8
0
100
AcDbPolyline
90
8
70
1
43
0.0
10
-319.23124999999999
20
-104.18800000000002
10
-319.23124999999999
20
-110.188
42
-0.41421356237309509
10
-319.73124999999999
20
-110.68800000000002
10
-333.73125000000005
20
-110.68799999999999
42
-0.4142135623730222
10
-334.23124999999999
20
-110.188
10
-334.23124999999999
20
-104.18800000000002
42
-0.41421356237312629
10
-333.73125000000005
20
-103.688
10
-319.73124999999999
20
-103.688
42
-0.41421356237313667
0
LWPOLYLINE
5
228
100
AcDbEntity
8
0
100
AcDbPolyline
90
8
70
1
43
0.0
10
-243.03125
20
-88.749999999999915
42
0.41421356237309509
10
-243.53125000000003
20
-88.249999999999901
10
-256.53125
20
-88.249999999999901
42
0.41421356237308465
10
-257.03125
20
-88.749999999999915
10
-257.03125000000006
20
-101.75
42
0.41421356237310542
10
-256.53125
20
-102.25000000000001
10
-243.53125000000003
20
-102.25000000000001
42
0.41421356237313667
10
-243.03125
20
-101.75
0
LWPOLYLINE
5
229
100
AcDbEntity
8
0
100
AcDbPolyline
90
8
70
1
43
0.0
10
-361.30625000000003
20
-88.249999999999901
42
0.41421356237318868
10
-361.80624999999998
20
-88.749999999999915
10
-361.80624999999998
20
-101.75
42
0.4142135623730222
10
-361.30625000000003
20
-102.25000000000001
10
-348.30624999999998
20
-102.25000000000001
42
0.41421356237312629
10
-347.80624999999998
20
-101.75
10
-347.80624999999998
20
-88.749999999999915
42
0.4142135623730222
10
-348.30624999999998
20
-88.249999999999901
0
LWPOLYLINE
5
230
100
AcDbEntity
8
0
100
AcDbPolyline
90
176
70
1
43
0.0
10
-242.17475830020305
20
-233.3624999999999
10
-228.95024169979706
20
-233.3625000000003
42
-0.19891236737960491
10
-227.81887084989907
20
-233.83112915010145
10
-223.03112915010178
20
-238.61887084989817
42
0.19891236737971513
10
-221.89975830020305
20
-239.08749999999995
10
-221.81250000000006
20
-239.08749999999998
42
0.41421356237309509
10
-221.3125
20
-238.58749999999992
10
-221.31250000000006
20
-236.58749999999998
42
-0.99999999999999989
10
-218.81250000000006
20
-236.58749999999998
10
-218.81250000000006
20
-238.58749999999992
42
0.41421356237309509
10
-218.31250000000009
20
-239.08749999999992
10
-218.22524169979704
20
-239.08749999999998
42
0.19891236737959672
10
-217.09387084989882
20
-238.61887084989871
10
-212.30612915010181
20
-233.83112915010173
42
-0.19891236737971918
10
-211.17475830020308
20
-233.36249999999993
10
-127.950241699797
20
-233.36250000000004
42
-0.19891236737954165
10
-126.81887084989904
20
-233.83112915010105
10
-122.03112915010202
20
-238.61887084989803
42
0.19891236737977228
10
-120.899758300203
20
-239.08750000000001
10
-120.8125
20
-239.08750000000001
42
0.41421356237309509
10
-120.3125
20
-238.58750000000001
10
-120.3125
20
-236.58750000000001
42
-0.99999999999999989
10
-117.8125
20
-236.58750000000001
10
-117.8125
20
-238.58750000000001
42
0.41421356237309509
10
-117.31250000000001
20
-239.08750000000001
10
-117.225241699797
20
-239.08750000000001
42
0.19891236737965595
10
-116.09387084989854
20
-238.61887084989849
10
-111.30612915010097
20
-233.83112915010105
42
-0.19891236737954165
10
-110.17475830020301
20
-233.36250000000004
10
-20.793991699797107
20
-233.36250000000004
42
-0.1989123673796003
10
-19.662620849898882
20
-233.8311291501013
10
-14.8748791501016
20
-238.61887084989803
42
0.19891236737971302
10
-13.743508300203102
20
-239.08750000000001
10
-13.656250000000101
20
-239.08750000000001
42
0.41421356237309509
10
-13.156250000000094
20
-238.58750000000001
10
-13.156250000000099
20
-236.58750000000001
42
-0.99999999999999989
10
-10.656250000000099
20
-236.58750000000001
10
-10.656250000000099
20
-238.58750000000001
42
0.41421356237309509
10
-10.156250000000099
20
-239.08750000000001
10
-10.068991699797001
20
-239.08750000000001
42
0.19891236737970658
10
-8.9376208498983107
20
-238.61887084989829
10
-4.1498791501012757
20
-233.83112915010128
42
-0.19891236737959567
10
-3.0185083002030701
20
-233.36250000000004
10
-1.6000000000000003
20
-233.36250000000004
42
0.41421356237309509
10
0
20
-231.76249999999999
10
-2.248201624865942e-14
20
-1.6000000000000014
42
0.4142135623730952
10
-1.6000000000000203
20
0
10
-3.0185083002030701
20
-2.9698465908722937e-14
42
-0.19891236737965662
10
-4.1498791501015404
20
0.46862915010148803
10
-8.9376208498985292
20
5.2563708498984809
42
0.19891236737965654
10
-10.068991699796999
20
5.7249999999999996
10
-10.156250000000099
20
5.7249999999999899
42
0.41421356237309509
10
-10.656250000000099
20
5.2249999999999899
10
-10.656250000000099
20
3.2249999999999899
42
-0.99999999999999989
10
-13.156250000000099
20
3.2249999999999899
10
-13.156250000000099
20
5.2249999999999899
42
0.41421356237309509
10
-13.656250000000101
20
5.7249999999999899
10
-13.7435083002031
20
5.7249999999999996
42
0.19891236737966056
10
-14.874879150101588
20
5.2563708498984667
10
-19.662620849898616
20
0.46862915010150397
42
-0.19891236737966031
10
-20.793991699797104
20
-3.0253577421035516e-14
10
-110.17475830020301
20
-2.8588242884097781e-14
42
-0.19891236737971654
10
-111.30612915010174
20
0.46862915010174949
10
-116.09387084989902
20
5.2563708498984703
42
0.19891236737960208
10
-117.225241699797
20
5.7249999999999996
10
-117.31250000000001
20
5.7249999999999899
42
0.41421356237309509
10
-117.81250000000001
20
5.2249999999999899
10
-117.8125
20
3.2249999999999899
42
-0.99999999999999989
10
-120.3125
20
3.2249999999999899
10
-120.3125
20
5.2249999999999899
42
0.41421356237309509
10
-120.8125
20
5.724999999999997
10
-120.899758300203
20
5.7249999999999996
42
0.19891236737972035
10
-122.03112915010175
20
5.2563708498982056
10
-126.81887084989879
20
0.46862915010125672
42
-0.19891236737960355
10
-127.950241699797
20
-3.0253577421035516e-14
10
-211.17475830020305
20
-2.8449465006019636e-14
42
-0.19891236737971654
10
-212.30612915010175
20
0.46862915010174977
10
-217.09387084989902
20
5.2563708498984703
42
0.19891236737960208
10
-218.22524169979701
20
5.7249999999996479
10
-218.31250000000006
20
5.7249999999999899
42
0.41421356237309509
10
-218.81250000000006
20
5.2249999999999899
10
-218.8125
20
3.2249999999999899
42
-0.99999999999999989
10
-221.3125
20
3.2249999999999899
10
-221.3125
20
5.2249999999999899
42
0.41421356237309509
10
-221.81250000000003
20
5.724999999999997
10
-221.89975830020302
20
5.7249999999999996
42
0.19891236737971682
10
-223.03112915010175
20
5.256370849898218
10
-227.81887084989879
20
0.46862915010124767
42
-0.19891236737960144
10
-228.95024169979703
20
-3.0253577421035516e-14
10
-242.17475830020302
20
-2.8449465006019636e-14
42
-0.19891236737971654
10
-243.30612915010175
20
0.46862915010174977
10
-248.09387084989902
20
5.2563708498984703
42
0.19891236737960621
10
-249.22524169979704
20
5.7249999999996737
10
-249.31250000000003
20
5.7249999999999899
42
0.41421356237309509
10
-249.81250000000003
20
5.2249999999999899
10
-249.81250000000003
20
3.2249999999999899
42
-0.99999999999999989
10
-252.31250000000003
20
3.2249999999999899
10
-252.31250000000003
20
5.2249999999999899
42
0.41421356237309509
10
-252.8125
20
5.7249999999999615
10
-252.89975830020302
20
5.7249999999999996
42
0.19891236737971682
10
-254.03112915010178
20
5.256370849898218
10
-258.81887084989876
20
0.46862915010124767
42
-0.19891236737960144
10
-259.950241699797
20
-3.0253577421035516e-14
10
-324.487258300203
20
-1.0824674490095276e-14
42
-0.19891236737971943
10
-325.61862915010175
20
0.46862915010177475
10
-330.40637084989902
20
5.2563708498984809
42
0.19891236737959683
10
-331.53774169979698
20
5.7249999999999801
10
-331.625
20
5.7249999999999899
42
0.41421356237309509
10
-332.125
20
5.2249999999999899
10
-332.125
20
3.2249999999999899
42
-0.99999999999999989
10
-334.625
20
3.2249999999999899
10
-334.625
20
5.2249999999999899
42
0.41421356237309509
10
-335.125
20
5.7249999999999615
10
-335.21225830020308
20
5.7249999999999996
42
0.19891236737971582
10
-336.34362915010178
20
5.2563708498982269
10
-341.13137084989881
20
0.46862915010127876
42
-0.19891236737960857
10
-342.26274169979706
20
-3.0253577421035516e-14
10
-431.64350830020305
20
-1.0685896612017132e-14
42
-0.19891236737960513
10
-432.77487915010124
20
0.46862915010127748
10
-437.56262084989908
20
5.2563708498984809
42
0.19891236737959683
10
-438.69399169979704
20
5.7249999999999801
10
-438.78125000000006
20
5.7249999999999899
42
0.41421356237309509
10
-439.28125
20
5.2249999999999899
10
-439.28125
20
3.2249999999999899
42
-0.99999999999999989
10
-441.78125
20
3.2249999999999899
10
-441.78125
20
5.2249999999999899
42
0.41421356237309509
10
-442.28125000000006
20
5.7249999999999615
10
-442.36850830020302
20
5.7249999999999996
42
0.19891236737971699
10
-443.49987915010172
20
5.2563708498982162
10
-448.28762084989881
20
0.46862915010126194
42
-0.19891236737960469
10
-449.41899169979706
20
-3.0253577421035516e-14
10
-450.83750000000003
20
1.1324274851176597e-13
42
0.41421356237309509
10
-452.4375
20
-1.5999999999998902
10
-452.43750000000006
20
-231.76249999999999
42
0.41421356237309509
10
-450.83750000000003
20
-233.36249999999995
10
-449.41899169979706
20
-233.36250000000007
42
-0.19891236737954376
10
-448.2876208498991
20
-233.83112915010111
10
-443.49987915010206
20
-238.61887084989803
42
0.19891236737977228
10
-442.36850830020302
20
-239.08749999999998
10
-442.28125000000006
20
-239.08750000000001
42
0.41421356237309509
10
-441.78125000000011
20
-238.58750000000001
10
-441.78125
20
-236.58750000000001
42
-0.99999999999999989
10
-439.28125
20
-236.58750000000001
10
-439.28125
20
-238.58750000000001
42
0.41421356237309509
10
-438.78125000000006
20
-239.08749999999998
10
-438.69399169979704
20
-239.08750000000001
42
0.19891236737964985
10
-437.56262084989856
20
-238.61887084989854
10
-432.77487915010101
20
-233.83112915010105
42
-0.19891236737954376
10
-431.64350830020305
20
-233.36250000000004
10
-342.26274169979706
20
-233.36250000000007
42
-0.19891236737954376
10
-341.1313708498991
20
-233.83112915010111
10
-336.343629150102
20
-238.61887084989803
42
0.19891236737976412
10
-335.21225830020308
20
-239.08749999999998
10
-335.125
20
-239.08750000000001
42
0.41421356237309509
10
-334.62500000000006
20
-238.58750000000001
10
-334.625
20
-236.58750000000001
42
-0.99999999999999989
10
-332.125
20
-236.58750000000001
10
-332.125
20
-238.58750000000001
42
0.41421356237309509
10
-331.625
20
-239.08749999999998
10
-331.53774169979698
20
-239.08750000000001
42
0.19891236737964985
10
-330.40637084989851
20
-238.61887084989854
10
-325.61862915010147
20
-233.83112915010156
42
-0.19891236737965798
10
-324.487258300203
20
-233.36250000000004
10
-259.95024169979706
20
-233.3625000000003
42
-0.19891236737960491
10
-258.81887084989904
20
-233.83112915010145
10
-254.0311291501018
20
-238.61887084989814
42
0.19891236737971923
10
-252.89975830020308
20
-239.08749999999995
10
-252.81250000000003
20
-239.08749999999992
42
0.41421356237309509
10
-252.31250000000006
20
-238.58749999999992
10
-252.31250000000006
20
-236.58749999999992
42
-0.99999999999999989
10
-249.81250000000006
20
-236.58749999999992
10
-249.81250000000006
20
-238.58749999999992
42
0.41421356237309509
10
-249.31250000000006
20
-239.08749999999995
10
-249.22524169979707
20
-239.08749999999992
42
0.19891236737960905
10
-248.09387084989882
20
-238.6188708498986
10
-243.30612915010178
20
-233.83112915010167
42
-0.1989123673797151
0
LWPOLYLINE
5
231
100
AcDbEntity
8
0
100
AcDbPolyline
90
8
70
1
43
0.0
10
-138.25624999999999
20
-164.95000000000002
10
-138.25624999999999
20
-177.94999999999999
42
-0.41421356237313667
10
-138.75624999999999
20
-178.44999999999999
10
-151.75624999999999
20
-178.44999999999999
42
-0.41421356237313667
10
-152.25625000000002
20
-177.94999999999999
10
-152.25625000000002
20
-164.95000000000002
42
-0.41421356237313667
10
-151.75624999999999
20
-164.44999999999999
10
-138.75624999999999
20
-164.44999999999999
42
-0.41421356237313667
0
LWPOLYLINE
5
232
100
AcDbEntity
8
0
100
AcDbPolyline
90
8
70
1
43
0.0
10
-137.75624999999999
20
-148.78800000000001
10
-151.75624999999999
20
-148.78800000000001
42
-0.41421356237309509
10
-152.25625000000002
20
-148.28800000000001
10
-152.25625000000002
20
-142.28800000000001
42
-0.41421356237307422
10
-151.75624999999999
20
-141.78800000000001
10
-137.75624999999999
20
-141.78800000000001
42
-0.4142135623730534
10
-137.25624999999999
20
-142.28800000000001
10
-137.25624999999999
20
-148.28800000000001
42
-0.41421356237307422
0
LWPOLYLINE
5
233
100
AcDbEntity
8
0
100
AcDbPolyline
90
8
70
1
43
0.0
10
-162.56875000000002
20
-140.34999999999999
10
-175.56875000000002
20
-140.34999999999999
42
-0.41421356237313667
10
-176.06875000000002
20
-139.84999999999999
10
-176.06875000000002
20
-126.85000000000001
42
-0.41421356237309509
10
-175.56875000000002
20
-126.34999999999999
10
-162.56875000000002
20
-126.35000000000002
42
-0.41421356237308465
10
-162.06874999999999
20
-126.85000000000001
10
-162.06875000000002
20
-139.84999999999999
42
-0.41421356237310542
0
LWPOLYLINE
5
234
100
AcDbEntity
8
0
100
AcDbPolyline
90
8
70
1
43
0.0
10
-162.56875000000002
20
-124.91200000000003
42
0.41421356237310542
10
-162.06875000000002
20
-124.41200000000002
10
-162.06874999999999
20
-118.41200000000001
42
0.41421356237310542
10
-162.56875000000002
20
-117.91200000000002
10
-176.56874999999999
20
-117.91200000000001
42
0.41421356237310542
10
-177.06874999999999
20
-118.41200000000001
10
-177.06874999999999
20
-124.41200000000002
42
0.41421356237310542
10
-176.56874999999999
20
-124.91200000000001
0
LWPOLYLINE
5
235
100
AcDbEntity
8
0
100
AcDbPolyline
90
8
70
1
43
0.0
10
-177.06874999999999
20
-148.28800000000001
10
-177.06875000000002
20
-142.28800000000001
42
-0.41421356237308465
10
-176.56874999999999
20
-141.78800000000001
10
-162.56875000000002
20
-141.78800000000001
42
-0.41421356237308465
10
-162.06874999999999
20
-142.28800000000001
10
-162.06875000000002
20
-148.28800000000001
42
-0.41421356237310542
10
-162.56875000000002
20
-148.78800000000001
10
-176.56874999999999
20
-148.78800000000004
42
-0.41421356237310542
0
LWPOLYLINE
5
236
100
AcDbEntity
8
0
100
AcDbPolyline
90
8
70
1
43
0.0
10
-204.64375000000004
20
-139.84999999999999
10
-204.64375000000004
20
-126.85000000000001
42
-0.41421356237309509
10
-204.14375000000004
20
-126.34999999999999
10
-191.14375000000001
20
-126.35000000000002
42
-0.41421356237308465
10
-190.64375000000001
20
-126.85000000000001
10
-190.64375000000007
20
-139.84999999999999
42
-0.41421356237310542
10
-191.14375000000001
20
-140.34999999999999
10
-204.14375000000004
20
-140.34999999999999
42
-0.41421356237313667
0
LWPOLYLINE
5
237
100
AcDbEntity
8
0
100
AcDbPolyline
90
8
70
1
43
0.0
10
-214.95625000000004
20
-140.34999999999999
42
0.41421356237310542
10
-214.45625000000007
20
-139.84999999999999
10
-214.45625000000004
20
-126.85000000000001
42
0.41421356237308465
10
-214.95625000000004
20
-126.34999999999999
10
-227.95625000000001
20
-126.34999999999999
42
0.41421356237308465
10
-228.45625000000001
20
-126.85000000000001
10
-228.45625000000001
20
-139.84999999999999
42
0.41421356237310542
10
-227.95625000000001
20
-140.34999999999999
0
LWPOLYLINE
5
238
100
AcDbEntity
8
0
100
AcDbPolyline
90
8
70
1
43
0.0
10
-204.64375000000004
20
-124.41200000000002
42
0.41421356237313667
10
-204.14375000000004
20
-124.91200000000003
10
-190.14375000000001
20
-124.91200000000003
42
0.41421356237310542
10
-189.64375000000001
20
-124.41200000000002
10
-189.64375000000001
20
-118.41200000000001
42
0.41421356237310542
10
-190.14375000000001
20
-117.91200000000002
10
-204.14375000000004
20
-117.91200000000001
42
0.41421356237313667
10
-204.64375000000004
20
-118.41200000000001
0
LWPOLYLINE
5
239
100
AcDbEntity
8
0
100
AcDbPolyline
90
8
70
1
43
0.0
10
-214.95625000000004
20
-124.91200000000001
10
-228.95625000000001
20
-124.91200000000005
42
-0.41421356237310542
10
-229.45625000000004
20
-124.41200000000002
10
-229.45625000000001
20
-118.41200000000001
42
-0.41421356237310542
10
-228.95625000000001
20
-117.91200000000001
10
-214.95625000000004
20
-117.91199999999998
42
-0.41421356237310542
10
-214.45625000000004
20
-118.41200000000001
10
-214.45625000000007
20
-124.41200000000002
42
-0.41421356237310542
0
LWPOLYLINE
5
240
100
AcDbEntity
8
0
100
AcDbPolyline
90
8
70
1
43
0.0
10
-229.45625000000004
20
-148.28800000000001
42
0.41421356237310542
10
-228.95625000000001
20
-148.78800000000004
10
-214.95625000000004
20
-148.78800000000001
42
0.41421356237310542
10
-214.45625000000004
20
-148.28800000000001
10
-214.45625000000004
20
-142.28800000000001
42
0.41421356237308465
10
-214.95625000000004
20
-141.78800000000001
10
-228.95625000000001
20
-141.78800000000001
42
0.41421356237308465
10
-229.45625000000004
20
-142.28800000000001
0
LWPOLYLINE
5
241
100
AcDbEntity
8
0
100
AcDbPolyline
90
8
70
1
43
0.0
10
-204.64375000000004
20
-148.28800000000001
42
0.41421356237313667
10
-204.14375000000004
20
-148.78800000000001
10
-190.14375000000001
20
-148.78800000000001
42
0.41421356237310542
10
-189.64375000000001
20
-148.28800000000001
10
-189.64375000000001
20
-142.28800000000001
42
0.41421356237308465
10
-190.14375000000001
20
-141.78800000000001
10
-204.14375000000004
20
-141.78800000000001
42
0.41421356237309509
10
-204.64375000000004
20
-142.28800000000001
0
LWPOLYLINE
5
242
100
AcDbEntity
8
0
100
AcDbPolyline
90
8
70
1
43
0.0
10
-5.4062500000000604
20
-86.811999999999912
42
0.41421356237307422
10
-4.9062500000000533
20
-86.311999999999912
10
-4.9062500000000604
20
-80.311999999999898
42
0.41421356237308465
10
-5.4062500000000613
20
-79.811999999999898
10
-19.406250000000099
20
-79.811999999999898
42
0.41421356237309509
10
-19.906250000000099
20
-80.311999999999898
10
-19.906250000000099
20
-86.311999999999912
42
0.41421356237307161
10
-19.406250000000099
20
-86.811999999999898
0
LWPOLYLINE
5
243
100
AcDbEntity
8
0
100
AcDbPolyline
90
8
70
1
43
0.0
10
-5.4062500000000604
20
-110.68800000000002
10
-19.406250000000099
20
-110.68800000000002
42
-0.41421356237307161
10
-19.906250000000099
20
-110.188
10
-19.90625000000011
20
-104.18800000000002
42
-0.41421356237309637
10
-19.406250000000099
20
-103.688
10
-5.4062500000000613
20
-103.68799999999999
42
-0.41421356237310608
10
-4.9062500000000604
20
-104.18800000000002
10
-4.9062500000000533
20
-110.188
42
-0.41421356237307422
0
LWPOLYLINE
5
244
100
AcDbEntity
8
0
100
AcDbPolyline
90
8
70
1
43
0.0
10
-18.406250000000099
20
-88.249999999999901
42
0.41421356237307549
10
-18.90625000000011
20
-88.749999999999915
10
-18.906250000000099
20
-101.75
42
0.41421356237309243
10
-18.406250000000099
20
-102.25000000000001
10
-5.4062500000000604
20
-102.25000000000001
42
0.41421356237309437
10
-4.9062500000000604
20
-101.75
10
-4.9062500000000604
20
-88.749999999999915
42
0.41421356237307483
10
-5.4062500000000613
20
-88.249999999999901
0
LWPOLYLINE
5
245
100
AcDbEntity
8
0
100
AcDbPolyline
90
8
70
1
43
0.0
10
-46.981250000000109
20
-88.249999999999901
10
-33.981250000000102
20
-88.249999999999915
42
-0.41421356237308465
10
-33.481250000000109
20
-88.749999999999915
10
-33.481250000000095
20
-101.75
42
-0.41421356237309509
10
-33.981250000000102
20
-102.25000000000001
10
-46.981250000000109
20
-102.25000000000001
42
-0.41421356237311585
10
-47.481250000000102
20
-101.75
10
-47.481250000000117
20
-88.749999999999915
42
-0.41421356237307422
0
LWPOLYLINE
5
246
100
AcDbEntity
8
0
100
AcDbPolyline
90
8
70
1
43
0.0
10
-47.481250000000102
20
-110.188
42
0.4142135623731002
10
-46.981250000000109
20
-110.68799999999999
10
-32.981250000000102
20
-110.68800000000002
42
0.41421356237307161
10
-32.481250000000102
20
-110.188
10
-32.481250000000102
20
-104.18800000000002
42
0.41421356237311585
10
-32.981250000000102
20
-103.688
10
-46.981250000000109
20
-103.688
42
0.41421356237309509
10
-47.481250000000102
20
-104.18800000000002
0
LWPOLYLINE
5
247
100
AcDbEntity
8
0
100
AcDbPolyline
90
8
70
1
43
0.0
10
-32.481250000000102
20
-80.311999999999898
10
-32.481250000000102
20
-86.311999999999912
42
-0.41421356237307161
10
-32.981250000000102
20
-86.811999999999912
10
-46.981250000000109
20
-86.811999999999898
42
-0.4142135623731002
10
-47.481250000000102
20
-86.311999999999912
10
-47.481250000000124
20
-80.311999999999898
42
-0.41421356237308465
10
-46.981250000000109
20
-79.811999999999898
10
-32.981250000000102
20
-79.811999999999898
42
-0.41421356237309509
0
LWPOLYLINE
5
248
100
AcDbEntity
8
0
100
AcDbPolyline
90
8
70
1
43
0.0
10
-4.9062500000000604
20
-164.95000000000002
10
-4.9062500000000586
20
-177.94999999999999
42
-0.41421356237313345
10
-5.4062500000000604
20
-178.44999999999999
10
-18.406250000000099
20
-178.45000000000002
42
-0.41421356237307549
10
-18.906250000000099
20
-177.94999999999999
10
-18.906250000000103
20
-164.95000000000002
42
-0.414213562373134
10
-18.406250000000099
20
-164.44999999999999
10
-5.4062500000000613
20
-164.44999999999996
42
-0.41421356237307744
0
LWPOLYLINE
5
249
100
AcDbEntity
8
0
100
AcDbPolyline
90
8
70
1
43
0.0
10
-57.793750000000102
20
-163.012
10
-71.793750000000102
20
-163.01200000000006
42
-0.41421356237307422
10
-72.293750000000102
20
-162.512
10
-72.293750000000131
20
-156.51200000000003
42
-0.41421356237307944
10
-71.793750000000102
20
-156.012
10
-57.793750000000102
20
-156.01200000000003
42
-0.41421356237310542
10
-57.293750000000109
20
-156.512
10
-57.293750000000102
20
-162.512
42
-0.41421356237313667
0
LWPOLYLINE
5
250
100
AcDbEntity
8
0
100
AcDbPolyline
90
8
70
1
43
0.0
10
-19.906250000000099
20
-162.512
42
0.41421356237307549
10
-19.406250000000099
20
-163.01200000000006
10
-5.4062500000000604
20
-163.012
42
0.41421356237313345
10
-4.9062500000000497
20
-162.512
10
-4.9062500000000604
20
-156.512
42
0.41421356237307483
10
-5.4062500000000613
20
-156.012
10
-19.406250000000099
20
-156.012
42
0.41421356237307549
10
-19.906250000000099
20
-156.512
0
LWPOLYLINE
5
251
100
AcDbEntity
8
0
100
AcDbPolyline
90
8
70
1
43
0.0
10
-109.68125000000001
20
-180.38800000000003
42
0.41421356237310542
10
-110.18125000000001
20
-179.88800000000003
10
-124.18125000000002
20
-179.88800000000001
42
0.41421356237308465
10
-124.68125000000001
20
-180.38800000000003
10
-124.68125000000002
20
-186.38800000000001
42
0.41421356237309509
10
-124.18125000000002
20
-186.88800000000001
10
-110.18125000000001
20
-186.88800000000001
42
0.41421356237313667
10
-109.68125000000001
20
-186.38800000000001
0
LWPOLYLINE
5
252
100
AcDbEntity
8
0
100
AcDbPolyline
90
8
70
1
43
0.0
10
-32.481250000000102
20
-180.38800000000003
42
0.41421356237304557
10
-32.981250000000102
20
-179.88800000000001
10
-46.981250000000109
20
-179.88800000000001
42
0.41421356237312101
10
-47.481250000000102
20
-180.38800000000003
10
-47.481250000000102
20
-186.38800000000001
42
0.41421356237307422
10
-46.981250000000109
20
-186.88800000000001
10
-32.981250000000102
20
-186.88800000000001
42
0.41421356237313145
10
-32.481250000000102
20
-186.38800000000001
0
LWPOLYLINE
5
253
100
AcDbEntity
8
0
100
AcDbPolyline
90
8
70
1
43
0.0
10
-19.906250000000099
20
-186.38800000000001
10
-19.906250000000085
20
-180.38800000000003
42
-0.41421356237312362
10
-19.406250000000099
20
-179.88800000000001
10
-5.4062500000000613
20
-179.88800000000003
42
-0.41421356237302542
10
-4.9062500000000604
20
-180.38800000000003
10
-4.9062500000000586
20
-186.38800000000001
42
-0.41421356237313345
10
-5.4062500000000604
20
-186.88800000000001
10
-19.406250000000099
20
-186.88800000000003
42
-0.41421356237307549
0
LWPOLYLINE
5
254
100
AcDbEntity
8
0
100
AcDbPolyline
90
8
70
1
43
0.0
10
-46.981250000000109
20
-156.012
10
-32.981250000000102
20
-156.01200000000003
42
-0.4142135623731002
10
-32.481250000000102
20
-156.512
10
-32.481250000000102
20
-162.512
42
-0.41421356237313145
10
-32.981250000000102
20
-163.012
10
-46.981250000000109
20
-163.01200000000006
42
-0.41421356237307422
10
-47.481250000000102
20
-162.512
10
-47.481250000000117
20
-156.512
42
-0.41421356237307422
0
LWPOLYLINE
5
255
100
AcDbEntity
8
0
100
AcDbPolyline
90
8
70
1
43
0.0
10
-70.793750000000102
20
-164.44999999999999
10
-57.793750000000102
20
-164.44999999999996
42
-0.41421356237307422
10
-57.293750000000109
20
-164.95000000000002
10
-57.293750000000102
20
-177.94999999999999
42
-0.41421356237313667
10
-57.793750000000102
20
-178.44999999999999
10
-70.793750000000102
20
-178.45000000000002
42
-0.41421356237307422
10
-71.293750000000102
20
-177.94999999999999
10
-71.293750000000102
20
-164.95000000000002
42
-0.41421356237313145
0
LWPOLYLINE
5
256
100
AcDbEntity
8
0
100
AcDbPolyline
90
8
70
1
43
0.0
10
-99.868750000000119
20
-186.38800000000001
42
0.41421356237313667
10
-99.368750000000119
20
-186.88800000000001
10
-85.368750000000105
20
-186.88800000000001
42
0.41421356237309509
10
-84.868750000000105
20
-186.38800000000001
10
-84.868750000000105
20
-180.38800000000003
42
0.41421356237308465
10
-85.368750000000105
20
-179.88800000000001
10
-99.368750000000119
20
-179.88800000000001
42
0.41421356237310542
10
-99.868750000000119
20
-180.38800000000003
0
LWPOLYLINE
5
257
100
AcDbEntity
8
0
100
AcDbPolyline
90
8
70
1
43
0.0
10
-46.981250000000109
20
-164.44999999999999
42
0.41421356237313145
10
-47.481250000000102
20
-164.95000000000002
10
-47.481250000000102
20
-177.94999999999999
42
0.41421356237307422
10
-46.981250000000109
20
-178.44999999999999
10
-33.981250000000102
20
-178.44999999999999
42
0.414213562373134
10
-33.481250000000102
20
-177.94999999999999
10
-33.481250000000109
20
-164.95000000000002
42
0.41421356237308204
10
-33.981250000000102
20
-164.44999999999999
0
LWPOLYLINE
5
258
100
AcDbEntity
8
0
100
AcDbPolyline
90
8
70
1
43
0.0
10
-109.68125000000001
20
-164.95000000000002
10
-109.68125000000001
20
-177.94999999999999
42
-0.41421356237313667
10
-110.18125000000001
20
-178.44999999999999
10
-123.18125000000002
20
-178.44999999999999
42
-0.41421356237313667
10
-123.68125000000003
20
-177.94999999999999
10
-123.68125000000003
20
-164.95000000000002
42
-0.41421356237313667
10
-123.18125000000002
20
-164.44999999999999
10
-110.18125000000001
20
-164.44999999999999
42
-0.41421356237313667
0
LWPOLYLINE
5
259
100
AcDbEntity
8
0
100
AcDbPolyline
90
8
70
1
43
0.0
10
-85.368750000000105
20
-163.012
42
0.41421356237309509
10
-84.868750000000105
20
-162.512
10
-84.868750000000105
20
-156.512
42
0.4142135623730534
10
-85.368750000000105
20
-156.012
10
-99.368750000000119
20
-156.012
42
0.41421356237307422
10
-99.868750000000119
20
-156.512
10
-99.868750000000119
20
-162.512
42
0.41421356237313667
10
-99.368750000000119
20
-163.012
0
LWPOLYLINE
5
260
100
AcDbEntity
8
0
100
AcDbPolyline
90
8
70
1
43
0.0
10
-109.68125000000001
20
-156.512
10
-109.68125000000001
20
-162.512
42
-0.41421356237313667
10
-110.18125000000001
20
-163.012
10
-124.18125000000002
20
-163.012
42
-0.41421356237309509
10
-124.68125000000002
20
-162.512
10
-124.68125000000002
20
-156.512
42
-0.4142135623730534
10
-124.18125000000002
20
-156.012
10
-110.18125000000001
20
-156.012
42
-0.41421356237307422
0
LWPOLYLINE
5
261
100
AcDbEntity
8
0
100
AcDbPolyline
90
8
70
1
43
0.0
10
-57.793750000000102
20
-186.88800000000001
10
-71.793750000000102
20
-186.88800000000003
42
-0.41421356237307422
10
-72.293750000000102
20
-186.38800000000001
10
-72.293750000000102
20
-180.38800000000003
42
-0.41421356237312629
10
-71.793750000000102
20
-179.88800000000001
10
-57.793750000000102
20
-179.88800000000003
42
-0.4142135623730222
10
-57.293750000000109
20
-180.38800000000003
10
-57.293750000000102
20
-186.38800000000001
42
-0.41421356237313667
0
LWPOLYLINE
5
262
100
AcDbEntity
8
0
100
AcDbPolyline
90
8
70
1
43
0.0
10
-86.368750000000105
20
-178.44999999999999
10
-99.368750000000119
20
-178.44999999999999
42
-0.41421356237313667
10
-99.868750000000119
20
-177.94999999999999
10
-99.868750000000119
20
-164.95000000000002
42
-0.41421356237313667
10
-99.368750000000119
20
-164.44999999999999
10
-86.368750000000105
20
-164.44999999999999
42
-0.41421356237313667
10
-85.868750000000091
20
-164.95000000000002
10
-85.868750000000091
20
-177.94999999999999
42
-0.41421356237313667
0
LWPOLYLINE
5
263
100
AcDbEntity
8
0
100
AcDbPolyline
90
8
70
1
43
0.0
10
-204.14375000000004
20
-179.88800000000001
42
0.41421356237313667
10
-204.64375000000004
20
-180.38800000000003
10
-204.64375000000004
20
-186.38800000000001
42
0.4142135623731783
10
-204.14375000000004
20
-186.88800000000001
10
-190.14375000000001
20
-186.88800000000001
42
0.41421356237313667
10
-189.64375000000001
20
-186.38800000000001
10
-189.64375000000001
20
-180.38800000000003
42
0.41421356237313667
10
-190.14375000000001
20
-179.88800000000001
0
LWPOLYLINE
5
264
100
AcDbEntity
8
0
100
AcDbPolyline
90
8
70
1
43
0.0
10
-177.06874999999999
20
-186.38800000000001
10
-177.06874999999999
20
-180.38800000000003
42
-0.41421356237313667
10
-176.56874999999999
20
-179.88800000000001
10
-162.56875000000002
20
-179.88800000000001
42
-0.41421356237313667
10
-162.06874999999999
20
-180.38800000000003
10
-162.06874999999999
20
-186.38800000000001
42
-0.41421356237313667
10
-162.56875000000002
20
-186.88800000000001
10
-176.56874999999999
20
-186.88800000000001
42
-0.41421356237313667
0
LWPOLYLINE
5
265
100
AcDbEntity
8
0
100
AcDbPolyline
90
8
70
1
43
0.0
10
-190.64375000000001
20
-164.95000000000002
10
-190.64375000000001
20
-177.94999999999999
42
-0.41421356237313667
10
-191.14375000000001
20
-178.44999999999999
10
-204.14375000000004
20
-178.44999999999999
42
-0.4142135623731783
10
-204.64375000000004
20
-177.94999999999999
10
-204.64375000000004
20
-164.95000000000002
42
-0.4142135623731783
10
-204.14375000000004
20
-164.44999999999999
10
-191.14375000000001
20
-164.44999999999999
42
-0.41421356237313667
0
LWPOLYLINE
5
266
100
AcDbEntity
8
0
100
AcDbPolyline
90
8
70
1
43
0.0
10
-189.64375000000001
20
-156.512
42
0.41421356237308465
10
-190.14375000000001
20
-156.01200000000003
10
-204.14375000000004
20
-156.012
42
0.41421356237309509
10
-204.64375000000004
20
-156.512
10
-204.64375000000004
20
-162.512
42
0.4142135623731783
10
-204.14375000000004
20
-163.012
10
-190.14375000000001
20
-163.012
42
0.41421356237313667
10
-189.64375000000001
20
-162.512
0
LWPOLYLINE
5
267
100
AcDbEntity
8
0
100
AcDbPolyline
90
8
70
1
43
0.0
10
-175.56875000000002
20
-164.44999999999999
42
0.4142135623731783
10
-176.06875000000002
20
-164.95000000000002
10
-176.06875000000002
20
-177.94999999999999
42
0.4142135623731783
10
-175.56875000000002
20
-178.44999999999999
10
-162.56875000000002
20
-178.44999999999999
42
0.41421356237313667
10
-162.06874999999999
20
-177.94999999999999
10
-162.06874999999999
20
-164.95000000000002
42
0.41421356237313667
10
-162.56875000000002
20
-164.44999999999999
0
LWPOLYLINE
5
268
100
AcDbEntity
8
0
100
AcDbPolyline
90
8
70
1
43
0.0
10
-162.06874999999999
20
-156.512
10
-162.06874999999999
20
-162.512
42
-0.41421356237313667
10
-162.56875000000002
20
-163.012
10
-176.56874999999999
20
-163.012
42
-0.41421356237313667
10
-177.06874999999999
20
-162.512
10
-177.06875000000002
20
-156.512
42
-0.41421356237308465
10
-176.56874999999999
20
-156.012
10
-162.56875000000002
20
-156.01200000000003
42
-0.41421356237308465
0
LWPOLYLINE
5
269
100
AcDbEntity
8
0
100
AcDbPolyline
90
8
70
1
43
0.0
10
-137.25625000000002
20
-180.38800000000003
10
-137.25624999999999
20
-186.38800000000001
42
-0.41421356237309509
10
-137.75624999999999
20
-186.88800000000001
10
-151.75624999999999
20
-186.88800000000001
42
-0.41421356237313667
10
-152.25625000000002
20
-186.38800000000001
10
-152.25625000000002
20
-180.38800000000003
42
-0.41421356237310542
10
-151.75624999999999
20
-179.88800000000001
10
-137.75624999999999
20
-179.88800000000001
42
-0.41421356237308465
0
LWPOLYLINE
5
270
100
AcDbEntity
8
0
100
AcDbPolyline
90
8
70
1
43
0.0
10
-137.75624999999999
20
-163.012
10
-151.75624999999999
20
-163.012
42
-0.41421356237313667
10
-152.25625000000002
20
-162.512
10
-152.25625000000002
20
-156.512
42
-0.41421356237307422
10
-151.75624999999999
20
-156.012
10
-137.75624999999999
20
-156.012
42
-0.4142135623730534
10
-137.25624999999999
20
-156.512
10
-137.25624999999999
20
-162.512
42
-0.41421356237309509
0
LWPOLYLINE
5
271
100
AcDbEntity
8
0
100
AcDbPolyline
90
8
70
1
43
0.0
10
-214.45625000000004
20
-164.95000000000002
10
-214.45625000000004
20
-177.94999999999999
42
-0.41421356237313667
10
-214.95625000000004
20
-178.44999999999999
10
-227.95625000000001
20
-178.44999999999999
42
-0.41421356237313667
10
-228.45625000000001
20
-177.94999999999999
10
-228.45625000000001
20
-164.95000000000002
42
-0.41421356237313667
10
-227.95625000000001
20
-164.44999999999999
10
-214.95625000000004
20
-164.44999999999999
42
-0.41421356237313667
0
LWPOLYLINE
5
272
100
AcDbEntity
8
0
100
AcDbPolyline
90
8
70
1
43
0.0
10
-214.45625000000004
20
-156.512
10
-214.45625000000004
20
-162.512
42
-0.41421356237313667
10
-214.95625000000004
20
-163.012
10
-228.95625000000001
20
-163.012
42
-0.41421356237313667
10
-229.45625000000004
20
-162.512
10
-229.45625000000007
20
-156.512
42
-0.41421356237308465
10
-228.95625000000001
20
-156.012
10
-214.95625000000004
20
-156.01200000000003
42
-0.41421356237308465
0
LWPOLYLINE
5
273
100
AcDbEntity
8
0
100
AcDbPolyline
90
8
70
1
43
0.0
10
-229.45625000000004
20
-186.38800000000001
42
0.41421356237313667
10
-228.95625000000001
20
-186.88800000000001
10
-214.95625000000004
20
-186.88800000000001
42
0.41421356237313667
10
-214.45625000000004
20
-186.38800000000001
10
-214.45625000000004
20
-180.38800000000003
42
0.41421356237313667
10
-214.95625000000004
20
-179.88800000000001
10
-228.95625000000001
20
-179.88800000000001
42
0.41421356237313667
10
-229.45625000000004
20
-180.38800000000003
0
LWPOLYLINE
5
274
100
AcDbEntity
8
0
100
AcDbPolyline
90
8
70
1
43
0.0
10
-5.4062500000000604
20
-205.87450000000004
42
0.41421356237313345
10
-4.9062500000000586
20
-205.37450000000004
10
-4.9062500000000604
20
-199.37450000000001
42
0.41421356237307744
10
-5.4062500000000613
20
-198.87450000000001
10
-19.406250000000099
20
-198.87450000000001
42
0.414213562373134
10
-19.906250000000099
20
-199.37450000000001
10
-19.906250000000099
20
-205.37450000000004
42
0.41421356237307549
10
-19.406250000000099
20
-205.87450000000004
0
LWPOLYLINE
5
275
100
AcDbEntity
8
0
100
AcDbPolyline
90
8
70
1
43
0.0
10
-18.406250000000099
20
-207.3125
42
0.41421356237312362
10
-18.906250000000085
20
-207.8125
10
-18.906250000000099
20
-220.8125
42
0.41421356237307549
10
-18.406250000000099
20
-221.3125
10
-5.4062500000000604
20
-221.3125
42
0.41421356237313345
10
-4.9062500000000604
20
-220.8125
10
-4.9062500000000604
20
-207.8125
42
0.41421356237302542
10
-5.4062500000000613
20
-207.31250000000003
0
LWPOLYLINE
5
276
100
AcDbEntity
8
0
100
AcDbPolyline
90
8
70
1
43
0.0
10
-76.843750000000099
20
-221.3125
10
-89.843750000000114
20
-221.3125
42
-0.41421356237313667
10
-90.343750000000114
20
-220.8125
10
-90.343750000000128
20
-207.8125
42
-0.41421356237310542
10
-89.843750000000114
20
-207.3125
10
-76.843750000000099
20
-207.31250000000003
42
-0.4142135623730222
10
-76.343750000000099
20
-207.8125
10
-76.343750000000085
20
-220.8125
42
-0.41421356237313667
0
LWPOLYLINE
5
277
100
AcDbEntity
8
0
100
AcDbPolyline
90
8
70
1
43
0.0
10
-89.843750000000114
20
-222.75049999999999
10
-75.843750000000099
20
-222.75049999999996
42
-0.41421356237307422
10
-75.343750000000099
20
-223.25050000000002
10
-75.343750000000114
20
-229.25049999999999
42
-0.41421356237312629
10
-75.843750000000099
20
-229.75049999999999
10
-89.843750000000114
20
-229.75049999999996
42
-0.41421356237310542
10
-90.343750000000114
20
-229.25049999999999
10
-90.343750000000114
20
-223.25050000000002
42
-0.41421356237313667
0
LWPOLYLINE
5
278
100
AcDbEntity
8
0
100
AcDbPolyline
90
8
70
1
43
0.0
10
-48.268750000000097
20
-229.75049999999999
10
-62.268750000000104
20
-229.75049999999996
42
-0.4142135623730222
10
-62.768750000000104
20
-229.25049999999999
10
-62.768750000000111
20
-223.25050000000002
42
-0.41421356237313667
10
-62.268750000000104
20
-222.75049999999999
10
-48.268750000000097
20
-222.75049999999996
42
-0.41421356237307422
10
-47.768750000000104
20
-223.25050000000002
10
-47.768750000000111
20
-229.25049999999999
42
-0.41421356237312629
0
LWPOLYLINE
5
279
100
AcDbEntity
8
0
100
AcDbPolyline
90
8
70
1
43
0.0
10
-75.843750000000099
20
-205.87450000000004
10
-89.843750000000114
20
-205.87450000000004
42
-0.41421356237313667
10
-90.343750000000114
20
-205.37450000000004
10
-90.343750000000114
20
-199.37450000000001
42
-0.41421356237313667
10
-89.843750000000114
20
-198.87450000000001
10
-75.843750000000099
20
-198.87449999999998
42
-0.41421356237307422
10
-75.343750000000099
20
-199.37450000000001
10
-75.343750000000099
20
-205.37450000000004
42
-0.41421356237313667
0
LWPOLYLINE
5
280
100
AcDbEntity
8
0
100
AcDbPolyline
90
8
70
1
43
0.0
10
-100.15625
20
-207.8125
42
0.41421356237310542
10
-100.65625
20
-207.31250000000003
10
-113.65625000000001
20
-207.3125
42
0.41421356237310542
10
-114.15625
20
-207.8125
10
-114.15625000000003
20
-220.8125
42
0.41421356237313667
10
-113.65625000000001
20
-221.3125
10
-100.65625
20
-221.3125
42
0.41421356237313667
10
-100.15625
20
-220.8125
0
LWPOLYLINE
5
281
100
AcDbEntity
8
0
100
AcDbPolyline
90
8
70
1
43
0.0
10
-61.268750000000097
20
-207.31250000000003
10
-48.268750000000097
20
-207.31250000000003
42
-0.4142135623730222
10
-47.768750000000104
20
-207.8125
10
-47.768750000000097
20
-220.8125
42
-0.41421356237313667
10
-48.268750000000097
20
-221.3125
10
-61.268750000000097
20
-221.31250000000006
42
-0.41421356237307422
10
-61.768750000000097
20
-220.8125
10
-61.76875000000004
20
-207.8125
42
-0.41421356237312101
0
LWPOLYLINE
5
282
100
AcDbEntity
8
0
100
AcDbPolyline
90
8
70
1
43
0.0
10
-19.906250000000099
20
-229.25049999999999
10
-19.906250000000103
20
-223.25050000000002
42
-0.414213562373134
10
-19.406250000000099
20
-222.75049999999999
10
-5.4062500000000613
20
-222.75049999999996
42
-0.41421356237307744
10
-4.9062500000000604
20
-223.25050000000002
10
-4.9062500000000409
20
-229.25049999999999
42
-0.4142135623731022
10
-5.4062500000000604
20
-229.75049999999999
10
-19.406250000000099
20
-229.75049999999996
42
-0.41421356237302348
0
LWPOLYLINE
5
283
100
AcDbEntity
8
0
100
AcDbPolyline
90
8
70
1
43
0.0
10
-48.268750000000097
20
-205.87450000000004
10
-62.268750000000104
20
-205.87450000000007
42
-0.41421356237307422
10
-62.768750000000104
20
-205.37450000000004
10
-62.768750000000111
20
-199.37450000000001
42
-0.41421356237313667
10
-62.268750000000104
20
-198.87450000000001
10
-48.268750000000097
20
-198.87449999999998
42
-0.41421356237307422
10
-47.768750000000104
20
-199.37450000000001
10
-47.768750000000097
20
-205.37450000000004
42
-0.41421356237313667
0
LWPOLYLINE
5
284
100
AcDbEntity
8
0
100
AcDbPolyline
90
8
70
1
43
0.0
10
-142.23124999999999
20
-198.87450000000001
42
0.41421356237313667
10
-142.73124999999999
20
-199.37450000000001
10
-142.73124999999999
20
-205.37450000000004
42
0.41421356237313667
10
-142.23124999999999
20
-205.87450000000004
10
-128.23124999999999
20
-205.87450000000004
42
0.41421356237309509
10
-127.73125
20
-205.37450000000004
10
-127.73124999999999
20
-199.37450000000001
42
0.41421356237309509
10
-128.23124999999999
20
-198.87450000000001
0
LWPOLYLINE
5
285
100
AcDbEntity
8
0
100
AcDbPolyline
90
8
70
1
43
0.0
10
-142.73124999999999
20
-220.8125
10
-142.73125000000002
20
-207.8125
42
-0.41421356237310542
10
-142.23124999999999
20
-207.3125
10
-129.23124999999999
20
-207.31250000000003
42
-0.41421356237310542
10
-128.73124999999999
20
-207.8125
10
-128.73124999999999
20
-220.8125
42
-0.41421356237313667
10
-129.23124999999999
20
-221.3125
10
-142.23124999999999
20
-221.3125
42
-0.41421356237313667
0
LWPOLYLINE
5
286
100
AcDbEntity
8
0
100
AcDbPolyline
90
8
70
1
43
0.0
10
-171.80625000000003
20
-222.75049999999999
10
-157.80625000000001
20
-222.75049999999999
42
-0.41421356237313667
10
-157.30625000000001
20
-223.25050000000002
10
-157.30624999999998
20
-229.25049999999999
42
-0.41421356237310542
10
-157.80625000000001
20
-229.75049999999999
10
-171.80625000000003
20
-229.75049999999999
42
-0.41421356237313667
10
-172.30625000000003
20
-229.25049999999999
10
-172.30625000000003
20
-223.25050000000002
42
-0.4142135623731783
0
LWPOLYLINE
5
287
100
AcDbEntity
8
0
100
AcDbPolyline
90
8
70
1
43
0.0
10
-100.15625
20
-223.25050000000002
42
0.41421356237313667
10
-100.65625
20
-222.75049999999999
10
-114.65625000000001
20
-222.75049999999999
42
0.41421356237309509
10
-115.15625
20
-223.25050000000002
10
-115.15625000000001
20
-229.25049999999999
42
0.41421356237308465
10
-114.65625000000001
20
-229.75049999999999
10
-100.65625
20
-229.75049999999999
42
0.41421356237310542
10
-100.15625
20
-229.25049999999999
0
LWPOLYLINE
5
288
100
AcDbEntity
8
0
100
AcDbPolyline
90
8
70
1
43
0.0
10
-100.65625
20
-205.87450000000004
10
-114.65625000000001
20
-205.87450000000004
42
-0.41421356237309509
10
-115.15625000000001
20
-205.37450000000004
10
-115.15625000000001
20
-199.37450000000001
42
-0.41421356237309509
10
-114.65625000000001
20
-198.87450000000001
10
-100.65625
20
-198.87450000000001
42
-0.41421356237313667
10
-100.15625
20
-199.37450000000001
10
-100.15625
20
-205.37450000000004
42
-0.41421356237313667
0
LWPOLYLINE
5
289
100
AcDbEntity
8
0
100
AcDbPolyline
90
8
70
1
43
0.0
10
-142.73124999999999
20
-229.25049999999999
10
-142.73124999999999
20
-223.25050000000002
42
-0.41421356237313667
10
-142.23124999999999
20
-222.75049999999999
10
-128.23124999999999
20
-222.75049999999999
42
-0.41421356237309509
10
-127.73124999999999
20
-223.25050000000002
10
-127.73125
20
-229.25049999999999
42
-0.41421356237308465
10
-128.23124999999999
20
-229.75049999999999
10
-142.23124999999999
20
-229.75049999999996
42
-0.41421356237310542
0
LWPOLYLINE
5
290
100
AcDbEntity
8
0
100
AcDbPolyline
90
8
70
1
43
0.0
10
-157.80625000000001
20
-221.3125
42
0.41421356237313667
10
-157.30625000000001
20
-220.8125
10
-157.30625000000001
20
-207.8125
42
0.41421356237310542
10
-157.80625000000001
20
-207.31250000000003
10
-170.80625000000001
20
-207.3125
42
0.41421356237313667
10
-171.30625000000003
20
-207.8125
10
-171.30625000000003
20
-220.8125
42
0.4142135623731783
10
-170.80625000000001
20
-221.3125
0
LWPOLYLINE
5
291
100
AcDbEntity
8
0
100
AcDbPolyline
90
8
70
1
43
0.0
10
-171.80625000000003
20
-198.87450000000001
42
0.4142135623731783
10
-172.30625000000003
20
-199.37450000000001
10
-172.30625000000003
20
-205.37450000000004
42
0.4142135623731783
10
-171.80625000000003
20
-205.87450000000004
10
-157.80625000000001
20
-205.87450000000004
42
0.41421356237313667
10
-157.30625000000001
20
-205.37450000000004
10
-157.30625000000001
20
-199.37450000000001
42
0.41421356237313667
10
-157.80625000000001
20
-198.87450000000001
0
LWPOLYLINE
5
292
100
AcDbEntity
8
0
100
AcDbPolyline
90
8
70
1
43
0.0
10
-210.19374999999999
20
-229.75049999999999
42
0.41421356237313667
10
-209.69374999999999
20
-229.25049999999999
10
-209.69374999999999
20
-223.25050000000002
42
0.4142135623731783
10
-210.19374999999999
20
-222.75049999999999
10
-224.19375000000002
20
-222.75049999999999
42
0.41421356237313667
10
-224.69374999999999
20
-223.25050000000002
10
-224.69375000000002
20
-229.25049999999999
42
0.41421356237313667
10
-224.19375000000002
20
-229.75049999999999
0
LWPOLYLINE
5
293
100
AcDbEntity
8
0
100
AcDbPolyline
90
8
70
1
43
0.0
10
-199.38124999999999
20
-207.31250000000003
10
-186.38124999999999
20
-207.3125
42
-0.41421356237313667
10
-185.88124999999997
20
-207.8125
10
-185.88124999999997
20
-220.8125
42
-0.4142135623731783
10
-186.38124999999999
20
-221.3125
10
-199.38124999999999
20
-221.3125
42
-0.41421356237313667
10
-199.88124999999999
20
-220.8125
10
-199.88124999999997
20
-207.8125
42
-0.41421356237313667
0
LWPOLYLINE
5
294
100
AcDbEntity
8
0
100
AcDbPolyline
90
8
70
1
43
0.0
10
-184.88124999999999
20
-199.37450000000001
42
0.41421356237313667
10
-185.38125000000002
20
-198.87450000000001
10
-199.38124999999999
20
-198.87450000000001
42
0.41421356237313667
10
-199.88124999999999
20
-199.37450000000001
10
-199.88124999999999
20
-205.37450000000004
42
0.41421356237313667
10
-199.38124999999999
20
-205.87450000000004
10
-185.38125000000002
20
-205.87450000000004
42
0.41421356237313667
10
-184.88124999999999
20
-205.37450000000004
0
LWPOLYLINE
5
295
100
AcDbEntity
8
0
100
AcDbPolyline
90
8
70
1
43
0.0
10
-210.19374999999999
20
-221.3125
10
-223.19375000000002
20
-221.3125
42
-0.41421356237313667
10
-223.69375000000002
20
-220.8125
10
-223.69375000000002
20
-207.8125
42
-0.41421356237313667
10
-223.19375000000002
20
-207.3125
10
-210.19374999999999
20
-207.3125
42
-0.41421356237313667
10
-209.69374999999999
20
-207.8125
10
-209.69374999999999
20
-220.8125
42
-0.4142135623731783
0
LWPOLYLINE
5
296
100
AcDbEntity
8
0
100
AcDbPolyline
90
8
70
1
43
0.0
10
-224.69375000000002
20
-205.37450000000004
42
0.41421356237313667
10
-224.19375000000002
20
-205.87450000000004
10
-210.19374999999999
20
-205.87450000000004
42
0.4142135623731783
10
-209.69374999999999
20
-205.37450000000004
10
-209.69374999999999
20
-199.37450000000001
42
0.4142135623731783
10
-210.19374999999999
20
-198.87450000000001
10
-224.19375000000002
20
-198.87450000000001
42
0.41421356237313667
10
-224.69374999999999
20
-199.37450000000001
0
LWPOLYLINE
5
297
100
AcDbEntity
8
0
100
AcDbPolyline
90
8
70
1
43
0.0
10
-184.88124999999999
20
-223.25050000000002
42
0.41421356237313667
10
-185.38125000000002
20
-222.75049999999999
10
-199.38124999999999
20
-222.75049999999999
42
0.41421356237313667
10
-199.88124999999999
20
-223.25050000000002
10
-199.88124999999999
20
-229.25049999999999
42
0.41421356237313667
10
-199.38124999999999
20
-229.75049999999999
10
-185.38125000000002
20
-229.75049999999999
42
0.41421356237313667
10
-184.88124999999999
20
-229.25049999999999
0
LWPOLYLINE
5
298
100
AcDbEntity
8
0
100
AcDbPolyline
90
8
70
1
43
0.0
10
-228.45625000000001
20
-25.549999999999905
42
0.41421356237310281
10
-227.95625000000001
20
-26.049999999999926
10
-214.95625000000004
20
-26.049999999999901
42
0.41421356237305079
10
-214.45625000000004
20
-25.549999999999905
10
-214.45625000000004
20
-12.549999999999901
42
0.41421356237312362
10
-214.95625000000004
20
-12.049999999999901
10
-227.95625000000001
20
-12.049999999999901
42
0.41421356237302348
10
-228.45625000000001
20
-12.549999999999901
0
LWPOLYLINE
5
299
100
AcDbEntity
8
0
100
AcDbPolyline
90
8
70
1
43
0.0
10
-204.14375000000004
20
-3.6119999999999104
10
-190.14375000000001
20
-3.6119999999998926
42
-0.41421356237310153
10
-189.64375000000001
20
-4.1119999999999104
10
-189.64375000000004
20
-10.111999999999901
42
-0.41421356237302481
10
-190.14375000000001
20
-10.611999999999902
10
-204.14375000000004
20
-10.611999999999902
42
-0.41421356237313273
10
-204.64375000000004
20
-10.111999999999901
10
-204.64375000000007
20
-4.1119999999999113
42
-0.41421356237307783
0
LWPOLYLINE
5
300
100
AcDbEntity
8
0
100
AcDbPolyline
90
8
70
1
43
0.0
10
-190.14375000000001
20
-34.4879999999999
10
-204.14375000000004
20
-34.487999999999907
42
-0.414213562373134
10
-204.64375000000004
20
-33.9879999999999
10
-204.64375000000007
20
-27.9879999999999
42
-0.41421356237307683
10
-204.14375000000004
20
-27.487999999999904
10
-190.14375000000001
20
-27.487999999999886
42
-0.4142135623731002
10
-189.64375000000001
20
-27.9879999999999
10
-189.64375000000001
20
-33.9879999999999
42
-0.41421356237305079
0
LWPOLYLINE
5
301
100
AcDbEntity
8
0
100
AcDbPolyline
90
8
70
1
43
0.0
10
-228.95625000000001
20
-3.6119999999999104
10
-214.95625000000004
20
-3.6119999999998926
42
-0.41421356237310153
10
-214.45625000000004
20
-4.1119999999999104
10
-214.45625000000007
20
-10.111999999999901
42
-0.41421356237302481
10
-214.95625000000004
20
-10.611999999999902
10
-228.95625000000001
20
-10.611999999999885
42
-0.41421356237312235
10
-229.45625000000004
20
-10.111999999999901
10
-229.45625000000001
20
-4.1119999999999113
42
-0.41421356237302581
0
LWPOLYLINE
5
302
100
AcDbEntity
8
0
100
AcDbPolyline
90
8
70
1
43
0.0
10
-229.45625000000004
20
-33.9879999999999
10
-229.45625000000004
20
-27.9879999999999
42
-0.41421356237304557
10
-228.95625000000001
20
-27.487999999999904
10
-214.95625000000004
20
-27.487999999999886
42
-0.4142135623731002
10
-214.45625000000004
20
-27.9879999999999
10
-214.45625000000004
20
-33.9879999999999
42
-0.41421356237305079
10
-214.95625000000004
20
-34.4879999999999
10
-228.95625000000001
20
-34.487999999999921
42
-0.41421356237310281
0
LWPOLYLINE
5
303
100
AcDbEntity
8
0
100
AcDbPolyline
90
8
70
1
43
0.0
10
-162.56875000000002
20
-26.049999999999901
10
-175.56875000000002
20
-26.049999999999905
42
-0.414213562373134
10
-176.06875000000002
20
-25.549999999999905
10
-176.06875000000005
20
-12.549999999999901
42
-0.41421356237307549
10
-175.56875000000002
20
-12.049999999999901
10
-162.56875000000002
20
-12.049999999999915
42
-0.41421356237312362
10
-162.06874999999999
20
-12.549999999999901
10
-162.06874999999999
20
-25.549999999999905
42
-0.41421356237305079
0
LWPOLYLINE
5
304
100
AcDbEntity
8
0
100
AcDbPolyline
90
8
70
1
43
0.0
10
-4.9062500000000604
20
-142.28800000000001
10
-4.9062500000000542
20
-148.28800000000001
42
-0.41421356237309437
10
-5.4062500000000604
20
-148.78800000000001
10
-19.406250000000099
20
-148.78800000000001
42
-0.41421356237309243
10
-19.906250000000099
20
-148.28800000000001
10
-19.90625000000011
20
-142.28800000000001
42
-0.41421356237307549
10
-19.406250000000099
20
-141.78800000000001
10
-5.4062500000000613
20
-141.78800000000001
42
-0.41421356237307483
0
LWPOLYLINE
5
305
100
AcDbEntity
8
0
100
AcDbPolyline
90
8
70
1
43
0.0
10
-33.981250000000102
20
-140.34999999999999
42
0.41421356237309509
10
-33.481250000000095
20
-139.84999999999999
10
-33.481250000000109
20
-126.85000000000001
42
0.41421356237308465
10
-33.981250000000102
20
-126.34999999999999
10
-46.981250000000109
20
-126.34999999999999
42
0.41421356237307422
10
-47.481250000000102
20
-126.85000000000001
10
-47.481250000000102
20
-139.84999999999999
42
0.41421356237311585
10
-46.981250000000109
20
-140.34999999999999
0
LWPOLYLINE
5
306
100
AcDbEntity
8
0
100
AcDbPolyline
90
8
70
1
43
0.0
10
-47.481250000000102
20
-124.41200000000002
42
0.41421356237311585
10
-46.981250000000109
20
-124.91200000000003
10
-32.981250000000102
20
-124.91200000000003
42
0.41421356237309243
10
-32.481250000000102
20
-124.41200000000002
10
-32.481250000000102
20
-118.41200000000001
42
0.41421356237311585
10
-32.981250000000102
20
-117.91200000000002
10
-46.981250000000109
20
-117.91200000000001
42
0.41421356237309509
10
-47.481250000000102
20
-118.41200000000001
0
LWPOLYLINE
5
307
100
AcDbEntity
8
0
100
AcDbPolyline
90
8
70
1
43
0.0
10
-4.9062500000000604
20
-118.41200000000001
10
-4.9062500000000542
20
-124.41200000000002
42
-0.41421356237309437
10
-5.4062500000000604
20
-124.91200000000003
10
-19.406250000000099
20
-124.91200000000003
42
-0.41421356237309243
10
-19.906250000000099
20
-124.41200000000002
10
-19.90625000000011
20
-118.41200000000001
42
-0.41421356237309637
10
-19.406250000000099
20
-117.91200000000001
10
-5.4062500000000613
20
-117.91199999999998
42
-0.41421356237310608
0
LWPOLYLINE
5
308
100
AcDbEntity
8
0
100
AcDbPolyline
90
8
70
1
43
0.0
10
-46.981250000000109
20
-141.78800000000001
42
0.41421356237307422
10
-47.481250000000117
20
-142.28800000000001
10
-47.481250000000102
20
-148.28800000000001
42
0.41421356237311585
10
-46.981250000000109
20
-148.78800000000001
10
-32.981250000000102
20
-148.78800000000001
42
0.41421356237309243
10
-32.481250000000102
20
-148.28800000000001
10
-32.481250000000102
20
-142.28800000000001
42
0.4142135623731002
10
-32.981250000000102
20
-141.78800000000001
0
LWPOLYLINE
5
309
100
AcDbEntity
8
0
100
AcDbPolyline
90
8
70
1
43
0.0
10
-5.4062500000000604
20
-140.34999999999999
10
-18.406250000000099
20
-140.34999999999999
42
-0.41421356237309243
10
-18.906250000000099
20
-139.84999999999999
10
-18.90625000000011
20
-126.85000000000001
42
-0.41421356237307549
10
-18.406250000000099
20
-126.34999999999999
10
-5.4062500000000613
20
-126.34999999999999
42
-0.41421356237307483
10
-4.9062500000000604
20
-126.85000000000001
10
-4.9062500000000542
20
-139.84999999999999
42
-0.41421356237309437
0
LWPOLYLINE
5
310
100
AcDbEntity
8
0
100
AcDbPolyline
90
8
70
1
43
0.0
10
-124.18125000000002
20
-117.91200000000002
10
-110.18125000000001
20
-117.91200000000001
42
-0.41421356237309509
10
-109.68125000000001
20
-118.41200000000001
10
-109.68125000000001
20
-124.41200000000002
42
-0.41421356237309509
10
-110.18125000000001
20
-124.91200000000003
10
-124.18125000000002
20
-124.91200000000003
42
-0.41421356237307422
10
-124.68125000000002
20
-124.41200000000002
10
-124.68125000000001
20
-118.41200000000001
42
-0.41421356237307422
0
LWPOLYLINE
5
311
100
AcDbEntity
8
0
100
AcDbPolyline
90
8
70
1
43
0.0
10
-109.68125000000001
20
-142.28800000000001
10
-109.68125000000001
20
-148.28800000000001
42
-0.41421356237309509
10
-110.18125000000001
20
-148.78800000000001
10
-124.18125000000002
20
-148.78800000000001
42
-0.41421356237307422
10
-124.68125000000002
20
-148.28800000000001
10
-124.68125000000002
20
-142.28800000000001
42
-0.4142135623730534
10
-124.18125000000002
20
-141.78800000000001
10
-110.18125000000001
20
-141.78800000000001
42
-0.41421356237307422
0
LWPOLYLINE
5
312
100
AcDbEntity
8
0
100
AcDbPolyline
90
8
70
1
43
0.0
10
-99.868750000000119
20
-148.28800000000001
10
-99.868750000000119
20
-142.28800000000001
42
-0.41421356237307422
10
-99.368750000000119
20
-141.78800000000001
10
-85.368750000000105
20
-141.78800000000001
42
-0.4142135623730534
10
-84.868750000000105
20
-142.28800000000001
10
-84.868750000000105
20
-148.28800000000001
42
-0.41421356237307422
10
-85.368750000000105
20
-148.78800000000001
10
-99.368750000000119
20
-148.78800000000001
42
-0.41421356237309509
0
LWPOLYLINE
5
313
100
AcDbEntity
8
0
100
AcDbPolyline
90
8
70
1
43
0.0
10
-85.368750000000105
20
-124.91200000000001
10
-99.368750000000119
20
-124.91200000000003
42
-0.41421356237309509
10
-99.868750000000119
20
-124.41200000000002
10
-99.868750000000119
20
-118.41200000000001
42
-0.41421356237309509
10
-99.368750000000119
20
-117.91200000000001
10
-85.368750000000105
20
-117.91200000000001
42
-0.41421356237307422
10
-84.868750000000105
20
-118.41200000000001
10
-84.868750000000119
20
-124.41200000000002
42
-0.41421356237307422
0
LWPOLYLINE
5
314
100
AcDbEntity
8
0
100
AcDbPolyline
90
8
70
1
43
0.0
10
-152.25625000000002
20
-139.84999999999999
10
-152.25625000000002
20
-126.85000000000001
42
-0.41421356237307422
10
-151.75624999999999
20
-126.34999999999999
10
-138.75624999999999
20
-126.34999999999999
42
-0.41421356237307422
10
-138.25624999999999
20
-126.85000000000001
10
-138.25624999999999
20
-139.84999999999999
42
-0.41421356237309509
10
-138.75624999999999
20
-140.34999999999999
10
-151.75624999999999
20
-140.34999999999999
42
-0.41421356237309509
0
LWPOLYLINE
5
315
100
AcDbEntity
8
0
100
AcDbPolyline
90
8
70
1
43
0.0
10
-72.293750000000102
20
-124.41200000000002
10
-72.293750000000131
20
-118.41200000000001
42
-0.4142135623731002
10
-71.793750000000102
20
-117.91200000000001
10
-57.793750000000102
20
-117.91200000000002
42
-0.41421356237312101
10
-57.293750000000109
20
-118.41200000000001
10
-57.293750000000088
20
-124.41200000000002
42
-0.4142135623731002
10
-57.793750000000102
20
-124.91200000000003
10
-71.793750000000102
20
-124.91200000000001
42
-0.41421356237312101
0
LWPOLYLINE
5
316
100
AcDbEntity
8
0
100
AcDbPolyline
90
8
70
1
43
0.0
10
-123.18125000000002
20
-126.34999999999999
42
0.41421356237307422
10
-123.68125000000003
20
-126.85000000000001
10
-123.68125000000003
20
-139.84999999999999
42
0.41421356237309509
10
-123.18125000000002
20
-140.34999999999999
10
-110.18125000000001
20
-140.34999999999999
42
0.41421356237309509
10
-109.68125000000001
20
-139.84999999999999
10
-109.68125000000001
20
-126.85000000000001
42
0.41421356237307422
10
-110.18125000000001
20
-126.34999999999999
0
LWPOLYLINE
5
317
100
AcDbEntity
8
0
100
AcDbPolyline
90
8
70
1
43
0.0
10
-71.293750000000102
20
-139.84999999999999
10
-71.293750000000117
20
-126.85000000000001
42
-0.41421356237307422
10
-70.793750000000102
20
-126.34999999999999
10
-57.793750000000102
20
-126.35000000000002
42
-0.41421356237310542
10
-57.293750000000109
20
-126.85000000000001
10
-57.293750000000088
20
-139.84999999999999
42
-0.4142135623731002
10
-57.793750000000102
20
-140.34999999999999
10
-70.793750000000102
20
-140.34999999999999
42
-0.41421356237311585
0
LWPOLYLINE
5
318
100
AcDbEntity
8
0
100
AcDbPolyline
90
8
70
1
43
0.0
10
-137.25625000000002
20
-118.41200000000001
10
-137.25624999999999
20
-124.41200000000002
42
-0.41421356237307422
10
-137.75624999999999
20
-124.91200000000003
10
-151.75624999999999
20
-124.91200000000003
42
-0.41421356237309509
10
-152.25625000000002
20
-124.41200000000002
10
-152.25625000000002
20
-118.41200000000001
42
-0.41421356237309509
10
-151.75624999999999
20
-117.91200000000001
10
-137.75624999999999
20
-117.91200000000002
42
-0.41421356237307422
0
LWPOLYLINE
5
319
100
AcDbEntity
8
0
100
AcDbPolyline
90
8
70
1
43
0.0
10
-99.868750000000119
20
-139.84999999999999
42
0.41421356237309509
10
-99.368750000000119
20
-140.34999999999999
10
-86.368750000000105
20
-140.34999999999999
42
0.41421356237309509
10
-85.868750000000119
20
-139.84999999999999
10
-85.868750000000091
20
-126.85000000000001
42
0.41421356237307422
10
-86.368750000000105
20
-126.34999999999999
10
-99.368750000000119
20
-126.34999999999999
42
0.41421356237307422
10
-99.868750000000119
20
-126.85000000000001
0
LWPOLYLINE
5
320
100
AcDbEntity
8
0
100
AcDbPolyline
90
8
70
1
43
0.0
10
-71.793750000000102
20
-141.78800000000001
42
0.414213562373069
10
-72.293750000000131
20
-142.28800000000001
10
-72.293750000000102
20
-148.28800000000001
42
0.41421356237312101
10
-71.793750000000102
20
-148.78800000000001
10
-57.793750000000102
20
-148.78800000000001
42
0.4142135623731002
10
-57.293750000000109
20
-148.28800000000001
10
-57.293750000000109
20
-142.28800000000001
42
0.41421356237310542
10
-57.793750000000102
20
-141.78800000000001
0
LWPOLYLINE
5
321
100
AcDbEntity
8
0
100
AcDbPolyline
90
8
70
1
43
0.0
10
-124.18125000000002
20
-27.487999999999904
10
-110.18125000000001
20
-27.4879999999999
42
-0.41421356237309243
10
-109.68125000000001
20
-27.9879999999999
10
-109.68125000000001
20
-33.9879999999999
42
-0.41421356237311063
10
-110.18125000000001
20
-34.4879999999999
10
-124.18125000000002
20
-34.487999999999907
42
-0.41421356237307422
10
-124.68125000000002
20
-33.9879999999999
10
-124.68125000000001
20
-27.9879999999999
42
-0.4142135623731002
0
LWPOLYLINE
5
322
100
AcDbEntity
8
0
100
AcDbPolyline
90
8
70
1
43
0.0
10
-162.06874999999999
20
-27.9879999999999
10
-162.06874999999999
20
-33.9879999999999
42
-0.41421356237305079
10
-162.56875000000002
20
-34.4879999999999
10
-176.56874999999999
20
-34.487999999999921
42
-0.41421356237310281
10
-177.06874999999999
20
-33.9879999999999
10
-177.06874999999999
20
-27.9879999999999
42
-0.41421356237304557
10
-176.56874999999999
20
-27.487999999999904
10
-162.56875000000002
20
-27.487999999999886
42
-0.4142135623731002
0
LWPOLYLINE
5
323
100
AcDbEntity
8
0
100
AcDbPolyline
90
8
70
1
43
0.0
10
-151.75624999999999
20
-12.049999999999901
10
-138.75624999999999
20
-12.049999999999892
42
-0.41421356237309637
10
-138.25624999999999
20
-12.549999999999901
10
-138.25624999999999
20
-25.549999999999905
42
-0.41421356237311063
10
-138.75624999999999
20
-26.049999999999901
10
-151.75624999999999
20
-26.049999999999912
42
-0.41421356237309509
10
-152.25625000000002
20
-25.549999999999905
10
-152.25625000000002
20
-12.549999999999901
42
-0.41421356237309243
0
LWPOLYLINE
5
324
100
AcDbEntity
8
0
100
AcDbPolyline
90
8
70
1
43
0.0
10
-204.14375000000004
20
-12.049999999999901
10
-191.14375000000001
20
-12.049999999999915
42
-0.41421356237312362
10
-190.64375000000001
20
-12.549999999999901
10
-190.64375000000001
20
-25.549999999999905
42
-0.41421356237305079
10
-191.14375000000001
20
-26.049999999999901
10
-204.14375000000004
20
-26.049999999999905
42
-0.414213562373134
10
-204.64375000000004
20
-25.549999999999905
10
-204.64375000000007
20
-12.549999999999901
42
-0.41421356237307549
0
LWPOLYLINE
5
325
100
AcDbEntity
8
0
100
AcDbPolyline
90
8
70
1
43
0.0
10
-137.25625000000002
20
-4.1119999999999104
10
-137.25624999999999
20
-10.111999999999901
42
-0.41421356237307422
10
-137.75624999999999
20
-10.611999999999902
10
-151.75624999999999
20
-10.611999999999908
42
-0.41421356237309509
10
-152.25625000000002
20
-10.111999999999901
10
-152.25625000000002
20
-4.1119999999999113
42
-0.41421356237310575
10
-151.75624999999999
20
-3.6119999999999108
10
-137.75624999999999
20
-3.6119999999999224
42
-0.41421356237307361
0
LWPOLYLINE
5
326
100
AcDbEntity
8
0
100
AcDbPolyline
90
8
70
1
43
0.0
10
-84.868750000000105
20
-27.9879999999999
10
-84.868750000000119
20
-33.9879999999999
42
-0.41421356237308465
10
-85.368750000000105
20
-34.4879999999999
10
-99.368750000000119
20
-34.487999999999907
42
-0.41421356237309509
10
-99.868750000000119
20
-33.9879999999999
10
-99.868750000000119
20
-27.9879999999999
42
-0.41421356237311585
10
-99.368750000000119
20
-27.487999999999904
10
-85.368750000000105
20
-27.4879999999999
42
-0.41421356237307161
0
LWPOLYLINE
5
327
100
AcDbEntity
8
0
100
AcDbPolyline
90
8
70
1
43
0.0
10
-151.75624999999999
20
-27.487999999999904
10
-137.75624999999999
20
-27.4879999999999
42
-0.41421356237307161
10
-137.25624999999999
20
-27.9879999999999
10
-137.25625000000002
20
-33.9879999999999
42
-0.41421356237308465
10
-137.75624999999999
20
-34.4879999999999
10
-151.75624999999999
20
-34.487999999999907
42
-0.41421356237309509
10
-152.25625000000002
20
-33.9879999999999
10
-152.25625000000002
20
-27.9879999999999
42
-0.41421356237311585
0
LWPOLYLINE
5
328
100
AcDbEntity
8
0
100
AcDbPolyline
90
8
70
1
43
0.0
10
-57.293750000000109
20
-27.9879999999999
10
-57.293750000000117
20
-33.9879999999999
42
-0.4142135623730977
10
-57.793750000000102
20
-34.4879999999999
10
-71.793750000000102
20
-34.487999999999907
42
-0.4142135623730977
10
-72.293750000000102
20
-33.9879999999999
10
-72.293750000000102
20
-27.9879999999999
42
-0.4142135623730977
10
-71.793750000000102
20
-27.487999999999904
10
-57.793750000000102
20
-27.4879999999999
42
-0.4142135623730977
0
LWPOLYLINE
5
329
100
AcDbEntity
8
0
100
AcDbPolyline
90
8
70
1
43
0.0
10
-124.68125000000002
20
-10.111999999999901
42
0.41421356237307422
10
-124.18125000000002
20
-10.611999999999908
10
-110.18125000000001
20
-10.611999999999902
42
0.41421356237309509
10
-109.68125000000001
20
-10.111999999999901
10
-109.68125000000001
20
-4.1119999999999104
42
0.41421356237309437
10
-110.18125000000001
20
-3.6119999999999104
10
-124.18125000000002
20
-3.6119999999999108
42
0.41421356237307461
10
-124.68125000000001
20
-4.1119999999999113
0
LWPOLYLINE
5
330
100
AcDbEntity
8
0
100
AcDbPolyline
90
8
70
1
43
0.0
10
-162.06874999999999
20
-4.1119999999999104
10
-162.06875000000002
20
-10.111999999999901
42
-0.41421356237302481
10
-162.56875000000002
20
-10.611999999999902
10
-176.56874999999999
20
-10.611999999999885
42
-0.41421356237312235
10
-177.06874999999999
20
-10.111999999999901
10
-177.06874999999997
20
-4.1119999999999113
42
-0.41421356237302581
10
-176.56874999999999
20
-3.6119999999999108
10
-162.56875000000002
20
-3.6119999999998926
42
-0.41421356237310153
0
LWPOLYLINE
5
331
100
AcDbEntity
8
0
100
AcDbPolyline
90
8
70
1
43
0.0
10
-99.868750000000119
20
-25.549999999999905
42
0.41421356237309509
10
-99.368750000000119
20
-26.049999999999912
10
-86.368750000000105
20
-26.049999999999901
42
0.41421356237311063
10
-85.868750000000119
20
-25.549999999999905
10
-85.868750000000091
20
-12.549999999999901
42
0.41421356237309637
10
-86.368750000000105
20
-12.049999999999901
10
-99.368750000000119
20
-12.049999999999901
42
0.41421356237309243
10
-99.868750000000119
20
-12.549999999999901
0
LWPOLYLINE
5
332
100
AcDbEntity
8
0
100
AcDbPolyline
90
8
70
1
43
0.0
10
-123.68125000000003
20
-25.549999999999905
42
0.41421356237309509
10
-123.18125000000002
20
-26.049999999999912
10
-110.18125000000001
20
-26.049999999999901
42
0.41421356237311063
10
-109.68125000000001
20
-25.549999999999905
10
-109.68125000000001
20
-12.549999999999901
42
0.41421356237309637
10
-110.18125000000001
20
-12.049999999999901
10
-123.18125000000002
20
-12.049999999999901
42
0.41421356237309243
10
-123.68125000000001
20
-12.549999999999901
0
LWPOLYLINE
5
333
100
AcDbEntity
8
0
100
AcDbPolyline
90
8
70
1
43
0.0
10
-57.793750000000102
20
-10.611999999999902
42
0.41421356237309637
10
-57.293750000000109
20
-10.111999999999901
10
-57.293750000000109
20
-4.1119999999999104
42
0.41421356237309698
10
-57.793750000000102
20
-3.6119999999999104
10
-71.793750000000102
20
-3.6119999999999108
42
0.41421356237309698
10
-72.293750000000102
20
-4.1119999999999113
10
-72.293750000000102
20
-10.111999999999901
42
0.4142135623730977
10
-71.793750000000102
20
-10.611999999999902
0
LWPOLYLINE
5
334
100
AcDbEntity
8
0
100
AcDbPolyline
90
8
70
1
43
0.0
10
-57.293750000000109
20
-12.549999999999901
10
-57.293750000000117
20
-25.549999999999905
42
-0.4142135623730977
10
-57.793750000000102
20
-26.049999999999901
10
-70.793750000000102
20
-26.049999999999901
42
-0.41421356237309509
10
-71.293750000000102
20
-25.549999999999905
10
-71.293750000000102
20
-12.549999999999901
42
-0.4142135623730937
10
-70.793750000000102
20
-12.049999999999901
10
-57.793750000000102
20
-12.049999999999898
42
-0.4142135623730977
0
LWPOLYLINE
5
335
100
AcDbEntity
8
0
100
AcDbPolyline
90
8
70
1
43
0.0
10
-99.868750000000119
20
-10.111999999999901
42
0.41421356237309509
10
-99.368750000000119
20
-10.611999999999908
10
-85.368750000000105
20
-10.611999999999902
42
0.41421356237307422
10
-84.868750000000105
20
-10.111999999999901
10
-84.868750000000105
20
-4.1119999999999104
42
0.41421356237307361
10
-85.368750000000105
20
-3.6119999999999002
10
-99.368750000000119
20
-3.6119999999999108
42
0.41421356237310575
10
-99.868750000000119
20
-4.1119999999999113
0
LWPOLYLINE
5
336
100
AcDbEntity
8
0
100
AcDbPolyline
90
8
70
1
43
0.0
10
-191.14375000000001
20
-64.149999999999906
10
-204.14375000000004
20
-64.149999999999906
42
-0.41421356237313145
10
-204.64375000000004
20
-63.649999999999906
10
-204.64375000000007
20
-50.649999999999906
42
-0.41421356237307422
10
-204.14375000000004
20
-50.149999999999906
10
-191.14375000000001
20
-50.14999999999992
42
-0.41421356237312629
10
-190.64375000000001
20
-50.649999999999906
10
-190.64375000000007
20
-63.649999999999906
42
-0.4142135623730222
0
LWPOLYLINE
5
337
100
AcDbEntity
8
0
100
AcDbPolyline
90
8
70
1
43
0.0
10
-189.64375000000001
20
-42.211999999999897
10
-189.64375000000004
20
-48.211999999999904
42
-0.4142135623730222
10
-190.14375000000001
20
-48.711999999999904
10
-204.14375000000004
20
-48.711999999999911
42
-0.41421356237313667
10
-204.64375000000004
20
-48.211999999999904
10
-204.64375000000007
20
-42.211999999999897
42
-0.41421356237307422
10
-204.14375000000004
20
-41.711999999999904
10
-190.14375000000001
20
-41.711999999999918
42
-0.41421356237312101
0
LWPOLYLINE
5
338
100
AcDbEntity
8
0
100
AcDbPolyline
90
8
70
1
43
0.0
10
-4.9062500000000604
20
-4.1119999999999104
42
0.41421356237309598
10
-5.4062500000000586
20
-3.6119999999999104
10
-19.406250000000099
20
-3.6119999999999108
42
0.41421356237309509
10
-19.906250000000099
20
-4.1119999999999113
10
-19.906250000000099
20
-10.111999999999901
42
0.41421356237309109
10
-19.406250000000099
20
-10.611999999999902
10
-5.4062500000000604
20
-10.611999999999902
42
0.41421356237309437
10
-4.9062500000000604
20
-10.111999999999901
0
LWPOLYLINE
5
339
100
AcDbEntity
8
0
100
AcDbPolyline
90
8
70
1
43
0.0
10
-4.9062500000000604
20
-12.549999999999901
42
0.41421356237309509
10
-5.4062500000000613
20
-12.049999999999901
10
-18.406250000000099
20
-12.049999999999901
42
0.41421356237309243
10
-18.906250000000099
20
-12.549999999999901
10
-18.906250000000099
20
-25.549999999999905
42
0.41421356237309509
10
-18.406250000000099
20
-26.049999999999901
10
-5.4062500000000604
20
-26.049999999999901
42
0.41421356237309437
10
-4.9062500000000604
20
-25.549999999999905
0
LWPOLYLINE
5
340
100
AcDbEntity
8
0
100
AcDbPolyline
90
8
70
1
43
0.0
10
-214.95625000000004
20
-48.711999999999904
42
0.4142135623730222
10
-214.45625000000007
20
-48.211999999999904
10
-214.45625000000004
20
-42.211999999999897
42
0.41421356237312101
10
-214.95625000000004
20
-41.711999999999904
10
-228.95625000000001
20
-41.711999999999904
42
0.4142135623730222
10
-229.45625000000004
20
-42.211999999999897
10
-229.45625000000004
20
-48.211999999999904
42
0.41421356237312629
10
-228.95625000000001
20
-48.711999999999904
0
LWPOLYLINE
5
341
100
AcDbEntity
8
0
100
AcDbPolyline
90
8
70
1
43
0.0
10
-162.56875000000002
20
-72.587999999999894
42
0.4142135623730222
10
-162.06875000000002
20
-72.087999999999894
10
-162.06874999999999
20
-66.087999999999894
42
0.41421356237312629
10
-162.56875000000002
20
-65.587999999999894
10
-176.56874999999999
20
-65.587999999999894
42
0.4142135623730222
10
-177.06874999999999
20
-66.087999999999894
10
-177.06874999999999
20
-72.087999999999894
42
0.41421356237312629
10
-176.56874999999999
20
-72.587999999999909
0
LWPOLYLINE
5
342
100
AcDbEntity
8
0
100
AcDbPolyline
90
8
70
1
43
0.0
10
-176.56874999999999
20
-41.711999999999904
10
-162.56875000000002
20
-41.711999999999918
42
-0.41421356237312101
10
-162.06874999999999
20
-42.211999999999897
10
-162.06875000000002
20
-48.211999999999904
42
-0.4142135623730222
10
-162.56875000000002
20
-48.711999999999904
10
-176.56874999999999
20
-48.71199999999989
42
-0.41421356237312629
10
-177.06874999999999
20
-48.211999999999904
10
-177.06874999999997
20
-42.211999999999897
42
-0.4142135623730222
0
LWPOLYLINE
5
343
100
AcDbEntity
8
0
100
AcDbPolyline
90
8
70
1
43
0.0
10
-214.95625000000004
20
-64.149999999999906
42
0.4142135623730222
10
-214.45625000000007
20
-63.649999999999906
10
-214.45625000000004
20
-50.649999999999906
42
0.41421356237312629
10
-214.95625000000004
20
-50.149999999999899
10
-227.95625000000001
20
-50.149999999999906
42
0.4142135623730222
10
-228.45625000000001
20
-50.649999999999906
10
-228.45625000000001
20
-63.649999999999906
42
0.41421356237312101
10
-227.95625000000001
20
-64.149999999999906
0
LWPOLYLINE
5
344
100
AcDbEntity
8
0
100
AcDbPolyline
90
8
70
1
43
0.0
10
-109.68125000000001
20
-66.087999999999894
42
0.4142135623731002
10
-110.18125000000001
20
-65.58799999999988
10
-124.18125000000002
20
-65.587999999999894
42
0.41421356237310542
10
-124.68125000000001
20
-66.087999999999894
10
-124.68125000000002
20
-72.087999999999894
42
0.41421356237307944
10
-124.18125000000002
20
-72.587999999999909
10
-110.18125000000001
20
-72.587999999999894
42
0.41421356237312101
10
-109.68125000000001
20
-72.087999999999894
0
LWPOLYLINE
5
345
100
AcDbEntity
8
0
100
AcDbPolyline
90
8
70
1
43
0.0
10
-124.18125000000002
20
-41.711999999999904
42
0.4142135623731002
10
-124.68125000000001
20
-42.211999999999897
10
-124.68125000000002
20
-48.211999999999904
42
0.41421356237307944
10
-124.18125000000002
20
-48.711999999999904
10
-110.18125000000001
20
-48.711999999999904
42
0.41421356237312101
10
-109.68125000000001
20
-48.211999999999904
10
-109.68125000000001
20
-42.211999999999897
42
0.41421356237309509
10
-110.18125000000001
20
-41.711999999999904
0
LWPOLYLINE
5
346
100
AcDbEntity
8
0
100
AcDbPolyline
90
8
70
1
43
0.0
10
-137.75624999999999
20
-72.587999999999894
42
0.41421356237310542
10
-137.25625000000002
20
-72.087999999999894
10
-137.25624999999999
20
-66.087999999999894
42
0.41421356237307944
10
-137.75624999999999
20
-65.587999999999894
10
-151.75624999999999
20
-65.587999999999894
42
0.41421356237312101
10
-152.25625000000002
20
-66.087999999999894
10
-152.25625000000002
20
-72.087999999999894
42
0.4142135623731002
10
-151.75624999999999
20
-72.587999999999909
0
LWPOLYLINE
5
347
100
AcDbEntity
8
0
100
AcDbPolyline
90
8
70
1
43
0.0
10
-152.25625000000002
20
-63.649999999999906
10
-152.25624999999999
20
-50.649999999999906
42
-0.41421356237312101
10
-151.75624999999999
20
-50.149999999999906
10
-138.75624999999999
20
-50.149999999999892
42
-0.4142135623731002
10
-138.25624999999999
20
-50.649999999999906
10
-138.25624999999999
20
-63.649999999999906
42
-0.41421356237311585
10
-138.75624999999999
20
-64.149999999999906
10
-151.75624999999999
20
-64.149999999999906
42
-0.41421356237309509
0
LWPOLYLINE
5
348
100
AcDbEntity
8
0
100
AcDbPolyline
90
8
70
1
43
0.0
10
-110.18125000000001
20
-64.149999999999906
10
-123.18125000000002
20
-64.149999999999906
42
-0.41421356237309509
10
-123.68125000000003
20
-63.649999999999906
10
-123.68125000000001
20
-50.649999999999906
42
-0.41421356237312101
10
-123.18125000000002
20
-50.149999999999906
10
-110.18125000000001
20
-50.149999999999892
42
-0.4142135623731002
10
-109.68125000000001
20
-50.649999999999906
10
-109.68125000000001
20
-63.649999999999906
42
-0.41421356237311585
0
LWPOLYLINE
5
349
100
AcDbEntity
8
0
100
AcDbPolyline
90
8
70
1
43
0.0
10
-162.06874999999999
20
-50.649999999999906
10
-162.06875000000002
20
-63.649999999999906
42
-0.4142135623730222
10
-162.56875000000002
20
-64.149999999999906
10
-175.56875000000002
20
-64.149999999999906
42
-0.41421356237313145
10
-176.06875000000002
20
-63.649999999999906
10
-176.06875000000005
20
-50.649999999999906
42
-0.41421356237307422
10
-175.56875000000002
20
-50.149999999999906
10
-162.56875000000002
20
-50.14999999999992
42
-0.41421356237312629
0
LWPOLYLINE
5
350
100
AcDbEntity
8
0
100
AcDbPolyline
90
8
70
1
43
0.0
10
-137.75624999999999
20
-48.711999999999904
10
-151.75624999999999
20
-48.711999999999918
42
-0.4142135623731002
10
-152.25625000000002
20
-48.211999999999904
10
-152.25625000000002
20
-42.211999999999897
42
-0.41421356237311585
10
-151.75624999999999
20
-41.711999999999904
10
-137.75624999999999
20
-41.71199999999989
42
-0.41421356237307422
10
-137.25624999999999
20
-42.211999999999897
10
-137.25625000000002
20
-48.211999999999904
42
-0.41421356237310542
0
LWPOLYLINE
5
351
100
AcDbEntity
8
0
100
AcDbPolyline
90
8
70
1
43
0.0
10
-85.368750000000105
20
-48.711999999999904
10
-99.368750000000119
20
-48.711999999999918
42
-0.4142135623731002
10
-99.868750000000119
20
-48.211999999999904
10
-99.868750000000119
20
-42.211999999999897
42
-0.41421356237311585
10
-99.368750000000119
20
-41.711999999999904
10
-85.368750000000105
20
-41.71199999999989
42
-0.41421356237307422
10
-84.868750000000105
20
-42.211999999999897
10
-84.868750000000119
20
-48.211999999999904
42
-0.41421356237310542
0
LWPOLYLINE
5
352
100
AcDbEntity
8
0
100
AcDbPolyline
90
8
70
1
43
0.0
10
-46.981250000000109
20
-41.711999999999904
42
0.41421356237309509
10
-47.481250000000102
20
-42.211999999999897
10
-47.481250000000102
20
-48.211999999999904
42
0.41421356237309509
10
-46.981250000000109
20
-48.711999999999904
10
-32.981250000000102
20
-48.711999999999904
42
0.4142135623730977
10
-32.481250000000102
20
-48.211999999999904
10
-32.481250000000102
20
-42.211999999999897
42
0.41421356237309509
10
-32.981250000000102
20
-41.711999999999904
0
LWPOLYLINE
5
353
100
AcDbEntity
8
0
100
AcDbPolyline
90
8
70
1
43
0.0
10
-46.981250000000109
20
-65.587999999999894
10
-32.981250000000102
20
-65.587999999999909
42
-0.4142135623730977
10
-32.481250000000102
20
-66.087999999999894
10
-32.481250000000102
20
-72.087999999999894
42
-0.4142135623730977
10
-32.981250000000102
20
-72.587999999999894
10
-46.981250000000109
20
-72.587999999999894
42
-0.41421356237309509
10
-47.481250000000102
20
-72.087999999999894
10
-47.481250000000102
20
-66.087999999999894
42
-0.41421356237309509
0
LWPOLYLINE
5
354
100
AcDbEntity
8
0
100
AcDbPolyline
90
8
70
1
43
0.0
10
-33.481250000000102
20
-50.649999999999906
10
-33.481250000000109
20
-63.649999999999906
42
-0.41421356237309509
10
-33.981250000000102
20
-64.149999999999906
10
-46.981250000000109
20
-64.149999999999906
42
-0.41421356237309509
10
-47.481250000000102
20
-63.649999999999906
10
-47.481250000000102
20
-50.649999999999906
42
-0.41421356237309509
10
-46.981250000000109
20
-50.149999999999906
10
-33.981250000000102
20
-50.149999999999906
42
-0.4142135623730977
0
LWPOLYLINE
5
355
100
AcDbEntity
8
0
100
AcDbPolyline
90
8
70
1
43
0.0
10
-85.368750000000105
20
-72.587999999999909
10
-99.368750000000119
20
-72.587999999999909
42
-0.4142135623731002
10
-99.868750000000119
20
-72.087999999999894
10
-99.868750000000105
20
-66.087999999999894
42
-0.41421356237312101
10
-99.368750000000119
20
-65.587999999999894
10
-85.368750000000119
20
-65.58799999999988
42
-0.41421356237307944
10
-84.868750000000105
20
-66.087999999999894
10
-84.868750000000119
20
-72.087999999999894
42
-0.41421356237310542
0
LWPOLYLINE
5
356
100
AcDbEntity
8
0
100
AcDbPolyline
90
8
70
1
43
0.0
10
-86.368750000000105
20
-64.149999999999906
42
0.41421356237311585
10
-85.868750000000091
20
-63.649999999999906
10
-85.868750000000091
20
-50.649999999999906
42
0.4142135623731002
10
-86.368750000000105
20
-50.149999999999899
10
-99.368750000000119
20
-50.149999999999906
42
0.41421356237312101
10
-99.868750000000119
20
-50.649999999999906
10
-99.868750000000119
20
-63.649999999999906
42
0.41421356237309509
10
-99.368750000000119
20
-64.149999999999906
0
LWPOLYLINE
5
357
100
AcDbEntity
8
0
100
AcDbPolyline
90
8
70
1
43
0.0
10
-57.293750000000109
20
-50.649999999999906
10
-57.293750000000109
20
-63.649999999999906
42
-0.41421356237309509
10
-57.793750000000102
20
-64.149999999999906
10
-70.793750000000102
20
-64.149999999999906
42
-0.41421356237309509
10
-71.293750000000102
20
-63.649999999999906
10
-71.293750000000102
20
-50.649999999999906
42
-0.41421356237309509
10
-70.793750000000102
20
-50.149999999999906
10
-57.793750000000102
20
-50.149999999999906
42
-0.41421356237310542
0
LWPOLYLINE
5
358
100
AcDbEntity
8
0
100
AcDbPolyline
90
8
70
1
43
0.0
10
-72.293750000000102
20
-48.211999999999904
10
-72.293750000000102
20
-42.211999999999897
42
-0.41421356237309509
10
-71.793750000000102
20
-41.711999999999904
10
-57.793750000000102
20
-41.711999999999904
42
-0.41421356237309509
10
-57.293750000000109
20
-42.211999999999897
10
-57.293750000000109
20
-48.211999999999904
42
-0.41421356237310542
10
-57.793750000000102
20
-48.711999999999904
10
-71.793750000000102
20
-48.711999999999904
42
-0.41421356237310542
0
LWPOLYLINE
5
359
100
AcDbEntity
8
0
100
AcDbPolyline
90
8
70
1
43
0.0
10
-71.793750000000102
20
-65.587999999999894
42
0.41421356237310542
10
-72.293750000000102
20
-66.087999999999894
10
-72.293750000000102
20
-72.087999999999894
42
0.41421356237310542
10
-71.793750000000102
20
-72.587999999999909
10
-57.793750000000102
20
-72.587999999999894
42
0.41421356237310542
10
-57.293750000000109
20
-72.087999999999894
10
-57.293750000000109
20
-66.087999999999894
42
0.41421356237310542
10
-57.793750000000102
20
-65.587999999999894
0
LWPOLYLINE
5
360
100
AcDbEntity
8
0
100
AcDbPolyline
90
8
70
1
43
0.0
10
-204.14375000000004
20
-65.587999999999894
42
0.41421356237307422
10
-204.64375000000007
20
-66.087999999999894
10
-204.64375000000004
20
-72.087999999999894
42
0.41421356237313667
10
-204.14375000000004
20
-72.587999999999909
10
-190.14375000000001
20
-72.587999999999894
42
0.4142135623730222
10
-189.64375000000001
20
-72.087999999999894
10
-189.64375000000001
20
-66.087999999999894
42
0.41421356237312629
10
-190.14375000000001
20
-65.587999999999894
0
LWPOLYLINE
5
361
100
AcDbEntity
8
0
100
AcDbPolyline
90
8
70
1
43
0.0
10
-229.45625000000004
20
-72.087999999999894
42
0.41421356237312629
10
-228.95625000000001
20
-72.58799999999988
10
-214.95625000000004
20
-72.587999999999894
42
0.4142135623730222
10
-214.45625000000004
20
-72.087999999999894
10
-214.45625000000004
20
-66.087999999999894
42
0.41421356237312629
10
-214.95625000000004
20
-65.587999999999894
10
-228.95625000000001
20
-65.587999999999894
42
0.4142135623730222
10
-229.45625000000004
20
-66.087999999999894
0
LWPOLYLINE
5
362
100
AcDbEntity
8
0
100
AcDbPolyline
90
8
70
1
43
0.0
10
-5.4062500000000604
20
-34.4879999999999
10
-19.406250000000099
20
-34.487999999999907
42
-0.41421356237309509
10
-19.906250000000099
20
-33.9879999999999
10
-19.906250000000099
20
-27.9879999999999
42
-0.41421356237309637
10
-19.406250000000099
20
-27.487999999999904
10
-5.4062500000000613
20
-27.487999999999904
42
-0.41421356237309637
10
-4.9062500000000604
20
-27.9879999999999
10
-4.9062500000000631
20
-33.9879999999999
42
-0.41421356237309437
0
LWPOLYLINE
5
363
100
AcDbEntity
8
0
100
AcDbPolyline
90
8
70
1
43
0.0
10
-33.481250000000109
20
-12.549999999999901
42
0.4142135623730937
10
-33.981250000000102
20
-12.049999999999901
10
-46.981250000000109
20
-12.049999999999901
42
0.4142135623730937
10
-47.481250000000102
20
-12.549999999999901
10
-47.481250000000102
20
-25.549999999999905
42
0.41421356237309509
10
-46.981250000000109
20
-26.049999999999901
10
-33.981250000000102
20
-26.049999999999901
42
0.41421356237309509
10
-33.481250000000102
20
-25.549999999999905
0
LWPOLYLINE
5
364
100
AcDbEntity
8
0
100
AcDbPolyline
90
8
70
1
43
0.0
10
-32.981250000000102
20
-10.611999999999902
10
-46.981250000000109
20
-10.611999999999899
42
-0.41421356237309509
10
-47.481250000000102
20
-10.111999999999901
10
-47.481250000000102
20
-4.1119999999999113
42
-0.41421356237309437
10
-46.981250000000109
20
-3.6119999999999108
10
-32.981250000000102
20
-3.6119999999999113
42
-0.4142135623730957
10
-32.481250000000102
20
-4.1119999999999104
10
-32.481250000000102
20
-10.111999999999901
42
-0.41421356237309243
0
LWPOLYLINE
5
365
100
AcDbEntity
8
0
100
AcDbPolyline
90
8
70
1
43
0.0
10
-32.981250000000102
20
-34.4879999999999
10
-46.981250000000109
20
-34.4879999999999
42
-0.41421356237309509
10
-47.481250000000102
20
-33.9879999999999
10
-47.481250000000102
20
-27.9879999999999
42
-0.41421356237309509
10
-46.981250000000109
20
-27.487999999999904
10
-32.981250000000102
20
-27.487999999999904
42
-0.41421356237309509
10
-32.481250000000102
20
-27.9879999999999
10
-32.481250000000102
20
-33.9879999999999
42
-0.41421356237309509
0
LWPOLYLINE
5
366
100
AcDbEntity
8
0
100
AcDbPolyline
90
8
70
1
43
0.0
10
-214.95625000000004
20
-110.68800000000002
10
-228.95625000000001
20
-110.68799999999999
42
-0.41421356237308465
10
-229.45625000000004
20
-110.188
10
-229.45625000000001
20
-104.18800000000002
42
-0.41421356237310542
10
-228.95625000000001
20
-103.688
10
-214.95625000000004
20
-103.68799999999999
42
-0.41421356237310542
10
-214.45625000000004
20
-104.18800000000002
10
-214.45625000000001
20
-110.188
42
-0.41421356237308465
0
LWPOLYLINE
5
367
100
AcDbEntity
8
0
100
AcDbPolyline
90
8
70
1
43
0.0
10
-124.68125000000001
20
-110.188
10
-124.68125000000002
20
-104.18800000000002
42
-0.41421356237307422
10
-124.18125000000002
20
-103.688
10
-110.18125000000001
20
-103.688
42
-0.41421356237309509
10
-109.68125000000001
20
-104.18800000000002
10
-109.68125000000001
20
-110.188
42
-0.41421356237307422
10
-110.18125000000001
20
-110.68800000000002
10
-124.18125000000002
20
-110.68799999999999
42
-0.4142135623730534
0
LWPOLYLINE
5
368
100
AcDbEntity
8
0
100
AcDbPolyline
90
8
70
1
43
0.0
10
-191.14375000000001
20
-102.25000000000001
10
-204.14375000000004
20
-102.25000000000001
42
-0.41421356237313667
10
-204.64375000000004
20
-101.75
10
-204.64375000000004
20
-88.749999999999915
42
-0.41421356237309509
10
-204.14375000000004
20
-88.249999999999901
10
-191.14375000000001
20
-88.249999999999915
42
-0.41421356237308465
10
-190.64375000000001
20
-88.749999999999915
10
-190.64375000000007
20
-101.75
42
-0.41421356237310542
0
LWPOLYLINE
5
369
100
AcDbEntity
8
0
100
AcDbPolyline
90
8
70
1
43
0.0
10
-214.95625000000004
20
-86.811999999999898
10
-228.95625000000001
20
-86.811999999999898
42
-0.41421356237308465
10
-229.45625000000004
20
-86.311999999999912
10
-229.45625000000004
20
-80.311999999999898
42
-0.41421356237301177
10
-228.95625000000001
20
-79.811999999999898
10
-214.95625000000004
20
-79.811999999999898
42
-0.41421356237312629
10
-214.45625000000004
20
-80.311999999999898
10
-214.45625000000004
20
-86.311999999999912
42
-0.41421356237308465
0
LWPOLYLINE
5
370
100
AcDbEntity
8
0
100
AcDbPolyline
90
8
70
1
43
0.0
10
-214.45625000000004
20
-88.749999999999915
42
0.41421356237308465
10
-214.95625000000004
20
-88.249999999999915
10
-227.95625000000001
20
-88.249999999999901
42
0.41421356237308465
10
-228.45625000000001
20
-88.749999999999915
10
-228.45625000000001
20
-101.75
42
0.41421356237310542
10
-227.95625000000001
20
-102.25000000000001
10
-214.95625000000004
20
-102.25000000000001
42
0.41421356237310542
10
-214.45625000000004
20
-101.75
0
LWPOLYLINE
5
371
100
AcDbEntity
8
0
100
AcDbPolyline
90
8
70
1
43
0.0
10
-204.64375000000004
20
-86.311999999999912
42
0.41421356237309509
10
-204.14375000000004
20
-86.811999999999912
10
-190.14375000000001
20
-86.811999999999912
42
0.41421356237308465
10
-189.64375000000001
20
-86.311999999999912
10
-189.64375000000001
20
-80.311999999999898
42
0.41421356237312629
10
-190.14375000000001
20
-79.811999999999898
10
-204.14375000000004
20
-79.811999999999898
42
0.41421356237306384
10
-204.64375000000004
20
-80.311999999999898
0
LWPOLYLINE
5
372
100
AcDbEntity
8
0
100
AcDbPolyline
90
8
70
1
43
0.0
10
-152.25625000000002
20
-101.75
10
-152.25625000000002
20
-88.749999999999915
42
-0.41421356237307422
10
-151.75624999999999
20
-88.249999999999901
10
-138.75624999999999
20
-88.249999999999901
42
-0.41421356237307422
10
-138.25624999999999
20
-88.749999999999915
10
-138.25624999999999
20
-101.75
42
-0.41421356237309509
10
-138.75624999999999
20
-102.25000000000001
10
-151.75624999999999
20
-102.25000000000001
42
-0.41421356237309509
0
LWPOLYLINE
5
373
100
AcDbEntity
8
0
100
AcDbPolyline
90
8
70
1
43
0.0
10
-204.14375000000004
20
-103.688
42
0.41421356237313667
10
-204.64375000000004
20
-104.18800000000002
10
-204.64375000000004
20
-110.188
42
0.41421356237309509
10
-204.14375000000004
20
-110.68800000000002
10
-190.14375000000001
20
-110.68800000000002
42
0.41421356237308465
10
-189.64375000000001
20
-110.188
10
-189.64375000000001
20
-104.18800000000002
42
0.41421356237310542
10
-190.14375000000001
20
-103.688
0
LWPOLYLINE
5
374
100
AcDbEntity
8
0
100
AcDbPolyline
90
8
70
1
43
0.0
10
-177.06874999999999
20
-86.311999999999912
10
-177.06874999999999
20
-80.311999999999898
42
-0.41421356237301177
10
-176.56874999999999
20
-79.811999999999898
10
-162.56875000000002
20
-79.811999999999898
42
-0.41421356237312629
10
-162.06874999999999
20
-80.311999999999898
10
-162.06874999999997
20
-86.311999999999912
42
-0.41421356237308465
10
-162.56875000000002
20
-86.811999999999912
10
-176.56874999999999
20
-86.811999999999898
42
-0.41421356237308465
0
LWPOLYLINE
5
375
100
AcDbEntity
8
0
100
AcDbPolyline
90
8
70
1
43
0.0
10
-72.293750000000102
20
-86.311999999999912
42
0.41421356237310542
10
-71.793750000000102
20
-86.811999999999898
10
-57.793750000000102
20
-86.811999999999912
42
0.41421356237307944
10
-57.293750000000109
20
-86.311999999999912
10
-57.293750000000109
20
-80.311999999999898
42
0.41421356237309509
10
-57.793750000000102
20
-79.811999999999898
10
-71.793750000000102
20
-79.811999999999898
42
0.41421356237309509
10
-72.293750000000102
20
-80.311999999999898
0
LWPOLYLINE
5
376
100
AcDbEntity
8
0
100
AcDbPolyline
90
8
70
1
43
0.0
10
-110.18125000000001
20
-102.25000000000001
10
-123.18125000000002
20
-102.25000000000001
42
-0.41421356237309509
10
-123.68125000000003
20
-101.75
10
-123.68125000000003
20
-88.749999999999915
42
-0.41421356237307422
10
-123.18125000000002
20
-88.249999999999901
10
-110.18125000000001
20
-88.249999999999901
42
-0.41421356237307422
10
-109.68125000000001
20
-88.749999999999915
10
-109.68125000000001
20
-101.75
42
-0.41421356237309509
0
LWPOLYLINE
5
377
100
AcDbEntity
8
0
100
AcDbPolyline
90
8
70
1
43
0.0
10
-57.793750000000102
20
-102.25000000000001
10
-70.793750000000102
20
-102.25000000000001
42
-0.41421356237311585
10
-71.293750000000102
20
-101.75
10
-71.293750000000117
20
-88.749999999999915
42
-0.41421356237307422
10
-70.793750000000102
20
-88.249999999999901
10
-57.793750000000102
20
-88.249999999999915
42
-0.41421356237310542
10
-57.293750000000109
20
-88.749999999999915
10
-57.293750000000088
20
-101.75
42
-0.4142135623731002
0
LWPOLYLINE
5
378
100
AcDbEntity
8
0
100
AcDbPolyline
90
8
70
1
43
0.0
10
-71.793750000000102
20
-103.688
42
0.4142135623731002
10
-72.293750000000131
20
-104.18800000000002
10
-72.293750000000102
20
-110.188
42
0.41421356237310542
10
-71.793750000000102
20
-110.68800000000002
10
-57.793750000000102
20
-110.68800000000002
42
0.41421356237307944
10
-57.293750000000109
20
-110.188
10
-57.293750000000109
20
-104.18800000000002
42
0.41421356237312101
10
-57.793750000000102
20
-103.688
0
LWPOLYLINE
5
379
100
AcDbEntity
8
0
100
AcDbPolyline
90
8
70
1
43
0.0
10
-99.368750000000119
20
-103.688
10
-85.368750000000105
20
-103.688
42
-0.41421356237307422
10
-84.868750000000105
20
-104.18800000000002
10
-84.868750000000105
20
-110.188
42
-0.4142135623730534
10
-85.368750000000105
20
-110.68800000000002
10
-99.368750000000119
20
-110.68800000000002
42
-0.41421356237307422
10
-99.868750000000119
20
-110.188
10
-99.868750000000119
20
-104.18800000000002
42
-0.41421356237309509
0
LWPOLYLINE
5
380
100
AcDbEntity
8
0
100
AcDbPolyline
90
8
70
1
43
0.0
10
-85.368750000000105
20
-86.811999999999898
10
-99.368750000000119
20
-86.811999999999912
42
-0.41421356237307422
10
-99.868750000000119
20
-86.311999999999912
10
-99.868750000000119
20
-80.311999999999898
42
-0.41421356237311585
10
-99.368750000000119
20
-79.811999999999898
10
-85.368750000000105
20
-79.81199999999987
42
-0.41421356237308465
10
-84.868750000000105
20
-80.311999999999898
10
-84.868750000000119
20
-86.311999999999912
42
-0.4142135623730534
0
LWPOLYLINE
5
381
100
AcDbEntity
8
0
100
AcDbPolyline
90
8
70
1
43
0.0
10
-176.56874999999999
20
-103.688
10
-162.56875000000002
20
-103.68799999999999
42
-0.41421356237310542
10
-162.06874999999999
20
-104.18800000000002
10
-162.06874999999997
20
-110.188
42
-0.41421356237308465
10
-162.56875000000002
20
-110.68800000000002
10
-176.56874999999999
20
-110.68799999999999
42
-0.41421356237308465
10
-177.06874999999999
20
-110.188
10
-177.06874999999997
20
-104.18800000000002
42
-0.41421356237310542
0
LWPOLYLINE
5
382
100
AcDbEntity
8
0
100
AcDbPolyline
90
8
70
1
43
0.0
10
-162.06874999999999
20
-88.749999999999915
10
-162.06875000000002
20
-101.75
42
-0.41421356237310542
10
-162.56875000000002
20
-102.25000000000001
10
-175.56875000000002
20
-102.25000000000001
42
-0.41421356237313667
10
-176.06875000000002
20
-101.75
10
-176.06875000000002
20
-88.749999999999915
42
-0.41421356237309509
10
-175.56875000000002
20
-88.249999999999901
10
-162.56875000000002
20
-88.249999999999915
42
-0.41421356237308465
0
LWPOLYLINE
5
383
100
AcDbEntity
8
0
100
AcDbPolyline
90
8
70
1
43
0.0
10
-85.868750000000119
20
-88.749999999999915
10
-85.868750000000091
20
-101.75
42
-0.41421356237309509
10
-86.368750000000105
20
-102.25000000000001
10
-99.368750000000119
20
-102.25000000000001
42
-0.41421356237309509
10
-99.868750000000119
20
-101.75
10
-99.868750000000119
20
-88.749999999999915
42
-0.41421356237307422
10
-99.368750000000119
20
-88.249999999999901
10
-86.368750000000105
20
-88.249999999999915
42
-0.41421356237307422
0
LWPOLYLINE
5
384
100
AcDbEntity
8
0
100
AcDbPolyline
90
8
70
1
43
0.0
10
-152.25625000000002
20
-110.188
42
0.41421356237307422
10
-151.75624999999999
20
-110.68800000000002
10
-137.75624999999999
20
-110.68800000000002
42
0.4142135623730534
10
-137.25625000000002
20
-110.188
10
-137.25624999999999
20
-104.18800000000002
42
0.41421356237307422
10
-137.75624999999999
20
-103.688
10
-151.75624999999999
20
-103.688
42
0.41421356237309509
10
-152.25625000000002
20
-104.18800000000002
0
LWPOLYLINE
5
385
100
AcDbEntity
8
0
100
AcDbPolyline
90
8
70
1
43
0.0
10
-137.25625000000002
20
-80.311999999999898
10
-137.25624999999999
20
-86.311999999999912
42
-0.4142135623730534
10
-137.75624999999999
20
-86.811999999999912
10
-151.75624999999999
20
-86.811999999999912
42
-0.41421356237307422
10
-152.25625000000002
20
-86.311999999999912
10
-152.25625000000002
20
-80.311999999999898
42
-0.41421356237311585
10
-151.75624999999999
20
-79.811999999999898
10
-137.75624999999999
20
-79.811999999999884
42
-0.41421356237308465
0
LWPOLYLINE
5
386
100
AcDbEntity
8
0
100
AcDbPolyline
90
8
70
1
43
0.0
10
-124.18125000000002
20
-79.811999999999898
10
-110.18125000000001
20
-79.81199999999987
42
-0.41421356237310542
10
-109.68125000000001
20
-80.311999999999898
10
-109.68125000000001
20
-86.311999999999912
42
-0.41421356237307422
10
-110.18125000000001
20
-86.811999999999912
10
-124.18125000000002
20
-86.811999999999912
42
-0.4142135623730534
10
-124.68125000000002
20
-86.311999999999912
10
-124.68125000000001
20
-80.311999999999898
42
-0.41421356237309509
0
LWPOLYLINE
5
387
100
AcDbEntity
8
0
100
AcDbPolyline
90
8
70
1
43
0.0
10
-19.906250000000099
20
-72.087999999999894
10
-19.906250000000103
20
-66.087999999999894
42
-0.4142135623730977
10
-19.406250000000099
20
-65.587999999999894
10
-5.4062500000000613
20
-65.587999999999894
42
-0.4142135623730977
10
-4.9062500000000604
20
-66.087999999999894
10
-4.9062500000000604
20
-72.087999999999894
42
-0.4142135623730957
10
-5.4062500000000604
20
-72.587999999999894
10
-19.406250000000099
20
-72.587999999999894
42
-0.41421356237309637
0
LWPOLYLINE
5
388
100
AcDbEntity
8
0
100
AcDbPolyline
90
8
70
1
43
0.0
10
-18.906250000000099
20
-63.649999999999906
10
-18.906250000000103
20
-50.649999999999906
42
-0.4142135623730977
10
-18.406250000000099
20
-50.149999999999906
10
-5.4062500000000613
20
-50.149999999999906
42
-0.4142135623730977
10
-4.9062500000000604
20
-50.649999999999906
10
-4.9062500000000657
20
-63.649999999999906
42
-0.41421356237309309
10
-5.4062500000000604
20
-64.149999999999906
10
-18.406250000000099
20
-64.149999999999906
42
-0.4142135623730937
0
LWPOLYLINE
5
389
100
AcDbEntity
8
0
100
AcDbPolyline
90
8
70
1
43
0.0
10
-19.406250000000099
20
-41.711999999999904
10
-5.4062500000000613
20
-41.711999999999904
42
-0.41421356237309509
10
-4.9062500000000604
20
-42.211999999999897
10
-4.9062500000000604
20
-48.211999999999904
42
-0.4142135623730957
10
-5.4062500000000604
20
-48.711999999999904
10
-19.406250000000099
20
-48.711999999999904
42
-0.41421356237309637
10
-19.906250000000099
20
-48.211999999999904
10
-19.906250000000099
20
-42.211999999999897
42
-0.41421356237309509
0
ENDSEC
0
SECTION
2
OBJECTS
0
DICTIONARY
5
C
100
AcDbDictionary
3
ACAD_GROUP
350
D
3
ACAD_MLINESTYLE
350
17
0
DICTIONARY
5
D
100
AcDbDictionary
0
DICTIONARY
5
1A
330
C
100
AcDbDictionary
0
DICTIONARY
5
17
100
AcDbDictionary
0
ENDSEC
0
EOF
